<?xml version="1.0" encoding="utf-8"?>
<!-- Generator: Adobe Illustrator 27.0.0, SVG Export Plug-In . SVG Version: 6.00 Build 0)  -->
<svg version="1.1" id="Layer_1" xmlns="http://www.w3.org/2000/svg" xmlns:xlink="http://www.w3.org/1999/xlink" x="0px" y="0px"
	 viewBox="0 0 48 48" style="enable-background:new 0 0 48 48;" xml:space="preserve">
<style type="text/css">
	.st0{fill-rule:evenodd;clip-rule:evenodd;}
</style>
<g>
	<path class="st0" d="M1.5,45.9L1.5,45.9c-1.6-1.6-1.6-4.3,0.1-5.9L40.6,2c1.6-1.6,4.3-1.6,5.9,0.1l0,0c1.6,1.6,1.6,4.3-0.1,5.9
		L7.4,46C5.7,47.6,3.1,47.6,1.5,45.9z"/>
	<path class="st0" d="M46.5,45.9L46.5,45.9c1.6-1.6,1.6-4.3-0.1-5.9L7.4,2C5.7,0.4,3.1,0.4,1.5,2.1l0,0c-1.6,1.6-1.6,4.3,0.1,5.9
		L40.6,46C42.3,47.6,44.9,47.6,46.5,45.9z"/>
</g>
</svg>
