<?xml version="1.0" encoding="utf-8"?>
<!-- Generator: Adobe Illustrator 27.0.0, SVG Export Plug-In . SVG Version: 6.00 Build 0)  -->
<svg version="1.1" id="Layer_1" xmlns="http://www.w3.org/2000/svg" xmlns:xlink="http://www.w3.org/1999/xlink" x="0px" y="0px"
	 viewBox="0 0 800 800" style="enable-background:new 0 0 800 800;" xml:space="preserve">
<style type="text/css">
	.st0{fill:#8E8E8E;}
</style>
<g id="c133de6af664cd4f011a55de6b001b19">
	<path class="st0" d="M426,371l-4.9,52.4L400,429l-21.1-5.6L374,371H426z M416.2,381.6H400h-16.5l0.8,6.3H400h0.9l-0.9,0.4
		l-15.1,6.2l0.5,6.2l14.6,0l7.8,0l-0.5,8.2l-7.3,2v0l-0.1,0l-7.1-1.8l-0.4-5.1h0h-6.6h0l0.9,9.9L400,418v0l0,0l13.3-3.8l1.7-19.6
		h-15h0l0,0l15.6-6.6L416.2,381.6z"/>
</g>
</svg>
