<?xml version="1.0" encoding="utf-8"?>
<!-- Generator: Adobe Illustrator 27.0.0, SVG Export Plug-In . SVG Version: 6.00 Build 0)  -->
<svg version="1.1" id="Layer_1" xmlns="http://www.w3.org/2000/svg" xmlns:xlink="http://www.w3.org/1999/xlink" x="0px" y="0px"
	 viewBox="0 0 48 48" style="enable-background:new 0 0 48 48;" xml:space="preserve">
<style type="text/css">
	.st0{fill-rule:evenodd;clip-rule:evenodd;fill:#8E8E8E;}
</style>
<path class="st0" d="M-2,24C-2,9.6,9.6-2,24-2S50,9.6,50,24S38.4,50,24,50S-2,38.4-2,24z M18.8,39.6c2.9,0,5.2-2.3,5.2-5.2v-5.2
	h-5.2c-2.9,0-5.2,2.3-5.2,5.2S15.9,39.6,18.8,39.6z M13.6,24c0,2.9,2.3,5.2,5.2,5.2H24V18.8h-5.2C15.9,18.8,13.6,21.1,13.6,24z
	 M13.6,13.6c0,2.9,2.3,5.2,5.2,5.2H24V8.4h-5.2C15.9,8.4,13.6,10.7,13.6,13.6z M24,8.4v10.4h5.2c2.9,0,5.2-2.3,5.2-5.2
	s-2.3-5.2-5.2-5.2H24z M34.4,24c0-2.9-2.3-5.2-5.2-5.2c-2.9,0-5.2,2.3-5.2,5.2s2.3,5.2,5.2,5.2C32.1,29.2,34.4,26.9,34.4,24z"/>
</svg>
