<?xml version="1.0" encoding="utf-8"?>
<!-- Generator: Adobe Illustrator 27.0.0, SVG Export Plug-In . SVG Version: 6.00 Build 0)  -->
<svg version="1.1" id="Layer_1" xmlns="http://www.w3.org/2000/svg" xmlns:xlink="http://www.w3.org/1999/xlink" x="0px" y="0px"
	 viewBox="0 0 48 48" style="enable-background:new 0 0 48 48;" xml:space="preserve">
<style type="text/css">
	.st0{fill-rule:evenodd;clip-rule:evenodd;fill:#8E8E8E;}
</style>
<path class="st0" d="M1.5,24c0-12.4,10-22.5,22.5-22.5s22.5,10,22.5,22.5S36.4,46.5,24,46.5S1.5,36.4,1.5,24z M19.5,37.5
	c2.5,0,4.5-2,4.5-4.5v-4.5h-4.5c-2.5,0-4.5,2-4.5,4.5C15,35.5,17,37.5,19.5,37.5z M15,24c0,2.5,2,4.5,4.5,4.5H24v-9h-4.5
	C17,19.5,15,21.5,15,24z M15,15c0,2.5,2,4.5,4.5,4.5H24v-9h-4.5C17,10.5,15,12.5,15,15z M24,10.5v9h4.5c2.5,0,4.5-2,4.5-4.5
	s-2-4.5-4.5-4.5H24z M33,24c0-2.5-2-4.5-4.5-4.5S24,21.5,24,24s2,4.5,4.5,4.5S33,26.5,33,24z"/>
</svg>
