<?xml version="1.0" encoding="utf-8"?>
<!-- Generator: Adobe Illustrator 27.0.0, SVG Export Plug-In . SVG Version: 6.00 Build 0)  -->
<svg version="1.1" id="Layer_1" xmlns="http://www.w3.org/2000/svg" xmlns:xlink="http://www.w3.org/1999/xlink" x="0px" y="0px"
	 viewBox="0 0 48 48" style="enable-background:new 0 0 48 48;" xml:space="preserve">
<style type="text/css">
	.st0{fill-rule:evenodd;clip-rule:evenodd;}
</style>
<path class="st0" d="M24,1c-12.7,0-23,10.5-23,23.5c0,10.4,6.6,19.2,15.7,22.3c1.1,0.2,1.6-0.5,1.6-1.1c0-0.6,0-2.4,0-4.4
	c-6.4,1.4-7.7-2.8-7.7-2.8c-1-2.7-2.5-3.4-2.5-3.4c-2.1-1.5,0.2-1.4,0.2-1.4c2.3,0.2,3.5,2.4,3.5,2.4c2,3.6,5.4,2.6,6.7,2
	c0.2-1.5,0.8-2.6,1.5-3.1c-5.1-0.6-10.5-2.6-10.5-11.6c0-2.6,0.9-4.7,2.4-6.3c-0.2-0.6-1-3,0.2-6.2c0,0,1.9-0.6,6.3,2.4
	c1.8-0.5,3.8-0.8,5.7-0.8c2,0,3.9,0.3,5.8,0.8c4.4-3,6.3-2.4,6.3-2.4c1.2,3.2,0.5,5.6,0.2,6.2c1.5,1.6,2.4,3.7,2.4,6.3
	c0,9-5.4,11-10.5,11.6c0.8,0.7,1.6,2.2,1.6,4.4c0,3.1,0,5.7,0,6.5c0,0.6,0.4,1.4,1.6,1.1C40.4,43.7,47,34.9,47,24.5
	C47,11.5,36.7,1,24,1z"/>
<path class="st0" d="M9.2,35.2c-0.1,0.1-0.2,0.2-0.4,0.1c-0.2-0.1-0.3-0.2-0.2-0.4c0.1-0.1,0.2-0.2,0.4-0.1
	C9.1,34.9,9.2,35,9.2,35.2z"/>
<path class="st0" d="M10.1,36.3c-0.1,0.1-0.3,0.1-0.5-0.1c-0.2-0.2-0.2-0.4-0.1-0.5c0.1-0.1,0.3-0.1,0.5,0.1
	C10.2,35.9,10.3,36.2,10.1,36.3z"/>
<path class="st0" d="M11.1,37.7c-0.1,0.1-0.4,0-0.5-0.2c-0.1-0.2-0.1-0.5,0-0.6c0.1-0.1,0.4,0,0.5,0.2
	C11.2,37.3,11.2,37.6,11.1,37.7z"/>
<path class="st0" d="M12.4,39c-0.1,0.1-0.4,0.1-0.6-0.1c-0.2-0.2-0.3-0.5-0.1-0.6c0.1-0.1,0.4-0.1,0.6,0.1
	C12.4,38.6,12.5,38.9,12.4,39z"/>
<path class="st0" d="M14.2,39.8c-0.1,0.2-0.3,0.3-0.6,0.2c-0.3-0.1-0.4-0.3-0.4-0.5c0.1-0.2,0.3-0.3,0.6-0.2
	C14,39.4,14.2,39.6,14.2,39.8z"/>
<path class="st0" d="M16.1,40c0,0.2-0.2,0.4-0.5,0.4c-0.3,0-0.5-0.2-0.5-0.4c0-0.2,0.2-0.4,0.5-0.4C15.9,39.6,16.1,39.8,16.1,40z"/>
<path class="st0" d="M17.9,39.6c0,0.2-0.2,0.4-0.4,0.5c-0.3,0.1-0.5-0.1-0.6-0.3c0-0.2,0.2-0.4,0.4-0.5
	C17.7,39.3,17.9,39.4,17.9,39.6z"/>
</svg>
