<?xml version="1.0" encoding="utf-8"?>
<!-- Generator: Adobe Illustrator 27.0.0, SVG Export Plug-In . SVG Version: 6.00 Build 0)  -->
<svg version="1.1" id="Layer_1" xmlns="http://www.w3.org/2000/svg" xmlns:xlink="http://www.w3.org/1999/xlink" x="0px" y="0px"
	 viewBox="0 0 3710 3710" style="enable-background:new 0 0 3710 3710;" xml:space="preserve">
<style type="text/css">
	.st0{display:none;}
	.st1{display:inline;}
	.st2{fill:#FFFFFF;}
	.st3{display:none;fill:#F4F7FA;}
	.st4{fill:#97A6B7;}
	.st5{fill:#D8DEE8;}
	.st6{fill:url(#SVGID_1_);}
	.st7{fill:#603700;}
	.st8{fill:#C67500;}
	.st9{fill:#7F7D7A;}
	.st10{fill:#CA6702;}
	.st11{opacity:0.68;}
	.st12{opacity:0.68;fill:#FFFFFF;enable-background:new    ;}
	.st13{fill:url(#SVGID_00000114044707633720208300000012526512818408443573_);}
	.st14{fill:url(#SVGID_00000014616841699177764330000011534928398696290475_);}
	.st15{fill:url(#SVGID_00000003815661683814236790000004311340266678225819_);}
	.st16{fill:url(#SVGID_00000106113852772163451760000001601344988925518238_);}
	.st17{fill:url(#SVGID_00000010289401310946931420000001772122745711254199_);}
	.st18{fill:url(#SVGID_00000048460076750627426660000006763962369494332546_);}
	.st19{opacity:0.3;}
	.st20{fill:url(#SVGID_00000088829688158804666260000011097384858079212428_);}
	.st21{fill:url(#SVGID_00000087410096337494369740000012848046233590491017_);}
	.st22{opacity:0.3;fill:#F2A83D;enable-background:new    ;}
	.st23{opacity:0.3;fill:#84500B;enable-background:new    ;}
	.st24{fill:url(#SVGID_00000123422000628500696570000008451524363591700631_);}
	.st25{fill:#5E3800;}
	.st26{fill:url(#SVGID_00000112617656698500594670000009099475687856442523_);}
	.st27{fill:#EE9B00;}
	.st28{fill:#F2A83D;}
	.st29{fill:url(#SVGID_00000070836109415473325230000015665356927845624450_);}
	.st30{opacity:0.5;clip-path:url(#SVGID_00000002383980687020531170000014458954566278057133_);}
	.st31{fill:url(#SVGID_00000097498180735583983910000000997498318510554522_);}
	.st32{opacity:0.5;clip-path:url(#SVGID_00000087377312208565489280000005917530613216620470_);}
	.st33{fill:url(#SVGID_00000170242539720882237340000015539638875268649863_);}
	.st34{fill:url(#SVGID_00000086650852627651025450000000019086227032203195_);}
	.st35{opacity:0.48;}
</style>
<g id="Background" class="st0">
	<g class="st1">
		<g>
			<rect y="0" class="st2" width="3710" height="3710"/>
		</g>
	</g>
</g>
<g id="Illustration">
	<g>
		<path class="st3" d="M1919.4,455.6c-735.8-21.4-1373.2,505.1-1469.5,1196c-105.3,755.4,474.2,1435,1187.2,1543.9
			c886.9,135.4,1747.1-647.9,1669.9-1497.7C3248.9,1057.6,2667.4,477.4,1919.4,455.6z"/>
		<g>
			<g>
				<g>
					<g>
						<path class="st4" d="M2178.8,1228.4l-81.5,0.1c-5.6-53.8-18.6-105.5-37.8-154l68.9-40c18.8-10.9,25.3-35.5,14.4-55.1l-29-52.1
							c-10.9-19.6-35.2-26.9-54.2-16.1l-68,38.6c-31.7-44.4-69.5-84.4-112.3-118.8l39.1-67.2c11.2-19.3,4.6-44.7-14.9-56.8
							l-52.1-32.3c-19.7-12.2-45-6.4-56.4,13l-39.2,66.5c-50.4-23.5-104.9-40.4-162.3-49.5v-78.9c0-23.3-19.1-43-42.8-44.1
							l-63.4-2.9c-24-1.1-43.5,17.1-43.5,40.6v79.8c-59.2,4.9-116.3,18.2-170,38.8l-42.3-72.1c-12.4-21.2-40.1-29.4-61.8-18.3
							l-58,29.7c-21.9,11.2-29.5,37.7-16.8,59.1l43.9,73.8c-48,33.9-90.9,74.6-127.3,120.6l-79.3-44.9
							c-22.5-12.7-51.4-6.1-64.4,14.8l-34.9,55.9c-13.2,21.1-5.3,48.4,17.4,61l82.1,45.4c-22.8,52.4-38.1,108.6-44.8,167.4
							l-98.5,0.2c-26.5,0-48.1,20.1-48.1,44.9v65.8c0,24.7,21.6,44.5,48.1,44.2l101.1-1.3c8.5,57.4,25.4,112,49.3,162.7l-89.2,50.6
							c-22.8,12.9-30.6,40.4-17.4,61.3l34.9,55.4c13.1,20.8,41.9,26.9,64.4,13.9l90.2-52.3c36.1,42.7,78,80.1,124.5,111.3l-52,88.3
							c-12.7,21.5-5.2,47.9,16.8,58.8l58,28.9c21.7,10.8,49.3,2.2,61.8-19.2l51.6-88.6c51,18,104.9,29.4,160.7,33.3v98.8
							c0,23.5,19.5,41.4,43.5,40l63.4-3.8c23.7-1.4,42.8-21.4,42.8-44.7v-97.7c54.2-9.3,105.7-25.5,153.7-47.5l47.9,80.5
							c11.4,19.2,36.7,24.7,56.4,12.2l52.1-33.1c19.5-12.4,26.1-37.8,14.9-57l-46.5-79.2c41.6-32.9,78.6-71,110.1-113.1l77.5,42.9
							c19,10.5,43.3,3,54.2-16.8l29-52.5c10.9-19.7,4.4-44.2-14.4-54.9l-75-42.4c20.3-47.6,34.5-98.3,41.7-151.1l83.7-1
							c21.6-0.3,39-18.5,39-40.7v-59.1C2217.8,1246.3,2200.3,1228.3,2178.8,1228.4z M1519,1714.6
							c-241.1,8.9-442.9-178.2-442.9-418.3c0-240.1,201.8-429.8,442.9-423.9c232.9,5.7,416,192.9,416,418.5
							C1935.1,1516.4,1752,1706,1519,1714.6z"/>
						<polygon class="st4" points="1249.2,644.6 1191.2,642.6 1171.2,694.7 						"/>
						<polygon class="st4" points="1824.7,668.7 1891.7,669.3 1891.7,718.7 						"/>
						<polygon class="st4" points="2079.8,906.8 2146.5,909.5 2129.8,946.9 						"/>
						<polygon class="st4" points="2184.5,1229.1 2251.9,1234.4 2229.9,1267.1 						"/>
						<polygon class="st4" points="2072.5,1691.4 2137.8,1700.7 2145.9,1647.4 						"/>
						<polygon class="st4" points="1822.3,1932.2 1881,1942.9 1885.7,1899.5 						"/>
						<polygon class="st4" points="1528.8,2036.3 1476,2027 1521.4,1959.6 						"/>
						<polygon class="st4" points="1243.2,1979.6 1181.8,1966.9 1229.2,1909.5 						"/>
						<polygon class="st4" points="898.3,880.1 962.4,882.1 937,928.8 						"/>
						<polygon class="st4" points="770.9,1382.5 829.6,1391.2 824.9,1343.1 						"/>
						<polygon class="st4" points="897,1734.1 954.3,1743.4 959,1705.4 						"/>
					</g>
					<path class="st5" d="M2244.6,1233.7l-82.2,0.1c-5.7-54.3-18.7-106.4-38.1-155.3l69.5-40.3c19-11,25.5-35.8,14.5-55.5
						l-29.2-52.5c-11-19.8-35.5-27.1-54.6-16.2l-68.6,38.9c-31.9-44.7-70-85.1-113.2-119.8l39.5-67.8c11.3-19.4,4.6-45-15-57.2
						l-52.5-32.6c-19.9-12.3-45.3-6.5-56.9,13.1l-39.6,67.1c-50.8-23.7-105.7-40.7-163.7-49.9v-79.6c0-23.5-19.3-43.4-43.2-44.5
						l-63.9-2.9c-24.2-1.1-43.9,17.2-43.9,41v80.4c-59.7,5-117.3,18.4-171.4,39.2l-42.7-72.7c-12.5-21.4-40.4-29.7-62.3-18.4
						l-58.5,30c-22.1,11.3-29.7,38-16.9,59.5l44.2,74.4c-48.4,34.2-91.7,75.2-128.3,121.6l-80-45.3c-22.7-12.8-51.8-6.2-65,14.9
						l-35.2,56.3c-13.3,21.2-5.4,48.8,17.5,61.5l82.8,45.8c-23,52.9-38.5,109.5-45.2,168.7l-99.3,0.2c-26.7,0-48.5,20.3-48.5,45.2
						v66.3c0,24.9,21.7,44.9,48.5,44.5l101.9-1.3c8.6,57.9,25.6,112.9,49.8,164.1l-90,51.1c-22.9,13-30.8,40.7-17.5,61.8l35.2,55.8
						c13.2,20.9,42.3,27.2,65,14l91-52.8c36.4,43,78.6,80.8,125.6,112.2l-52.5,89c-12.8,21.7-5.2,48.3,16.9,59.3l58.5,29.2
						c21.9,10.9,49.7,2.2,62.3-19.3l52-89.4c51.4,18.1,105.7,29.6,162,33.6v99.6c0,23.7,19.7,41.8,43.9,40.3l63.9-3.8
						c23.9-1.4,43.2-21.6,43.2-45.1v-98.5c54.6-9.3,106.6-25.7,154.9-47.9l48.3,81.2c11.5,19.4,37,24.9,56.9,12.3l52.5-33.3
						c19.6-12.5,26.4-38.2,15-57.4l-46.9-79.8c41.9-33.2,79.3-71.6,111.1-114.1l78.2,43.2c19.2,10.6,43.6,3,54.6-17l29.2-52.9
						c10.9-19.8,4.5-44.6-14.5-55.3l-75.6-42.8c20.5-48,34.8-99.1,42-152.4l84.4-1.1c21.8-0.3,39.3-18.6,39.3-41v-59.6
						C2283.9,1251.7,2266.4,1233.6,2244.6,1233.7z M1579.4,1723.9c-243.1,9-446.6-179.6-446.6-421.7s203.5-433.3,446.6-427.4
						c234.9,5.7,419.5,194.5,419.5,421.9C1998.9,1524,1814.3,1715.2,1579.4,1723.9z"/>
				</g>
			</g>
			<g>
				<g>
					<g>
						<path class="st4" d="M3009.9,1234.2l-43.8-8.2c2.4-29.5,0.7-58.6-4.8-86.7l41.1-14.5c11.2-4,17.2-16.6,13.3-28.2l-10.3-30.9
							c-3.9-11.7-16.2-18-27.5-14.1l-40.5,13.9c-12.6-27.1-28.8-52.4-48.4-75.2l27.8-32.2c8-9.2,7-23.6-2.3-32l-24.8-22.6
							c-9.4-8.6-23.5-8-31.6,1.3l-27.8,31.8c-24.7-17.7-52.3-32.3-82.3-43l8-42.4c2.4-12.5-6-25.1-18.6-28l-33.8-8
							c-12.8-3-25.1,4.8-27.5,17.5l-8.1,42.9c-32.3-3.3-64.4-1.9-95.3,3.7l-15.5-43.1c-4.6-12.7-18.6-19.9-31.4-16.1l-34.2,10.1
							c-12.9,3.8-19.7,17.3-15,30.1l16.1,44.1c-29.2,13.4-56.4,30.9-80.6,52l-38.1-32.2c-10.8-9.1-27-8.5-36.1,1.5l-24.4,26.5
							c-9.2,10-7.8,25.5,3.2,34.6l39.6,32.7c-17.5,25.9-31.5,54.6-41,85.5l-53-9.9c-14.3-2.7-27.9,6-30.4,19.3l-6.6,35.4
							c-2.5,13.3,7.1,26.1,21.4,28.6l54.5,9.5c-1.2,31.7,2.3,62.8,10.1,92.5l-53.1,18.2c-13.5,4.6-20.5,18.6-15.5,31.2l13.2,33.3
							c4.9,12.5,19.8,18.7,33.2,14l53.8-19c15.1,26.6,33.9,51,55.7,72.4l-36.9,42.2c-9,10.3-7.6,25.2,3.1,33.3l28.3,21.4
							c10.6,8,26.3,6.2,35.1-4.1l36.7-42.5c25.6,14.8,53.4,26.4,83.1,34.1l-10,53.1c-2.4,12.7,6.3,24.3,19.4,25.9l34.5,4.4
							c12.9,1.6,25.2-7.2,27.6-19.7l9.9-52.6c30.1,0.5,59.4-3,87.4-10l17.6,48.1c4.2,11.5,17.2,17,29.1,12.2l31.4-12.5
							c11.7-4.7,17.9-17.7,13.8-29.1l-17-47.3c25.7-13.5,49.5-30.2,70.7-49.7l37.4,30.9c9.2,7.6,23,6,30.8-3.6l20.9-25.3
							c7.8-9.5,6.8-23.3-2.2-31l-36-30.4c15.7-23.6,28.5-49.4,37.7-77.1l45.1,7.9c11.6,2,22.8-6,25.1-18l6-31.8
							C3029,1247.8,3021.5,1236.3,3009.9,1234.2z M2605.9,1429.1c-130.6-19.5-220.2-140.6-196-269.7s151.9-210.8,281-183.3
							c124.7,26.6,204.3,145.8,181.5,267.1C2849.7,1364.5,2732.1,1448,2605.9,1429.1z"/>
						<polygon class="st4" points="2568.9,826.4 2537.9,819.5 2521.8,845.4 						"/>
						<polygon class="st4" points="2876,897.4 2911.9,904.6 2906.9,931.1 						"/>
						<polygon class="st4" points="2989.1,1051.3 3024.7,1059.4 3012,1077.9 						"/>
						<polygon class="st4" points="3012.9,1235.1 3048.6,1244.8 3033.4,1260.2 						"/>
						<polygon class="st4" points="2905.9,1472.5 2940.1,1484.1 2949.8,1456.2 						"/>
						<polygon class="st4" points="2747.1,1576.7 2777.6,1588.4 2784.5,1565.5 						"/>
						<polygon class="st4" points="2578.7,1603.1 2551.3,1592.7 2582.5,1561.1 						"/>
						<polygon class="st4" points="2430.9,1543.7 2399.1,1530.7 2430.4,1504.6 						"/>
						<polygon class="st4" points="2356.4,917.6 2390.6,925.2 2372.3,947.7 						"/>
						<polygon class="st4" points="2237.1,1174.9 2267.8,1185.5 2270.2,1159.2 						"/>
						<polygon class="st4" points="2269.4,1376.7 2299.4,1387.6 2305.7,1367.6 						"/>
					</g>
					<path class="st5" d="M3044.7,1243.7l-44.2-8.2c2.4-29.8,0.7-59.1-4.8-87.4l41.4-14.7c11.3-4,17.3-16.7,13.4-28.4l-10.4-31.2
						c-3.9-11.8-16.3-18.1-27.8-14.2l-40.8,14c-12.7-27.3-29.1-52.8-48.8-75.8l28.1-32.5c8.1-9.3,7-23.8-2.3-32.3l-25-22.8
						c-9.4-8.6-23.7-8.1-31.9,1.3l-28,32.1c-24.9-17.9-52.8-32.6-83-43.4l8-42.8c2.4-12.6-6-25.3-18.7-28.3l-34.1-8
						c-12.9-3-25.3,4.8-27.7,17.6L2700,882c-32.6-3.4-64.9-1.9-96.1,3.8l-15.6-43.4c-4.6-12.8-18.7-20-31.6-16.2l-34.5,10.2
						c-13,3.9-19.8,17.5-15.1,30.3l16.3,44.5c-29.5,13.5-56.9,31.2-81.3,52.5l-38.5-32.4c-10.9-9.2-27.2-8.6-36.4,1.5l-24.6,26.7
						c-9.3,10.1-7.8,25.7,3.2,34.9l39.9,33c-17.7,26.1-31.7,55-41.3,86.2l-53.4-9.9c-14.4-2.7-28.1,6-30.6,19.4l-6.7,35.7
						c-2.5,13.4,7.2,26.3,21.6,28.8l54.9,9.6c-1.2,32,2.4,63.3,10.2,93.3l-53.5,18.4c-13.7,4.7-20.7,18.8-15.7,31.4l13.3,33.6
						c5,12.6,20,18.9,33.5,14.1l54.3-19.2c15.2,26.8,34.1,51.4,56.2,73l-37.2,42.6c-9.1,10.4-7.7,25.4,3.1,33.6l28.5,21.6
						c10.7,8.1,26.5,6.2,35.4-4.1l37-42.8c25.8,14.9,53.9,26.6,83.7,34.4l-10.1,53.6c-2.4,12.8,6.4,24.5,19.5,26.1l34.8,4.4
						c13,1.6,25.4-7.3,27.8-19.9l9.9-53c30.3,0.5,59.9-3,88.2-10.1l17.8,48.5c4.2,11.6,17.4,17.1,29.3,12.3l31.6-12.6
						c11.8-4.7,18-17.9,13.9-29.4l-17.1-47.7c25.9-13.6,49.9-30.5,71.2-50.1l37.7,31.1c9.2,7.6,23.2,6,31.1-3.6l21-25.5
						c7.9-9.6,6.9-23.5-2.2-31.2l-36.3-30.6c15.9-23.8,28.7-49.8,38-77.7l45.5,8c11.7,2.1,23-6.1,25.3-18.1l6-32
						C3064.1,1257.4,3056.4,1245.9,3044.7,1243.7z M2637.5,1440.2c-131.7-19.7-222-141.7-197.6-271.9
						c24.4-130.2,153.2-212.5,283.3-184.8c125.7,26.8,206,147,183,269.2C2883.3,1375,2764.7,1459.2,2637.5,1440.2z"/>
				</g>
			</g>
		</g>
		<g>
			
				<linearGradient id="SVGID_1_" gradientUnits="userSpaceOnUse" x1="875.7811" y1="1758.1671" x2="1293.8564" y2="1801.8467" gradientTransform="matrix(1 0 0 -1 0 3709.2756)">
				<stop  offset="3.600000e-03" style="stop-color:#26264F"/>
				<stop  offset="1" style="stop-color:#444B8C"/>
			</linearGradient>
			<path class="st6" d="M703.5,2820.3c-49.9,2.9-90.8-32-90.8-77.8V1090.1c0-45.8,40.8-81.7,90.8-79.8l2357.5,85.5
				c38.2,1.4,69.1,34.9,69.1,74.8v1435.7c0,39.8-30.9,74.1-69.1,76.3L703.5,2820.3z"/>
			<path class="st7" d="M2240.5,3003.2c-37.7-13.1-65.8-46.7-73.8-87.9l-54.8-284.8l-469.2,17.5l-57.7,296.7
				c-8.1,41.6,24.3,83.2,61.6,98.5l196.3,80.6c36.5,15,75.8,21,114.8,17.5l414.8-37.2c12.1-1.1,21.9-11.1,23.3-23.9
				c1.4-12.8,9.9-27.2-1.7-31.3L2240.5,3003.2z"/>
			<path class="st8" d="M2245.2,2985.9c-37.6-12.9-65.8-46.1-73.7-86.8l-54.8-281.2l-457.7,17.3l-57.7,293
				c-8.1,41,13.3,82.2,50.5,97.3l196.1,79.6c36.5,14.8,75.7,20.7,114.6,17.2l414.4-36.8c12.1-1.1,21.8-10.9,23.2-23.6
				s-5.9-24.6-17.4-28.6L2245.2,2985.9z"/>
			<g>
				<g>
					<path class="st7" d="M722.2,2820.3c-49.9,2.9-90.8-32-90.8-77.8V1090.1c0-45.8,40.8-81.7,90.8-79.8l2357.5,85.5
						c38.2,1.4,69.1,34.9,69.1,74.8v1435.7c0,39.8-30.9,74.1-69.1,76.3L722.2,2820.3z"/>
					<path class="st8" d="M3079.7,1129.6l-2357.5-80.8c-26.7-0.9-48.4,18.2-48.4,42.7V2377v363.1c0,24.5,21.7,43.1,48.4,41.6
						l2357.5-133c20.5-1.2,37-19.4,37-40.8v-328.1V1169.5C3116.7,1148.2,3100.2,1130.3,3079.7,1129.6z"/>
					<path class="st2" d="M722.2,2641.3c-10.4,0.5-18.9-6.8-18.9-16.4V1092.4c0-9.5,8.5-17,18.9-16.7l2357.5,77.5
						c8,0.3,14.5,7.3,14.5,15.6v1341c0,8.3-6.5,15.4-14.5,15.8L722.2,2641.3z"/>
				</g>
				<g>
					<polygon class="st9" points="2999.4,2443 825.6,2538.5 825.6,1304.8 2999.4,1350.4 					"/>
					<polygon class="st10" points="2999.4,1313.1 825.6,1262.6 825.6,1157.3 2999.4,1219.8 					"/>
					<g>
						<path class="st2" d="M2834.3,1262.1c0,6.7-5.2,11.9-11.7,11.8c-6.5-0.2-11.7-5.7-11.7-12.4s5.3-11.9,11.7-11.8
							C2829.1,1249.9,2834.3,1255.5,2834.3,1262.1z"/>
						<path class="st2" d="M2882.4,1263.4c0,6.6-5.2,11.9-11.7,11.7c-6.4-0.2-11.7-5.7-11.7-12.3c0-6.7,5.2-11.9,11.7-11.7
							C2877.2,1251.2,2882.4,1256.7,2882.4,1263.4z"/>
						<path class="st2" d="M2930.3,1264.6c0,6.6-5.2,11.9-11.6,11.7c-6.4-0.2-11.6-5.7-11.6-12.3c0-6.6,5.2-11.9,11.6-11.7
							C2925.1,1252.5,2930.3,1258,2930.3,1264.6z"/>
					</g>
					<g class="st11">
						<polygon class="st2" points="2559.4,2246.1 873,2299.1 873,1336.8 2559.4,1369.5 						"/>
					</g>
					<g>
						<g>
							<polygon class="st12" points="2976.2,1624.3 2588.9,1622.5 2588.9,1370 2976.2,1377.5 							"/>
						</g>
						<polygon class="st2" points="2976.2,1669.5 2588.9,1668.7 2588.9,1649.8 2976.2,1651 						"/>
						<polygon class="st2" points="2832.1,1701.4 2588.9,1701.4 2588.9,1682.5 2832.1,1682.8 						"/>
					</g>
					<g>
						<g>
							<polygon class="st12" points="2976.2,1986.3 2588.9,1992.8 2588.9,1740.4 2976.2,1739.6 							"/>
						</g>
						<polygon class="st2" points="2976.2,2031.6 2588.9,2039.1 2588.9,2020.2 2976.2,2013.1 						"/>
						<polygon class="st2" points="2832.1,2066.5 2588.9,2071.7 2588.9,2052.8 2832.1,2047.9 						"/>
					</g>
					<g>
						<g>
							<polygon class="st12" points="2976.2,2348.4 2588.9,2363.2 2588.9,2110.7 2976.2,2101.6 							"/>
						</g>
						<polygon class="st2" points="2976.2,2393.6 2588.9,2409.4 2588.9,2390.5 2976.2,2375.1 						"/>
						<polygon class="st2" points="2832.1,2431.7 2588.9,2442.1 2588.9,2423.2 2832.1,2413 						"/>
					</g>
					<g>
						<polygon class="st2" points="2040.1,2364.2 873,2407.5 873,2344.2 2040.1,2304.8 						"/>
						<polygon class="st2" points="2559.4,2344.9 2392.9,2351.1 2392.9,2292.9 2559.4,2287.2 						"/>
						<polygon class="st2" points="2367.2,2352 2197,2358.3 2197,2299.5 2367.2,2293.7 						"/>
						<polygon class="st2" points="1406.9,2461.9 873,2483.9 873,2452.3 1406.9,2431.2 						"/>
					</g>
				</g>
			</g>
		</g>
		<g>
			
				<linearGradient id="SVGID_00000093138015232546224590000004611565752452132276_" gradientUnits="userSpaceOnUse" x1="3997.0183" y1="2007.649" x2="3692.1924" y2="546.1598" gradientTransform="matrix(-1 0 0 -1 6624.1411 3709.2756)">
				<stop  offset="0" style="stop-color:#FFC444"/>
				<stop  offset="0.9964" style="stop-color:#F36F56"/>
			</linearGradient>
			<path style="fill:url(#SVGID_00000093138015232546224590000004611565752452132276_);" d="M2559.1,2120.6
				c-26.5-28.3,46.9-134.7,86.2-181.3c34.3-40.7,69.6-82.6,112.9-77.3c38,4.7,75.1,44.8,77.3,83.2
				C2841.5,2048.7,2596.8,2160.9,2559.1,2120.6z"/>
			
				<linearGradient id="SVGID_00000155831299162752049140000004443349766033384366_" gradientUnits="userSpaceOnUse" x1="1292.0636" y1="440.8631" x2="1383.3538" y2="440.8631" gradientTransform="matrix(0.9996 2.890000e-02 2.890000e-02 -0.9996 1488.8385 3635.7329)">
				<stop  offset="0" style="stop-color:#444B8C"/>
				<stop  offset="0.9964" style="stop-color:#26264F"/>
			</linearGradient>
			<path style="fill:url(#SVGID_00000155831299162752049140000004443349766033384366_);" d="M2877.5,3213.7c5,4.1,5.9,14.2,6.5,20.8
				c0.3,3,0.4,4.4,0.1,5.5c-2.4,7.6-17.2,8.4-40.4,10.8c-36.6,3.7-47.5,6.6-50.4,1.2c-2.7-5.1,3.8-13.5,4.5-14.4
				c3.9-5,8.8-6.8,18.1-9.8c17.3-5.7,29-8.8,32.5-9.7C2870.5,3212.1,2874.2,3211,2877.5,3213.7z"/>
			<path class="st5" d="M2855.7,3180.2l-3.7,41.8c1,2,13.5,8.1,23.3,2.9l9.4-41L2855.7,3180.2z"/>
			
				<linearGradient id="SVGID_00000008847615173888286920000001192103339122305208_" gradientUnits="userSpaceOnUse" x1="1470.8102" y1="130.4778" x2="1567.7997" y2="130.4778" gradientTransform="matrix(0.9642 0.2651 0.2651 -0.9642 1044.0598 2943.1519)">
				<stop  offset="0" style="stop-color:#444B8C"/>
				<stop  offset="0.9964" style="stop-color:#26264F"/>
			</linearGradient>
			<path style="fill:url(#SVGID_00000008847615173888286920000001192103339122305208_);" d="M2586.9,3208.3c6,6.6,7.3,18.8,2.1,24.8
				c-5.1,5.9-12.8,1.5-34.6,2.1c-23.4,0.7-29.5,6.2-45.3,1.8c-6.4-1.8-17.7-6.1-17.5-10.7c0.2-3.2,5.9-4.9,25.2-11.3
				c27.3-9.2,27.2-9.7,33-10.6C2564.4,3202,2579,3199.6,2586.9,3208.3z"/>
			<path class="st5" d="M2572,3170.2l-11.7,39c0.9,2.1,12.8,9.1,23,4.6l17.4-37.8L2572,3170.2z"/>
			
				<linearGradient id="SVGID_00000034790506775369719590000014050834928545023377_" gradientUnits="userSpaceOnUse" x1="4095.479" y1="659.8861" x2="3836.7891" y2="1243.0355" gradientTransform="matrix(-1 0 0 -1 6624.1411 3709.2756)">
				<stop  offset="0" style="stop-color:#AA80F9"/>
				<stop  offset="0.9964" style="stop-color:#6165D7"/>
			</linearGradient>
			<path style="fill:url(#SVGID_00000034790506775369719590000014050834928545023377_);" d="M2676.1,2316.6
				c-1.7,131-10.6,278.3-32.1,438.3c-21.2,158.1-50.9,301-83.3,426.7c14.9,4,29.9,8,44.8,12.1c37.9-35.4,85.8-91,108.9-169.7
				c14.3-48.8,9.6-73.9,18.6-134c14.5-95.6,43.8-145.7,74.1-222.8c27.2-69.3,59.4-171,76.7-306.9
				C2814.6,2345.7,2745.3,2331.1,2676.1,2316.6z"/>
			
				<linearGradient id="SVGID_00000029030298139979393520000016296728356225160345_" gradientUnits="userSpaceOnUse" x1="3693.9448" y1="450.7787" x2="3435.2595" y2="1033.9176" gradientTransform="matrix(-0.9925 -0.1225 0.1225 -0.9925 6266.7271 3976.9226)">
				<stop  offset="0" style="stop-color:#AA80F9"/>
				<stop  offset="0.9964" style="stop-color:#6165D7"/>
			</linearGradient>
			<path style="fill:url(#SVGID_00000029030298139979393520000016296728356225160345_);" d="M2811,2304.1
				c9.1,166.6,16.7,336.3,22.4,509c4.3,129.6,7.4,257.6,9.5,383.8c15.3,1.9,30.5,3.8,45.8,5.7c14.8-27.5,34.4-69.5,47.8-123.3
				c16.3-65.4,12.5-104.2,19.7-172c8-76,19.7-92.6,40.3-188.4c41.9-194.6,62.9-291.9,16.1-352.4
				C2997.5,2346.8,2949.9,2297.5,2811,2304.1z"/>
			
				<linearGradient id="SVGID_00000008150029090770519860000009132591938510119819_" gradientUnits="userSpaceOnUse" x1="3891.4714" y1="2029.6635" x2="3586.646" y2="568.1771" gradientTransform="matrix(-1 0 0 -1 6624.1411 3709.2756)">
				<stop  offset="0" style="stop-color:#FFC444"/>
				<stop  offset="0.9964" style="stop-color:#F36F56"/>
			</linearGradient>
			<path style="fill:url(#SVGID_00000008150029090770519860000009132591938510119819_);" d="M3033.6,1885.4
				c-35.8-10.1-88.2-21.8-152.4-25.4c-91.6-5.2-137.3-7.8-169.8,14c-74.9,50.4-16.9,166.6-47.6,454.7c-4.4,41.1-5.4,82.6-8.5,123.8
				c-5.3,68.3-6.4,72-1.7,78.9c29.8,43.4,141-22.1,304,3.8c91.2,14.5,132.5,47.8,157.5,23.8c29.1-28.1,4.1-103.5-17.4-168.5
				c-24.7-74.6-39.9-75.5-54-131.7c-14.6-58.7-5.8-88.9-3.5-181.5C3041.4,2033,3041.1,1967.1,3033.6,1885.4z"/>
			<g class="st19">
				
					<linearGradient id="SVGID_00000085948348047959795290000014513012197845894808_" gradientUnits="userSpaceOnUse" x1="3629.323" y1="779.7474" x2="3745.011" y2="1329.264" gradientTransform="matrix(-1 0 0 -1 6624.1411 3709.2756)">
					<stop  offset="0" style="stop-color:#FFC444"/>
					<stop  offset="0.9964" style="stop-color:#F36F56"/>
				</linearGradient>
				<path style="fill:url(#SVGID_00000085948348047959795290000014513012197845894808_);" d="M2812,2426.3c42.6-3.3,70.2,20.7,107,2
					c50.4-25.7,66.6-105.8,63.4-162.5c-4.9-86.1-54-108.8-45.6-164.5c4.6-30.1,26.1-70.1,103.2-110.9c1,34.4,0.8,63.6,0.3,86.9
					c-2.3,92.6-11.1,122.8,3.5,181.5c14,56.2,29.3,57.1,54,131.7c21.5,65,46.5,140.4,17.4,168.5c-25,24.1-66.3-9.3-157.5-23.8
					c-140.4-22.3-242.3,23.2-286.9,8.4C2724.5,2454.6,2773.4,2429.3,2812,2426.3z"/>
			</g>
			
				<linearGradient id="SVGID_00000174601925905688295080000010043440119534687152_" gradientUnits="userSpaceOnUse" x1="3682.6548" y1="2073.2166" x2="3377.8296" y2="611.7294" gradientTransform="matrix(-1 0 0 -1 6624.1411 3709.2756)">
				<stop  offset="0" style="stop-color:#FFC444"/>
				<stop  offset="0.9964" style="stop-color:#F36F56"/>
			</linearGradient>
			<path style="fill:url(#SVGID_00000174601925905688295080000010043440119534687152_);" d="M2975.5,1891.3
				c30.4-25,91.6,3.3,107.9,10.9c91.2,42.2,173.1,155.8,152.8,276c-3,18-17.1,102.3-88.5,143.1c-64.4,36.8-151.3,27.4-221-24.8
				c-9.5-8.4-19-16.9-28.6-25.3c-9.4-10.1-18.7-20.2-28.1-30.4c14.7-12.2,39.7-29.9,74.9-41.2c46.3-14.9,80,11.9,101.5-8.5
				c14.8-14.1,14.9-38.9,11.2-54c-7.4-30.4-34.1-38.9-56.5-60.4C2948.7,2025.9,2939.1,1921.2,2975.5,1891.3z"/>
			<g>
				<polygon class="st8" points="2538.3,2283.4 2946.1,2277.3 2837.6,2329.7 2537.3,2310 				"/>
				<path class="st7" d="M2960.4,2288.2L2960.4,2288.2c0,7.6-4.8,14.4-11.9,17.1l-130.3,51.1l-0.6-35.4l128.4-43.6
					C2953.3,2275.3,2960.4,2280.7,2960.4,2288.2z"/>
			</g>
			<path class="st2" d="M2897.7,2264c2.5-0.6-12.2-29.8-23.7-26.5c-11.5,3.4-68,36.1-73.1,49.5c-5.1,13.5-5.1,13.5-5.1,13.5
				s24.6,1.9,39.9-3.2C2850.9,2292.3,2877.3,2268.6,2897.7,2264z"/>
			<g>
				<g>
					<path class="st7" d="M2806.8,2072.4l28.7,261.7c1,9-11.6,22.5-20.7,22.1l-421.6-25.9c-6.9-0.3-12.7-5.4-13.9-12.3l-52.9-252.8
						c-1.6-9.2,15-18.7,24.3-18.4l441.9,12.4C2799.9,2059.5,2806,2065.1,2806.8,2072.4z"/>
					<path class="st22" d="M2797.2,2080.1l28.7,261.7c1,9-6.3,16.8-15.4,16.4l-427-20.2c-6.9-0.3-12.7-5.4-13.9-12.3l-43.6-253.9
						c-1.6-9.2,5.7-17.5,15-17.3l441.9,12.4C2790.3,2067.1,2796.4,2072.7,2797.2,2080.1z"/>
				</g>
				<path class="st23" d="M2546.4,2276.6c37.3-15.8,24.1-45.9,68.1-83.5c58.1-49.5,117.3-28.1,138-66.4c6.5-12,9.5-30.6-1.7-60.7
					l32,0.9c7.4,0.2,13.5,5.8,14.3,13.2l28.7,261.7c1,9-6.3,16.8-15.4,16.4l-427-20.2c-6.9-0.3-12.7-5.4-13.9-12.3l-6-35
					c13-7.2,28.4-13.8,46.5-17.4C2472.8,2260.5,2503.5,2294.8,2546.4,2276.6z"/>
			</g>
			<path class="st5" d="M2356.6,2301.3c-0.7-2.1,0.8-4.3,3-4.4c9-0.5,30-0.6,41.5,6.4c15,9.2,34.4,26,18.1,34.4l-15.3,7.9
				c-0.7,0.4-1.5,0.5-2.2,0.3c-5.4-1.2-28.2-6.3-30.7-7.5C2368.7,2337.4,2360,2311.5,2356.6,2301.3z"/>
			<g>
				<path class="st2" d="M2874.4,1759.9c-0.2,27.1,2.8,48.7,5.7,63.4c3.3,16.9,5.6,21.3,8.7,24.8c4.5,5.3,11.4,9.8,50.3,19.4
					c21.2,5.2,23.9,5.1,24.4,7.2c2.3,10.2-55.4,45.2-115.1,36.7c-36.5-5.2-69.7-26-67.7-36.9c2.1-11,38.5-5.1,49.4-25
					c7.6-13.8-0.9-33.5-10.9-49.8C2828.8,1781.7,2864.7,1778.1,2874.4,1759.9z"/>
				<g>
					<path d="M2806.7,1770.7c-8.6-11.4-9.1-31.4,0.8-44c8.5-10.9,22-12.4,30-13.3c23.3-2.7,52.7,7,63,28.5
						c6.1,12.7-7.1,39.1-9.1,43.9c-2.3,5.4-6.5,7.2-10.4,11.3c-5.4,5.6-13.9,14.6-27.7,29.6c-1.1-4.4-2.7-9.9-5.3-15.8
						c-1-2.3-5-11.2-11.1-18.6C2824.7,1777.3,2814.8,1781.5,2806.7,1770.7z"/>
					<path class="st2" d="M2872.9,1813.9c0,0-15.3,25.1-45.8,23.2c-27.3-1.8-31.3-63-13.9-76c5.8-4.3,17.5-6.1,27-3.5
						c5.6,1.6,7.5,3.9,16.7,6.3c8.5,2.2,10.9,1.3,13.4,3.4c3.2,2.7,5.6,9.3,0.2,27.2c5.2-5.3,11.5-7.3,15.9-5.2
						c0.7,0.3,2.6,1.6,3.6,3.5C2893.8,1799.8,2887.4,1808.7,2872.9,1813.9z"/>
					
						<linearGradient id="SVGID_00000143595931921749571680000015362045039888737665_" gradientUnits="userSpaceOnUse" x1="1170.6084" y1="1965.0059" x2="1101.5023" y2="2140.5227" gradientTransform="matrix(1 3.700000e-03 3.700000e-03 -1 1709.153 3866.8857)">
						<stop  offset="0" style="stop-color:#311944"/>
						<stop  offset="1" style="stop-color:#6B3976"/>
					</linearGradient>
					<path style="fill:url(#SVGID_00000143595931921749571680000015362045039888737665_);" d="M2871.5,1763.6c-1.3,1,2.7,5.9,3,12.9
						c0.6,13.5-13.1,29.7-27,31.1c-8.2,0.8-10.5-4.2-24.1-5.6c-8.4-0.9-15.5,0.2-19.9,1.1c-4.3,14.8-0.3,29.6,9.6,36.4
						c10.7,7.4,24.3,2.9,30,1c3.8-1.3,16-5.2,22.4-16.4c6.6-11.7,0.1-18.7,7.7-26.6c3.8-4,8.9-5.7,13.8-13.4
						c1.3-2.1,2.2-3.9,2.8-5.2C2882.8,1771.5,2873.4,1762.1,2871.5,1763.6z"/>
					<path class="st2" d="M2813.4,1808.5c0,0,5.9,3.1,16.1,2.5c0.5,0,1,0.1,1.1,0.4c0.2,1-6.3,5.3-12.3,3.6c-4.3-1.2-7.6-5.3-7-6.3
						C2811.5,1808.3,2812.4,1808.4,2813.4,1808.5z"/>
				</g>
			</g>
		</g>
		<g>
			<g>
				<g>
					<path class="st25" d="M2924,1075.6l-4.2,441.8c-0.7,69.3-57.1,124.5-126.4,124.5h-937.4c-74.6,0-134.2-57.7-132.9-130l0.8-44.7
						l0.2-8.9l7.5-407.8c1.2-68.6,57.5-123.2,127.2-126.3c3.2-0.1,6.5-0.1,9.7-0.1l1.2,0.1l930.9,23.9
						C2869.6,949.8,2924.7,1006.9,2924,1075.6z"/>
					
						<linearGradient id="SVGID_00000106841254435716070830000009029055492069123770_" gradientUnits="userSpaceOnUse" x1="2532.8518" y1="3163.093" x2="1696.1477" y2="2056.9404" gradientTransform="matrix(1 0 0 -1 0 3709.2756)">
						<stop  offset="0" style="stop-color:#311944"/>
						<stop  offset="1" style="stop-color:#893976"/>
					</linearGradient>
					<path style="fill:url(#SVGID_00000106841254435716070830000009029055492069123770_);" d="M1946.1,1641.9h-465.5
						c-9.8,0-13.5-11.2-5.3-16.5l234.2-149.1l14.4-8.9l70.8-45.1l10.2-7.5L1946.1,1641.9z"/>
				</g>
			</g>
			<g>
				<g>
					<path class="st27" d="M2909.8,1075.6l-4.2,442.8c-0.7,68.7-56.1,123.5-124.6,124.4c-0.6,0-1.2-1-1.9-1h-937.4
						c-74.6,0-134.2-57.7-132.9-130l0.7-35.5l0.1-8.9l7.7-417c1.3-71.8,62.8-128.3,136.9-126.4l4.5,0.1l13.9,0.4l913.8,23.5
						C2855.3,949.8,2910.4,1006.9,2909.8,1075.6z"/>
					<path class="st28" d="M1931.8,1641.9h-465.5c-9.9,0-13.5-11.2-5.3-16.5l248.5-158.3l14.4-8.9l66.6-42.4l4,5.5L1931.8,1641.9z"
						/>
				</g>
			</g>
			<path class="st22" d="M2806.4,1636.3v-2H1495.1c-9.9,0-13.5-11.2-5.3-16.5l248.5-158.3l7.7-416.8
				c1.3-71.8,62.8-128.2,136.9-126.3l4.5,0.2c3.2-0.1,6.5-0.1,9.7-0.1l1.2,0.1c1,0.1,2,0.3,2.9,0.4
				c69.6,11.1,150.4,47.2,175.4,151.2c16.6,69.3,31.1,126.6,56.9,171.6c6.1,10.7,12.8,20.7,20.4,30c28.9,35.7,69.8,61.2,132.6,76.3
				c13.5,3.3,28.1,6,43.7,8.3c29.7,4.3,63.5,6.9,101.9,7.7c9,0.2,18.2,0.3,27.8,0.3c9.4,0,16.8,0.3,25.4,0.9
				C2681.7,1377,2693.7,1540.1,2806.4,1636.3z"/>
			<g>
				<path class="st2" d="M2196.1,1238.9v-45.1l-91,53.6l-67.7,40.1v26.5l158.6,82.3v-44.9l-111.3-52.6l39.5-21.3L2196.1,1238.9z"/>
				<path class="st2" d="M2322.5,1157.9l-64.5,195.8l-26.7,81l46.2,0.5l24.2-73.2l67.7-204.7L2322.5,1157.9z"/>
				<path class="st2" d="M2404.1,1191.6v45.9l118.2,60.4l-118.2,53.9v45.7l55-26.7l117.7-57.1v-27.8L2404.1,1191.6z"/>
			</g>
		</g>
		<g>
			<g>
				<g>
					<g>
						
							<linearGradient id="SVGID_00000146485427240414333020000001034760304245938329_" gradientUnits="userSpaceOnUse" x1="778.5341" y1="1160.2662" x2="1403.985" y2="1160.2662" gradientTransform="matrix(1 0 0 -1 0 3709.2756)">
							<stop  offset="0" style="stop-color:#FFC444"/>
							<stop  offset="0.9964" style="stop-color:#F36F56"/>
						</linearGradient>
						
							<path id="SVGID_00000050642689358048959060000017453132686224984507_" style="fill:url(#SVGID_00000146485427240414333020000001034760304245938329_);" d="
							M1404,3090.5c-48.5-51.2-111.5-133.4-135.6-245.8c-31.6-147.4,31.7-217.2,39.6-463.1c5-155.5,7-264.1-67.9-326.6
							c-58.6-49-157.4-64-220.2-25.5c-52.2,32-85.6,104.7-97.6,157.3c-9.8,42.9-5.9,74.6-32.2,96c-26.9,21.8-53.6,7-78.5,22.8
							c-50.4,32.1-29.3,149.7-25.9,168.8c38,211.4,221.7,363.5,302.6,428.8C1155.4,2957,1259.5,3029.9,1404,3090.5z"/>
					</g>
					<g>
						<defs>
							<path id="SVGID_00000025415509627625578360000004204071055559636132_" d="M1404,3090.5c-48.5-51.2-111.5-133.4-135.6-245.8
								c-31.6-147.4,31.7-217.2,39.6-463.1c5-155.5,7-264.1-67.9-326.6c-58.6-49-157.4-64-220.2-25.5
								c-52.2,32-85.6,104.7-97.6,157.3c-9.8,42.9-5.9,74.6-32.2,96c-26.9,21.8-53.6,7-78.5,22.8c-50.4,32.1-29.3,149.7-25.9,168.8
								c38,211.4,221.7,363.5,302.6,428.8C1155.4,2957,1259.5,3029.9,1404,3090.5z"/>
						</defs>
						<clipPath id="SVGID_00000093860024175703771150000016421808115057533318_">
							<use xlink:href="#SVGID_00000025415509627625578360000004204071055559636132_"  style="overflow:visible;"/>
						</clipPath>
						<g style="opacity:0.5;clip-path:url(#SVGID_00000093860024175703771150000016421808115057533318_);">
							<g>
								<path class="st2" d="M1460.2,3132.8l2-4.5c-153.1-68.8-342.7-189.5-376.3-373.4c-12.4-67.6-2.5-136.4,11.2-231.6
									c10.9-76,25.5-128.8,38.4-175.5c16.8-61,30.2-109.2,27.1-180.4c-3.1-72.3-22.5-145.1-57.8-216.5l-4.4,2.2
									c35,70.7,54.2,142.9,57.3,214.5c3,70.5-10.2,118.3-26.9,178.9c-12.9,46.8-27.6,99.8-38.6,176.1
									c-13.2,92-23.7,164.7-11.2,233.2c16,87.5,68.9,169.2,157.3,242.8C1298.1,3048.3,1372.7,3093.4,1460.2,3132.8z"/>
							</g>
							<g>
								<path class="st2" d="M1102.4,2469.9l2.6-1c0.5-0.2,52.8-19.7,106.7-69c49.8-45.5,111.4-126.4,121.9-253.6l-4.9-0.4
									c-10.4,125.5-71.2,205.4-120.3,250.3c-46.4,42.4-91.4,62.4-102.5,67c-33.6-140.6-102.6-231.6-154.7-283.3
									c-56.9-56.4-106.7-79.6-107.2-79.8l-2.1,4.5c0.5,0.2,49.7,23.1,106,79c52,51.6,120.9,142.6,153.9,283.5L1102.4,2469.9z"/>
							</g>
							<g>
								<path class="st2" d="M1079,2676l1.1-1.4c0.5-0.7,55.1-70.9,123.6-130.5c68.1-59.3,220.1-72.3,221.6-72.4l-0.4-4.9
									c-1.5,0.1-155.2,13.2-224.4,73.6c-63.4,55.3-115,119.5-123.2,129.8c-155.1-58.1-301.8-438-303.3-441.8l-4.6,1.8
									c0.4,1,37.7,98.1,93.9,200.9c75.7,138.4,147.7,220.6,214,244.4L1079,2676z"/>
							</g>
							<g>
								<path class="st2" d="M1215.6,2978.5l-2.2-4.4c-36.2-72.5-26-145.8,30.5-217.9c42.3-54,96-86.9,96.6-87.2l-2.6-4.2
									c-0.5,0.3-55,33.6-97.8,88.3c-55.8,71.2-67.2,146.7-33.2,218.8c-18-3.7-84.8-18.7-167.4-53.2
									c-89-37.1-215.3-105-310.9-217.8l-185.8-219l-3.8,3.2l185.8,219c96.3,113.5,223.3,181.9,312.9,219.2
									c97,40.4,172.4,54.2,173.1,54.4L1215.6,2978.5z"/>
							</g>
						</g>
					</g>
				</g>
			</g>
			<g>
				<g>
					<g>
						
							<linearGradient id="SVGID_00000058581217300301220380000001850347345764326587_" gradientUnits="userSpaceOnUse" x1="1023.6141" y1="1221.0658" x2="839.8375" y2="727.7698" gradientTransform="matrix(1 0 0 -1 0 3709.2756)">
							<stop  offset="0" style="stop-color:#AA80F9"/>
							<stop  offset="0.9964" style="stop-color:#6165D7"/>
						</linearGradient>
						
							<path id="SVGID_00000140718670233803451780000016802922552401768125_" style="fill:url(#SVGID_00000058581217300301220380000001850347345764326587_);" d="
							M1249.3,3131.6c-110.3,14.8-253,17.9-395.5-26c-36.4-11.2-261.1-80.3-248.3-180.3c4.5-35.2,34.7-44.5,41.5-91.5
							c8.1-55.7-29.1-78.2-61-142.3c-19-38.2-74.8-150.1-12.9-223.8c37-44,114.3-72.5,176.7-66c91.5,9.5,133.1,92.1,201,233.2
							c60.2,125.1,53.1,158.5,98,247.8C1082.2,2949,1140.5,3038.6,1249.3,3131.6z"/>
					</g>
					<g>
						<defs>
							<path id="SVGID_00000071518533513841339880000012597853873630770363_" d="M1249.3,3131.6c-110.3,14.8-253,17.9-395.5-26
								c-36.4-11.2-261.1-80.3-248.3-180.3c4.5-35.2,34.7-44.5,41.5-91.5c8.1-55.7-29.1-78.2-61-142.3
								c-19-38.2-74.8-150.1-12.9-223.8c37-44,114.3-72.5,176.7-66c91.5,9.5,133.1,92.1,201,233.2c60.2,125.1,53.1,158.5,98,247.8
								C1082.2,2949,1140.5,3038.6,1249.3,3131.6z"/>
						</defs>
						<clipPath id="SVGID_00000163770234609897597800000014889068617322123941_">
							<use xlink:href="#SVGID_00000071518533513841339880000012597853873630770363_"  style="overflow:visible;"/>
						</clipPath>
						<g style="opacity:0.5;clip-path:url(#SVGID_00000163770234609897597800000014889068617322123941_);">
							<g>
								<path class="st2" d="M1448.6,3161.9c92,0,185.2-19,278.1-56.9l-1.9-4.6c-116.8,47.5-234,65.2-348.5,52.5
									c-409.6-45.4-611.3-478.4-663.3-610c-29.5-74.7-36.6-160.6-21-255.5l-4.9-0.8c-15.8,95.7-8.6,182.6,21.3,258.1
									c42.8,108.3,120.9,265.1,249.4,396.6c123.7,126.6,264.3,199.4,417.9,216.4C1399.9,3160.6,1424.2,3161.9,1448.6,3161.9z"/>
							</g>
							<g>
								<path class="st2" d="M816.1,2756.1l1.2-1.9c0.3-0.4,26.4-43,43.9-105.1c16.2-57.4,28.3-143.9-6.3-229.5l-4.6,1.9
									c34.1,84.3,22.2,169.5,6.2,226.1c-15.3,54.2-37.1,93.2-42.3,102.1c-253.3-122.5-273.1-296.8-273.1-347.4
									c0-1.6,0-2.1-0.1-2.5l-4.9,0.6c0,0.3,0,0.9,0,1.9c0,51.5,20.1,229,277.9,352.8L816.1,2756.1z"/>
							</g>
							<g>
								<path class="st2" d="M805.5,2962.3c43.8,0,94.7-6.2,152.7-22.4l1.3-0.4l0.4-1.3c0.5-1.4,46.4-145,9.1-327.4l-37.6-183.9
									l-4.8,1l37.6,183.9c35.2,172.2-4.2,309.2-8.6,323.7c-139.9,38.8-237.3,18.8-294.5-4.9c-62.1-25.7-91.4-61.2-91.7-61.5
									l-3.8,3.1c1.2,1.5,30.2,36.6,93.3,62.9C693.2,2949.3,742,2962.3,805.5,2962.3z"/>
							</g>
						</g>
					</g>
				</g>
			</g>
		</g>
		<g>
			<g>
				<g>
					<g>
						
							<linearGradient id="SVGID_00000106109492266779473050000008746228862479148194_" gradientUnits="userSpaceOnUse" x1="1100.0714" y1="918.8225" x2="1677.4808" y2="918.8225" gradientTransform="matrix(0.9993 3.720000e-02 3.720000e-02 -0.9993 -226.4014 3622.511)">
							<stop  offset="0" style="stop-color:#444B8C"/>
							<stop  offset="0.9964" style="stop-color:#26264F"/>
						</linearGradient>
						<path style="fill:url(#SVGID_00000106109492266779473050000008746228862479148194_);" d="M1392.7,2304.5l76.4,857.7
							c1.2,13-7.9,24.5-20.1,25.7l-413.5,42.6c-24.7,1.3-37.8-12.1-38.9-25.6l-73.4-890.5c-1.1-13.1,11.2-25.5,35.6-26.4l409.7-6
							C1380.8,2281.6,1391.6,2291.8,1392.7,2304.5z"/>
						<path class="st7" d="M1411.5,2302.3l77.1,862.8c1.2,13.1-7.9,24.7-20.2,25.8l-429.1,39.6c-13.2,1.2-24.9-8.9-26-22.5
							l-74-895.9c-1.1-13.2,8.7-24.2,21.8-24.5l426.1-8.1C1399.5,2279.4,1410.4,2289.6,1411.5,2302.3z"/>
						<path class="st2" d="M1402,2349.9l71.3,799.7c1.1,12.2-7.4,23-18.9,24.1l-403.4,36.6c-12.2,1.1-23.1-8.3-24.2-21l-68.6-828.5
							c-1-12.3,8.1-22.7,20.3-22.9l400.8-9.2C1390.7,2328.5,1400.9,2338,1402,2349.9z"/>
						<g>
							<path class="st10" d="M1402,2349.9c-1.1-11.9-11.2-21.4-22.6-21.2l-400.8,9.2c-12.2,0.3-21.3,10.6-20.3,22.9l9.8,118.6
								l444.5-10.7L1402,2349.9z"/>
						</g>
					</g>
					
						<linearGradient id="SVGID_00000124136570085447508510000002358647936765892009_" gradientUnits="userSpaceOnUse" x1="1368.8274" y1="1397.1425" x2="878.6509" y2="69.5814" gradientTransform="matrix(0.9993 3.720000e-02 3.720000e-02 -0.9993 -226.4014 3622.511)">
						<stop  offset="0" style="stop-color:#FFC444"/>
						<stop  offset="0.9964" style="stop-color:#F36F56"/>
					</linearGradient>
					<path style="fill:url(#SVGID_00000124136570085447508510000002358647936765892009_);" d="M1188,2309.6c0.4,4.5-2.8,8.2-7.2,8.3
						c-4.4,0.1-8.2-3.5-8.6-8s2.8-8.2,7.2-8.3C1183.7,2301.6,1187.6,2305.1,1188,2309.6z"/>
				</g>
			</g>
			<g>
				<g>
					<polygon class="st27" points="1243.4,2797.1 1042.8,2807.1 1015.1,2523.6 1216.8,2518.4 					"/>
					<polygon class="st27" points="1392.2,2789.8 1274.3,2795.6 1247.9,2517.6 1366.4,2514.6 					"/>
					<polygon class="st27" points="1412.9,3011.6 1065.1,3035.5 1046.4,2843.9 1395.5,2825.6 					"/>
					<polygon class="st27" points="1423.8,3127.4 1076.8,3154.7 1068.4,3068.9 1416,3044 					"/>
				</g>
			</g>
			<g class="st35">
				<path class="st2" d="M1308.4,2894.6c-41.6-145.3-162.9-130.8-199.2-262.1c-29.8-107.9,38.9-164.7-2.8-255
					c-19.6-42.5-53.9-71.2-89.5-90.8l-55.8,1.1c-13.1,0.2-22.9,11.3-21.8,24.5l74,895.9c1.1,13.6,12.8,23.7,26,22.5l351.8-32.5
					c-22.5-28.5-43.8-63.5-58.7-105.4C1301.2,3003.9,1331.4,2975,1308.4,2894.6z"/>
			</g>
		</g>
	</g>
</g>
</svg>
