<?xml version="1.0" encoding="utf-8"?>
<!-- Generator: Adobe Illustrator 27.0.0, SVG Export Plug-In . SVG Version: 6.00 Build 0)  -->
<svg version="1.1" id="Layer_1" xmlns="http://www.w3.org/2000/svg" xmlns:xlink="http://www.w3.org/1999/xlink" x="0px" y="0px"
	 viewBox="0 0 48 48" style="enable-background:new 0 0 48 48;" xml:space="preserve">
<style type="text/css">
	.st0{fill-rule:evenodd;clip-rule:evenodd;fill:#8E8E8E;}
	.st1{fill:#8E8E8E;}
</style>
<path class="st0" d="M-2,24C-2,9.6,9.6-2,24-2S50,9.6,50,24S38.4,50,24,50S-2,38.4-2,24z M12.6,38.2l11.3,3.1l11.3-3.1l2.5-28.1
	H10.1L12.6,38.2z"/>
<path class="st1" d="M19.8,23l-0.3-3.3l12.4,0l0.3-3.2l-16.2,0l0.9,9.9h11.2l-0.4,4.2l-3.6,1l-3.6-1l-0.2-2.6H17l0.4,5.1l6.7,1.8
	l6.6-1.8l0.9-10H19.8z"/>
</svg>
