<?xml version="1.0" encoding="utf-8"?>
<!-- Generator: Adobe Illustrator 27.0.0, SVG Export Plug-In . SVG Version: 6.00 Build 0)  -->
<svg version="1.1" id="Layer_1" xmlns="http://www.w3.org/2000/svg" xmlns:xlink="http://www.w3.org/1999/xlink" x="0px" y="0px"
	 viewBox="0 0 800 800" style="enable-background:new 0 0 800 800;" xml:space="preserve">
<style type="text/css">
	.st0{display:none;fill:#F7DF1E;}
	.st1{fill:#8E8E8E;}
</style>
<path class="st0" d="M0,0h800v800H0V0z"/>
<path class="st1" d="M437.5,566.6l8.5-5.1c1.6,2.9,3.1,5.4,6.7,5.4c3.4,0,5.6-1.3,5.6-6.6v-35.5h10.4v35.7
	c0,10.8-6.3,15.7-15.5,15.7C444.8,576.1,440,571.8,437.5,566.6 M474.3,565.5l8.5-4.9c2.2,3.7,5.1,6.3,10.3,6.3
	c4.3,0,7.1-2.2,7.1-5.1c0-3.6-2.8-4.8-7.6-6.9l-2.6-1.1c-7.5-3.2-12.5-7.2-12.5-15.7c0-7.8,5.9-13.8,15.2-13.8
	c6.6,0,11.4,2.3,14.8,8.4l-8.1,5.2c-1.8-3.2-3.7-4.5-6.7-4.5c-3,0-5,1.9-5,4.5c0,3.1,1.9,4.4,6.4,6.3l2.6,1.1
	c8.8,3.8,13.8,7.7,13.8,16.4c0,9.4-7.4,14.5-17.2,14.5C483.6,576.1,477.4,571.5,474.3,565.5"/>
</svg>
