<?xml version="1.0" encoding="utf-8"?>
<!-- Generator: Adobe Illustrator 27.0.0, SVG Export Plug-In . SVG Version: 6.00 Build 0)  -->
<svg version="1.1" id="Layer_3" xmlns="http://www.w3.org/2000/svg" xmlns:xlink="http://www.w3.org/1999/xlink" x="0px" y="0px"
	 viewBox="0 0 600 400" style="enable-background:new 0 0 600 400;" xml:space="preserve">
<style type="text/css">
	.st0{display:none;}
	.st1{display:inline;}
	.st2{fill:#F1F1F4;}
	.st3{fill:#E2E2E2;}
	.st4{fill:url(#SVGID_1_);}
	.st5{fill:url(#SVGID_00000106147466965100546890000016647407541729805451_);}
	.st6{fill:#E5E2FF;}
	.st7{fill:url(#SVGID_00000116218192080238648440000005402906014768427949_);}
	.st8{opacity:0.62;fill:url(#SVGID_00000160899088522171893160000001751106202995046031_);enable-background:new    ;}
	.st9{opacity:0.62;fill:url(#SVGID_00000117641794693391124190000003864577184004461731_);enable-background:new    ;}
	.st10{opacity:0.5;fill:url(#SVGID_00000058566442608403589220000007820799595648677792_);enable-background:new    ;}
	.st11{fill:#FFFFFF;}
	.st12{fill:#FE9083;}
	.st13{fill:#CB4D7A;}
	.st14{fill:#EE8183;}
	.st15{fill:url(#SVGID_00000174562843785549082920000010508700774110160005_);}
	.st16{opacity:0.6;fill:url(#SVGID_00000054267690121602938220000018265006124410497949_);enable-background:new    ;}
	.st17{fill:url(#SVGID_00000062891015792160534430000001244474538619174045_);}
	.st18{fill:#E28183;}
	.st19{opacity:0.91;fill:url(#SVGID_00000016069625872631668890000006706765186907890833_);enable-background:new    ;}
	.st20{fill:url(#SVGID_00000142151223555181883590000017600570106488986004_);}
	.st21{opacity:0.6;fill:url(#SVGID_00000089547292767779324580000003012749194390910137_);enable-background:new    ;}
	.st22{fill:url(#SVGID_00000065049934721571384900000002381356611450543024_);}
	.st23{fill:url(#SVGID_00000172398250915753047670000005447479819033820034_);}
	.st24{opacity:0.91;fill:url(#SVGID_00000050655645823389584460000007655129856462359741_);enable-background:new    ;}
	.st25{fill:#FFBCAF;}
	.st26{fill:url(#SVGID_00000040571202181950192690000003922236644670264991_);}
	.st27{opacity:0.5;fill:url(#SVGID_00000016048771139017117820000007604370512483285654_);enable-background:new    ;}
	.st28{fill:#918F8B;}
	.st29{opacity:0.5;fill:url(#SVGID_00000176728403237042013210000016257657885761546627_);enable-background:new    ;}
	.st30{fill:#B5B5B5;}
	.st31{fill:url(#SVGID_00000118392674728535944340000011534704845482090408_);}
	.st32{opacity:0.5;fill:#B5B5B5;enable-background:new    ;}
	.st33{opacity:0.5;fill:url(#SVGID_00000040549047093112500540000010102438387606235050_);enable-background:new    ;}
	.st34{opacity:0.5;fill:url(#SVGID_00000035516369675736221620000013463869687942834579_);enable-background:new    ;}
	.st35{opacity:0.5;fill:url(#SVGID_00000139287976366873243430000003429922958652409250_);enable-background:new    ;}
	.st36{opacity:0.5;fill:url(#SVGID_00000178912229912376629090000005169979887596659611_);enable-background:new    ;}
	.st37{opacity:0.5;fill:url(#SVGID_00000126296278077926054320000014035200995302370197_);enable-background:new    ;}
	.st38{opacity:0.5;fill:url(#SVGID_00000035527116442113683610000003074665528845987260_);enable-background:new    ;}
	.st39{opacity:0.76;fill:url(#SVGID_00000179619956656574144990000004616962213972619198_);enable-background:new    ;}
	.st40{opacity:0.5;fill:url(#SVGID_00000036933370081793641470000016337499284605116321_);enable-background:new    ;}
	.st41{opacity:0.3;fill:url(#SVGID_00000096058687985855858770000002522382385305383813_);enable-background:new    ;}
	.st42{opacity:0.5;fill:url(#SVGID_00000050661306608640699140000002886198244754146471_);enable-background:new    ;}
	.st43{opacity:0.5;fill:url(#SVGID_00000043444569069693524860000002298344181603933103_);enable-background:new    ;}
	.st44{opacity:0.5;fill:url(#SVGID_00000135685817501857603360000000577054099222965129_);enable-background:new    ;}
	.st45{opacity:0.5;fill:url(#SVGID_00000031196915105082073350000014152179678095743115_);enable-background:new    ;}
	.st46{opacity:0.5;fill:url(#SVGID_00000181797894236220761870000015371849905184991668_);enable-background:new    ;}
	.st47{opacity:0.3;fill:url(#SVGID_00000160889426271496113580000014564229422530270852_);enable-background:new    ;}
	.st48{opacity:0.5;fill:url(#SVGID_00000048495671148732576180000016185282731107745934_);enable-background:new    ;}
	.st49{opacity:0.5;fill:url(#SVGID_00000140734405415194911410000018343774354902450861_);enable-background:new    ;}
	.st50{fill:url(#SVGID_00000034086780929093537050000001523628942745702302_);}
	.st51{fill:url(#SVGID_00000016036172307925373560000001902792751620867492_);}
	.st52{fill:url(#SVGID_00000173870632337799025430000011707670636320721298_);}
	.st53{opacity:0.6;fill:url(#SVGID_00000084526655194679214390000000015262373221061516_);enable-background:new    ;}
	.st54{fill:url(#SVGID_00000150790313068226776580000014517346658513927099_);}
	.st55{fill:url(#SVGID_00000092419006839870442260000001874508002993673356_);}
	.st56{fill:url(#SVGID_00000085949164093615531010000015465013984309000576_);}
	.st57{fill:url(#SVGID_00000030487952223863571420000008455688608427062710_);}
	.st58{fill:#FFEBED;}
	.st59{fill:#914343;}
	.st60{fill:#451414;}
	.st61{fill:#571D0F;}
	.st62{fill:#C6659C;}
	.st63{fill:#CB5F7D;}
	.st64{fill:#9F4A8B;}
	.st65{opacity:0.6;fill:url(#SVGID_00000142854561496710971420000015787553354272293311_);enable-background:new    ;}
	.st66{fill:url(#SVGID_00000174569785788148561990000005056573477325989037_);}
	.st67{fill:#D2726C;}
	.st68{opacity:0.6;fill:url(#SVGID_00000155132281893593383410000017234130230135485619_);enable-background:new    ;}
	.st69{opacity:0.6;fill:url(#SVGID_00000057842651356071693900000000659705479587674556_);enable-background:new    ;}
	.st70{opacity:0.5;fill:url(#SVGID_00000024713528240886650030000000446609697240437137_);enable-background:new    ;}
	.st71{fill:#B55B6D;}
	.st72{opacity:0.8;fill:url(#SVGID_00000043459018514919615910000011311690241462512305_);enable-background:new    ;}
	.st73{opacity:0.8;fill:url(#SVGID_00000080188687510618068480000014822858748550509733_);enable-background:new    ;}
	.st74{fill:url(#SVGID_00000143575181364604560960000004671829056441977773_);}
	.st75{fill:url(#SVGID_00000036961735021274811900000005465803286921189513_);}
	.st76{opacity:0.81;fill:#C67500;enable-background:new    ;}
	.st77{fill:#9B4CA2;stroke:#C67500;stroke-miterlimit:10;}
	.st78{opacity:0.81;fill:#EFB454;enable-background:new    ;}
	.st79{opacity:0.3;fill:url(#SVGID_00000147179305750885783870000007124195708105922946_);enable-background:new    ;}
	.st80{opacity:0.3;fill:url(#SVGID_00000147903452237150592010000004885232444822395564_);enable-background:new    ;}
	.st81{opacity:0.3;fill:url(#SVGID_00000029047964585201297640000016798532373586247570_);enable-background:new    ;}
	.st82{opacity:0.3;fill:url(#SVGID_00000088132189844570847440000007197978014865057420_);enable-background:new    ;}
	.st83{fill:#D1D4FB;}
	.st84{fill:#E0FFFF;}
	.st85{fill:#EE9B00;}
	.st86{fill:url(#SVGID_00000036218032900171523430000011335131309081774987_);stroke:#C67500;stroke-miterlimit:10;}
	.st87{opacity:0.81;fill:#EE9B00;enable-background:new    ;}
	.st88{fill:#713DA2;stroke:#C67500;stroke-miterlimit:10;}
	.st89{opacity:0.73;fill:#C67500;enable-background:new    ;}
	.st90{fill:#403DA2;stroke:#C67500;stroke-miterlimit:10;}
	.st91{opacity:0.73;fill:#EE9B00;enable-background:new    ;}
	.st92{fill-rule:evenodd;clip-rule:evenodd;fill:#B77408;}
	.st93{opacity:0.73;fill-rule:evenodd;clip-rule:evenodd;fill:#EE9B00;enable-background:new    ;}
	.st94{opacity:0.81;enable-background:new    ;}
	.st95{fill-rule:evenodd;clip-rule:evenodd;fill:#9B5C08;}
	.st96{opacity:0.5;fill-rule:evenodd;clip-rule:evenodd;fill:#601734;enable-background:new    ;}
	.st97{fill-rule:evenodd;clip-rule:evenodd;fill:#EE9B00;}
	.st98{fill-rule:evenodd;clip-rule:evenodd;fill:#C67500;}
	
		.st99{fill-rule:evenodd;clip-rule:evenodd;fill:url(#SVGID_00000010301616011256999030000010842286947952670080_);stroke:#C67500;stroke-miterlimit:10;}
</style>
<g>
	<g class="st0">
		<g class="st1">
			<path class="st2" d="M452,204.7l-2.5,0.1l-0.1-2.1l-0.1,0l-0.7,2.1l-3.6,0.1c-0.7,0-1.2,0-1.7-0.2c-0.5-0.2-0.9-0.4-1.2-0.7
				c-0.3-0.3-0.5-0.7-0.7-1.1c-0.1-0.4-0.2-0.9-0.2-1.5l-0.1-1.8c0-0.5,0-1,0.2-1.5s0.3-0.8,0.6-1.1s0.6-0.6,1.1-0.7
				c0.5-0.2,1-0.3,1.7-0.3l6.7-0.2c0.2,0,0.3,0.1,0.4,0.4L452,204.7z M449.3,198.2c0,0,0-0.1-0.1-0.1c0,0-0.1-0.1-0.1-0.1l-4.1,0.1
				c-0.5,0-0.8,0.1-1,0.3c-0.2,0.2-0.3,0.6-0.3,1.1l0,1.5c0,0.5,0.1,0.9,0.3,1.1c0.2,0.2,0.6,0.3,1,0.3l4.3-0.1L449.3,198.2z"/>
			<path class="st2" d="M437,201.5l-3.5,0.1l-0.1-1.8l4.2-0.1l0-1.1c0,0,0-0.1,0-0.1s-0.1-0.1-0.1-0.1l-5.1,0.2
				c-0.1,0-0.1,0-0.1,0.1l0,1.2l-0.1,0l-2.4-0.8l-0.1-2.3c0-0.2,0.1-0.4,0.4-0.4l9.6-0.3c0.2,0,0.4,0.1,0.4,0.4l0.2,8.2
				c0,0.2-0.1,0.4-0.3,0.4l-9.9,0.3L430,203l7.5-0.2c0.1,0,0.2-0.1,0.2-0.2l-0.1-2.7l-0.1,0L437,201.5z"/>
			<path class="st2" d="M418.4,199l-0.1-1.8c0-0.3,0.1-0.4,0.4-0.4l7.9-0.2c0.8,0,1.4,0.1,1.7,0.5c0.4,0.3,0.5,0.8,0.6,1.5l0,0.6
				c0,0.3,0,0.6-0.1,0.9c-0.1,0.2-0.2,0.4-0.3,0.6s-0.4,0.3-0.6,0.4c-0.3,0.1-0.6,0.2-0.9,0.2l-5.3,0.8c-0.2,0-0.3,0.1-0.3,0.1
				c-0.1,0.1-0.1,0.2-0.1,0.3l0,0.2c0,0.2,0,0.3,0.1,0.4c0.1,0.1,0.2,0.1,0.4,0.1l7.1-0.2l0.1,2.3l-8,0.2c-0.5,0-0.9,0-1.2-0.1
				c-0.3-0.1-0.6-0.2-0.8-0.4c-0.2-0.2-0.4-0.4-0.5-0.7c-0.1-0.3-0.2-0.6-0.2-1l0-0.7c0-0.3,0-0.6,0.1-0.9c0.1-0.2,0.2-0.5,0.3-0.6
				c0.1-0.2,0.3-0.3,0.6-0.4c0.2-0.1,0.5-0.2,0.9-0.3l5.5-0.9c0.2,0,0.3-0.1,0.3-0.1s0.1-0.2,0.1-0.3l0-0.2c0-0.1,0-0.2-0.1-0.3
				c-0.1-0.1-0.2-0.1-0.4-0.1l-4.7,0.1c-0.1,0-0.1,0.1-0.1,0.2l0,1l-0.1,0L418.4,199z"/>
			<path class="st2" d="M414.9,205.8l-0.3-8.9l2.5-0.1l0.3,8.9L414.9,205.8z"/>
			<path class="st2" d="M405.5,203.6c0,0.1,0,0.1,0.1,0.1l4.2-0.1c0.5,0,0.8-0.1,1-0.4c0.2-0.2,0.3-0.6,0.3-1.1l0-1.6
				c0-0.3,0-0.5-0.1-0.7c-0.1-0.2-0.1-0.3-0.2-0.4c-0.1-0.1-0.2-0.2-0.4-0.2c-0.2,0-0.4-0.1-0.6,0l-4.3,0.1c-0.1,0-0.1,0-0.1,0.1
				l0,0.9l-0.1,0l-2.4-0.8l-0.1-1.9c0-0.2,0.1-0.4,0.3-0.4l6.7-0.2c0.7,0,1.2,0,1.7,0.2c0.5,0.2,0.9,0.4,1.2,0.7
				c0.3,0.3,0.5,0.7,0.7,1.1c0.1,0.4,0.2,0.9,0.2,1.5l0.1,1.8c0,0.5,0,1-0.2,1.5s-0.3,0.8-0.6,1.1c-0.3,0.3-0.6,0.6-1.1,0.7
				c-0.5,0.2-1,0.3-1.7,0.3l-6.7,0.2c-0.2,0-0.3-0.1-0.3-0.3l-0.1-4.4l2.5-0.1l0,0.1c0,0.1,0,0.2,0,0.4c0,0.1,0,0.3,0,0.4
				L405.5,203.6z"/>
			<path class="st2" d="M401.4,197.3c0.2,0,0.3,0.1,0.4,0.4l0.3,8.6l-2.3,0.1l-0.2-6.7c0-0.1-0.1-0.2-0.2-0.2l-0.1,0
				c-0.1,0-0.2,0.1-0.2,0.2l-3.3,6.5c-0.1,0.1-0.1,0.2-0.2,0.3c-0.1,0.1-0.2,0.1-0.4,0.1l-3.6,0.1c-0.2,0-0.3-0.1-0.4-0.3l-0.3-8.6
				l2.3-0.1l0.2,6.7c0,0.1,0.1,0.2,0.2,0.2l0.1,0c0.1,0,0.2-0.1,0.2-0.2l3.2-6.5c0.1-0.1,0.1-0.2,0.2-0.3c0.1-0.1,0.2-0.1,0.4-0.1
				L401.4,197.3z"/>
		</g>
	</g>
	<g>
		<ellipse class="st3" cx="330.9" cy="195.5" rx="155" ry="155"/>
	</g>
	<g>
		<g>
			
				<linearGradient id="SVGID_1_" gradientUnits="userSpaceOnUse" x1="-129.9403" y1="185.9895" x2="-129.9403" y2="257.1769" gradientTransform="matrix(-0.906 -0.4233 0.4233 -0.906 235.4115 357.3838)">
				<stop  offset="0" style="stop-color:#DBCCFF"/>
				<stop  offset="1" style="stop-color:#D1BBFF"/>
			</linearGradient>
			<path class="st4" d="M443.7,188.1c-0.2,1.5,0.4,4.2,3.6,7.5L434,227.9c-2.6,0.5-5,2.1-6.2,4.8c-2,4.2-0.2,9.3,4.1,11.3
				c4.2,2,9.3,0.2,11.3-4.1c1.2-2.6,1-5.5-0.4-7.8L459,201c4.7,0.3,7.1-1,8.1-2.1c0.2-0.2,1.2-2.5,1.2-2.5c2.6-7.1,0.3-14,0.3-14
				l-2.4-1.1l-4,10.2c-3.3,1.8-6.5,1.2-6.5,1.2l0,0c0,0-2.5-2-3.2-5.7l5.3-9.6l-2.4-1.1c0,0-6.7,2.7-10.6,9.3
				C444.9,185.6,443.8,187.8,443.7,188.1z M431.2,234.2l3.9-2.7l4.3,2l0.4,4.7l-3.9,2.7l-4.3-2L431.2,234.2z"/>
			
				<linearGradient id="SVGID_00000183954286128939360940000016453999128360202374_" gradientUnits="userSpaceOnUse" x1="-129.9433" y1="183.2122" x2="-129.9433" y2="254.4001" gradientTransform="matrix(-0.906 -0.4233 0.4233 -0.906 235.4115 357.3838)">
				<stop  offset="0" style="stop-color:#B5A6E7"/>
				<stop  offset="1" style="stop-color:#7760BF"/>
			</linearGradient>
			<path style="fill:url(#SVGID_00000183954286128939360940000016453999128360202374_);" d="M446.1,198.1l-13.3,32.2
				c-2.6,0.5-5,2.1-6.2,4.8c-2,4.2-0.2,9.3,4.1,11.3c4.2,2,9.3,0.2,11.3-4.1c1.2-2.6,1-5.5-0.4-7.8l16.2-30.9
				c5.6,0.3,9.2-4.6,9.2-4.6c2.6-7.1,0.3-14,0.3-14l-2.4-1.1l-4,10.2c-3.3,1.8-6.5,1.2-6.5,1.2l0,0c0,0-2.5-2-3.2-5.7l5.3-9.6
				l-2.4-1.1c0,0-6.7,2.7-10.6,9.3C443.7,188.1,442.3,194.1,446.1,198.1z M430,236.7l3.9-2.7l4.3,2l0.4,4.7l-3.9,2.7l-4.3-2
				L430,236.7z"/>
			
				<rect x="465.4" y="181.9" transform="matrix(0.4233 -0.906 0.906 0.4233 103.2667 528.5277)" class="st6" width="2.8" height="2.6"/>
			
				<rect x="454.7" y="176.8" transform="matrix(0.4233 -0.906 0.906 0.4233 101.6037 515.9067)" class="st6" width="2.8" height="2.6"/>
			
				<rect x="431.7" y="238.8" transform="matrix(0.4233 -0.906 0.906 0.4233 31.2871 531.5078)" class="st6" width="2.8" height="4.7"/>
			<g>
				
					<linearGradient id="SVGID_00000029747884587035693960000015608490944889661343_" gradientUnits="userSpaceOnUse" x1="-129.9448" y1="200.9105" x2="-129.9448" y2="230.918" gradientTransform="matrix(-0.906 -0.4233 0.4233 -0.906 235.4115 357.3838)">
					<stop  offset="0" style="stop-color:#B5A6E7"/>
					<stop  offset="1" style="stop-color:#7760BF"/>
				</linearGradient>
				<path style="fill:url(#SVGID_00000029747884587035693960000015608490944889661343_);" d="M446.6,202.3L436,228.5
					c0,0,1.8,2.6,5.3,2.5l13.1-25.2C454.3,205.9,451.4,202.1,446.6,202.3z M447.2,202.7c1.1,0.1,2.2,0.5,3.2,1
					c1.4,0.7,2.5,1.5,3.1,2.1l-13.1,24.6c-0.6-0.1-1.2-0.3-1.8-0.5c-0.7-0.3-1.3-0.8-1.7-1.1L447.2,202.7z"/>
				<path class="st6" d="M437,228.7l-1-0.2c0,0,1.5,2.7,5.3,2.5l-0.8-0.6C440.5,230.4,438.6,230.2,437,228.7z"/>
				
					<linearGradient id="SVGID_00000019639288963109582710000005524022651987875973_" gradientUnits="userSpaceOnUse" x1="-134.2031" y1="230.3178" x2="-125.6861" y2="230.3178" gradientTransform="matrix(-0.906 -0.4233 0.4233 -0.906 235.4115 357.3838)">
					<stop  offset="0" style="stop-color:#8B8BE0"/>
					<stop  offset="1" style="stop-color:#A177B7"/>
				</linearGradient>
				
					<path style="opacity:0.62;fill:url(#SVGID_00000019639288963109582710000005524022651987875973_);enable-background:new    ;" d="
					M454.3,205.9l-0.8-0.1c0,0-2.2-2.3-6.4-3l-0.6-0.5c0,0,1.7-0.3,4.3,0.9C453.5,204.4,454.3,205.9,454.3,205.9z"/>
			</g>
			
				<linearGradient id="SVGID_00000064341217484700310790000003125425135238192308_" gradientUnits="userSpaceOnUse" x1="-129.9443" y1="228.3408" x2="-129.9443" y2="233.4955" gradientTransform="matrix(-0.906 -0.4233 0.4233 -0.906 235.4115 357.3838)">
				<stop  offset="0" style="stop-color:#FFFFFF"/>
				<stop  offset="1" style="stop-color:#A177B7"/>
			</linearGradient>
			
				<path style="opacity:0.62;fill:url(#SVGID_00000064341217484700310790000003125425135238192308_);enable-background:new    ;" d="
				M457.8,203.6c0,0-6.3-1.1-11.7-5.4l-1.7,4.1c0,0,1.9-1.9,6.2-0.2c5,2,4.7,6,4.7,6L457.8,203.6z"/>
			
				<linearGradient id="SVGID_00000109000891662197505620000007142382580229226418_" gradientUnits="userSpaceOnUse" x1="-125.4399" y1="197.848" x2="-125.4399" y2="230.928" gradientTransform="matrix(-0.906 -0.4233 0.4233 -0.906 235.4115 357.3838)">
				<stop  offset="0" style="stop-color:#000000"/>
				<stop  offset="1" style="stop-color:#FFFFFF"/>
			</linearGradient>
			<path style="opacity:0.5;fill:url(#SVGID_00000109000891662197505620000007142382580229226418_);enable-background:new    ;" d="
				M444.4,202.3c1.2-0.9,2.6-0.9,2.6-0.9L434.4,232l-1.5-1.6L444.4,202.3z"/>
			<path class="st11" d="M444.4,202.3c0,0,1.3,4.1-2.5,6L444.4,202.3z"/>
		</g>
	</g>
	<g>
		<g>
			<g>
				<path class="st12" d="M298.5,149.6c-0.1,0.4-0.1,0.7-0.1,0.7c0.5,2,1,3.9,1.7,5.7c2,5.6,4.4,9.6,6.2,12.1
					c1.6,2.1,2.7,3.2,2.7,3.2c14.6-4.6,21.8-18.9,24.5-25.9c0,0,0-0.1,0-0.1c0.5-1.3,0.9-2.4,1.1-3.1c0,0,0,0,0,0
					c0.2-0.6,0.2-0.9,0.2-0.9c-0.1-0.1-0.1-0.2-0.2-0.4l0-0.1c-0.2-0.5-0.5-1-0.7-1.5c-1.9-4.2-3.2-8.1-4-11.2
					c-0.7-2.6-1.1-4.6-1.3-5.7c-0.1-0.6-0.1-0.8-0.1-0.8l-6.8,3.6l-23.4,12.4c0.4,2.1,0.5,4.2,0.5,5.9c0,1.2,0,2.4-0.1,3.3
					c-0.1,1.2-0.2,2.1-0.3,2.7v0C298.6,149.6,298.5,149.6,298.5,149.6z"/>
				<path class="st13" d="M298.5,149.3c0,0.1,0,0.3,0,0.4c0,0.3,0.1,0.5,0.2,0.8c0,0,0,0,0,0c1.2,4.4,6,8.9,12.1,6.8
					c6.6-2.4,19.2-29.1,19.2-29.1l-1.3-5.7l-30,24.4l-0.3,2.3L298.5,149.3z"/>
			</g>
			<g>
				<g>
					<path class="st14" d="M398.2,144.4c0,0,1.8-10.1,1-17.6c-0.8-7.5,0.2-15.9,0.2-15.9s1.8-0.8,3.1,0c1.3,0.8,4.4,8.5,3,14.7
						c-1.4,6.2-0.3,21-0.3,21h2.1l4.5-6.3l2.2-0.6c0,0,12.7,12,12.5,19.1l-1.7,6.3l-15.7-0.5L399.1,153L398.2,144.4z"/>
					
						<linearGradient id="SVGID_00000102526351294717308650000007703702644310016151_" gradientUnits="userSpaceOnUse" x1="-61.076" y1="239.4568" x2="-61.076" y2="261.5813" gradientTransform="matrix(-1 0 0 -1 360 401.2756)">
						<stop  offset="1.600000e-02" style="stop-color:#FFC2A9"/>
						<stop  offset="1" style="stop-color:#FF9595"/>
					</linearGradient>
					<path style="fill:url(#SVGID_00000102526351294717308650000007703702644310016151_);" d="M414.1,139.7c0,0-0.3,8-2.1,14.8
						c0,0,0.3,2.8,3.6,3l0.8-0.9c0,0,0.6,3.2,3.5,3.4l2.7-2.7l-0.7,2.3c0,0,1,2.4,3.6,2.3c0,0,4.4-3.4,4.6-7.9l-4.3-3.6v-2.8
						l-5.1-3.6l-0.1-2C420.6,141.9,417.6,139.6,414.1,139.7z"/>
					
						<linearGradient id="SVGID_00000013894339879974445490000011122842628046102442_" gradientUnits="userSpaceOnUse" x1="-47.1455" y1="239.9826" x2="-47.1455" y2="276.6036" gradientTransform="matrix(-1 0 0 -1 360 401.2756)">
						<stop  offset="0" style="stop-color:#FFEADB"/>
						<stop  offset="0.9944" style="stop-color:#C27CB6"/>
					</linearGradient>
					
						<path style="opacity:0.6;fill:url(#SVGID_00000013894339879974445490000011122842628046102442_);enable-background:new    ;" d="
						M399,124.7c0,0,0.8,1.9,1.9,2.7c1.1,0.8,4.2,1.3,4.2,1.3l0.1,17.9h2.1l4.5-6.3c0,0-2.3,3.6-2.4,6.3l1.8,0.9l1.6-5.4l0.7,3.9
						l-0.7,4.8c0,0-2.7-2.3-7.6-2.4l-0.7,1.3c0,0,8.8,7.3,10.9,11.6c0,0-4.4-5.5-14.3-11.7l-0.9-2.9l-1.3-7
						C398.9,139.7,400.1,129.6,399,124.7z"/>
					
						<linearGradient id="SVGID_00000106858506345081717240000018148786295335156637_" gradientUnits="userSpaceOnUse" x1="-48.3332" y1="215.0656" x2="-48.3332" y2="271.5256" gradientTransform="matrix(-1 0 0 -1 360 401.2756)">
						<stop  offset="1.600000e-02" style="stop-color:#FFC2A9"/>
						<stop  offset="1" style="stop-color:#FF9595"/>
					</linearGradient>
					<path style="fill:url(#SVGID_00000106858506345081717240000018148786295335156637_);" d="M391.6,155.8
						c0.8,2.5,9.4,12.7,10.4,14.9c1,2.2,1.5,5.1,1.5,5.1c4.2,9.1,14.4,10.4,14.4,10.4l0.5-8.2c0,0,5.5-3.2,6.4-4.9l0,0l0.1-0.3
						c0.3-1.6,0-7.6,0-7.6l-9.6-3.9c-4.2-5.4-14.3-11.6-14.3-11.6l-0.5-2.8c7.3-3.6,6.1-14.4,4.8-15.7c-1.2-1.3-3.5-1.3-3.5-1.3
						s-2.7,8.7-4.4,12.8C395.9,146.6,390.8,153.3,391.6,155.8z"/>
					<path class="st18" d="M420.6,141.9c0,0-1.1,9.9-4.2,14.7c0,0,4-5,4.3-12.6L420.6,141.9z"/>
					<path class="st18" d="M425.8,147.5c0,0-1,8-6,12.5c0,0,4.4-2.2,6-9.7V147.5z"/>
					
						<linearGradient id="SVGID_00000054252851242211659090000000647729725105809325_" gradientUnits="userSpaceOnUse" x1="-58.43" y1="223.8761" x2="-40.678" y2="223.8761" gradientTransform="matrix(-1 0 0 -1 360 401.2756)">
						<stop  offset="1.600000e-02" style="stop-color:#D1A1D6"/>
						<stop  offset="0.9944" style="stop-color:#BD89C4"/>
					</linearGradient>
					
						<path style="opacity:0.91;fill:url(#SVGID_00000054252851242211659090000000647729725105809325_);enable-background:new    ;" d="
						M400.7,168.6c0,0,10.8,10.5,17.8,9.4l-0.5,8.2c0,0-11.4-1-15.1-13C402.9,173.3,401.6,169.8,400.7,168.6z"/>
				</g>
				<g>
					
						<linearGradient id="SVGID_00000043433959911730779590000014323645988369648814_" gradientUnits="userSpaceOnUse" x1="158.9961" y1="180.6756" x2="158.9961" y2="256.1768" gradientTransform="matrix(-1 0 0 -1 360 401.2756)">
						<stop  offset="1.600000e-02" style="stop-color:#FFC2A9"/>
						<stop  offset="1" style="stop-color:#FF9595"/>
					</linearGradient>
					<path style="fill:url(#SVGID_00000043433959911730779590000014323645988369648814_);" d="M171.6,182.9c0,0,9.9,18.2,21.6,23.8
						h4l9.2,13.9c0,0,5.9-3.7,6.4-16c0,0-2.1-2.2-2.6-4.6c0,0,3.3-2.6,4.2-4.5c0.9-1.9,1.2-7.6,1.8-9.9s6-7.2,7.2-7.8
						s6.6-0.9,6.6-0.9s0.8-2,0-2.9c-0.8-0.9-9.2-4.2-13.8-1.1c0,0-0.3,2.4-0.8,3.7c-0.5,1.3-4.6,5.7-5.2,5.7c-0.6,0-3.4-2.3-4.6-4
						c-1.1-1.7-7.3-14.9-8.7-19.3c0-0.1,0-0.1,0-0.1c0-0.1-0.1-0.1-0.1-0.2c0-0.1,0-0.1,0-0.1c0,0,0,0,0-0.1
						c-1.1-3.9-7.8-11.2-11.3-13.3c0,0-1.5-0.4-2.3,1.5c0,0,2.8,8.1,5.8,12.9c0.5,0.8,1,1.8,1.6,2.8c0,0,0,0,0,0
						c2.5,4.6,5.4,10.7,5.8,11.6l0.1,0.1l-1.6,0.8l-4.3-4.1l-4.4-4.1l-10.1,10.6l1,1.3l3.1,4l-1.6,0.3l-3.7-4.1L171.6,182.9z"/>
					
						<linearGradient id="SVGID_00000136371317371932043810000006511818493747300009_" gradientUnits="userSpaceOnUse" x1="167.916" y1="204.8656" x2="167.916" y2="242.3755" gradientTransform="matrix(-1 0 0 -1 360 401.2756)">
						<stop  offset="0" style="stop-color:#FFEADB"/>
						<stop  offset="0.9944" style="stop-color:#C27CB6"/>
					</linearGradient>
					
						<path style="opacity:0.6;fill:url(#SVGID_00000136371317371932043810000006511818493747300009_);enable-background:new    ;" d="
						M174,186.8l3.2,4.7c0,0,17.5-13.5,21.2-14.6s5.2-0.4,5.2-0.4l3.9,5c0,0-7.2,6.4-7.8,15c0,0,2.4-10.9,10.6-14.1
						c-0.6,0-3.4-2.3-4.6-4c-1.1-1.7-7.3-14.9-8.7-19.3c0.2,0.8,0.5,2.2-0.2,3.4c-0.9,1.6-5.9,0.1-6.2,0c0,0,0,0,0,0l5.8,11.6
						l0.1,0.1l-1.6,0.8l-4.3-4.1l2.1,5l-15.6,2.8l3.1,4l-1.6,0.3L174,186.8z"/>
					
						<linearGradient id="SVGID_00000145039770955903050860000006946023291123162770_" gradientUnits="userSpaceOnUse" x1="175.3155" y1="217.8126" x2="175.3155" y2="234.6276" gradientTransform="matrix(-1 0 0 -1 360 401.2756)">
						<stop  offset="0" style="stop-color:#FFB0B0"/>
						<stop  offset="0.984" style="stop-color:#FFC2A9"/>
					</linearGradient>
					<path style="fill:url(#SVGID_00000145039770955903050860000006946023291123162770_);" d="M186.1,166.7c0,0-3-0.4-5,3.5l0.4,1.3
						c0,0-3,0.6-5.8,5.4c0,0,2.5,4.6,8.8,6.7c0,0,2.9-0.8,3.4-3.3l-0.6-1.6l2.3,1.7c0,0,2.7,0.8,3.9-3.2L186.1,166.7z"/>
					
						<linearGradient id="SVGID_00000142146851287806667920000008675710520822846122_" gradientUnits="userSpaceOnUse" x1="185.0691" y1="215.2226" x2="185.0691" y2="224.4436" gradientTransform="matrix(-1 0 0 -1 360 401.2756)">
						<stop  offset="0" style="stop-color:#FFB0B0"/>
						<stop  offset="0.984" style="stop-color:#FFC2A9"/>
					</linearGradient>
					<path style="fill:url(#SVGID_00000142146851287806667920000008675710520822846122_);" d="M170.7,181.6c0,0-0.6-2.9,2.5-4.8
						l6,6.6c0,0-0.2,2.1-2.8,2.6C176.4,186.1,172.3,184.7,170.7,181.6z"/>
					
						<linearGradient id="SVGID_00000088820064748149860430000012230681396376026534_" gradientUnits="userSpaceOnUse" x1="145.63" y1="196.8446" x2="162.78" y2="196.8446" gradientTransform="matrix(-1 0 0 -1 360 401.2756)">
						<stop  offset="1.600000e-02" style="stop-color:#D1A1D6"/>
						<stop  offset="0.9944" style="stop-color:#BD89C4"/>
					</linearGradient>
					
						<path style="opacity:0.91;fill:url(#SVGID_00000088820064748149860430000012230681396376026534_);enable-background:new    ;" d="
						M214.4,195.5c0,0-7,7.8-17.1,11.1l4.4,6.7l9.2-11.6l-0.6-1.7C210.2,200,213.9,197.2,214.4,195.5z"/>
					<path class="st18" d="M181.6,171.4c0,0,2.9,4.8,5.8,7.2l0.6,1.6c0,0-5.6-3.8-7.7-8.2C180.3,172,180.9,171.5,181.6,171.4z"/>
				</g>
				<path class="st25" d="M391.6,155.8c0,0,4.6-1,6.6-5c1.9-4.1,0.7-9.9,0.7-9.9s-3.6,7-5.4,9.4
					C391.6,152.6,391.1,155.3,391.6,155.8z"/>
			</g>
			<g>
				
					<linearGradient id="SVGID_00000170252450464294616620000012537959874676234680_" gradientUnits="userSpaceOnUse" x1="43.5421" y1="224.8256" x2="43.5421" y2="260.4356" gradientTransform="matrix(-1 0 0 -1 360 401.2756)">
					<stop  offset="0" style="stop-color:#B4CDF8"/>
					<stop  offset="1" style="stop-color:#D3D6FB"/>
				</linearGradient>
				<path style="fill:url(#SVGID_00000170252450464294616620000012537959874676234680_);" d="M305,172.8c1.4,1.3,2.9,2.5,4.8,3.5
					c0,0,0.1,0.1,0.1,0.1c0,0,0,0,0.1-0.1l0,0c0.5-0.3,2.2-1.4,4.6-3.1c6.1-4.6,16.3-13.9,19.3-26.5c0,0,0,0,0-0.1
					c0.3-1.5,0.6-3,0.7-4.6c0,0,0,0,0,0c0-0.4,0.1-0.8,0.1-1.2c0,0-2,4.8-5.5,9.9c-4.1,6.1-10.4,12.7-17.8,12.7
					c-6.4,0-9.7-4.4-11.4-8.4c-0.7-1.7-1.1-3.4-1.4-4.6c0,0,0,0,0,0c-0.1-0.4-0.1-0.7-0.2-0.9v0c0-0.1,0-0.3,0-0.4
					c-0.1-0.4-0.1-0.7-0.1-0.7S296,163.8,305,172.8z"/>
				
					<linearGradient id="SVGID_00000177479504163492893440000003941650499625955745_" gradientUnits="userSpaceOnUse" x1="25.21" y1="242.6656" x2="61.8742" y2="242.6656" gradientTransform="matrix(-1 0 0 -1 360 401.2756)">
					<stop  offset="0" style="stop-color:#B2E8FF"/>
					<stop  offset="1" style="stop-color:#4964BB"/>
				</linearGradient>
				
					<path style="opacity:0.5;fill:url(#SVGID_00000177479504163492893440000003941650499625955745_);enable-background:new    ;" d="
					M305,172.8c1.4,1.3,2.9,2.5,4.8,3.5h0.1l0.1,0l0,0c0.5-0.3,2.2-1.4,4.6-3.1c6.1-4.6,16.3-13.9,19.3-26.5c0,0,0,0,0-0.1
					c0.3-1.5,0.6-3,0.7-4.6c0,0,0,0,0,0c0-0.4,0.1-0.8,0.1-1.2c0,0-2,4.8-5.5,9.9c0,0-4,11.1-12.8,16.6c-4.4,2.8-7.7,2.4-10.1,0.7
					c-2.4-1.6-4-4.4-5-6.5c-0.9-2.1-1.2-4.1-1.3-5.6c0-0.3,0-0.6,0-0.9c-0.7-1.7-1.1-3.4-1.4-4.6c0,0,0,0,0,0
					c-0.1-0.4-0.1-0.7-0.2-0.9v0c0-0.1,0-0.3,0-0.4c-0.1-0.4-0.1-0.7-0.1-0.7S296,163.8,305,172.8z"/>
				<path class="st28" d="M248.9,263.5c0.1,0,0.2,0.1,0.2,0.1c0.8,0.1,3.4-0.5,6.7-3.4l0,0c0,0,0,0,0,0c0,0,0,0,0,0
					c2.8-2.5,6.2-6.5,9.5-13.2c6.7-13.4,8.6-22.3,8.9-23.9l0-0.2l3.9,6.2c2.6,8,7.7,41,7.6,42.4c-0.1,1.4-4.5,8.3-4.4,9.2
					c0,0,0,0,0,0c0.1,0.9,2.1,2.8,2.6,4.8c0.4,1.4-2.3,5.7-4.1,8.9v0c-1,1.7-1.7,3.1-1.7,3.6c0,1.5,4.7,8.9,4.7,8.9v4l0.1,0.1
					l0.2,0.2l0.2,0.1c1.8,1.4,9.4,6.1,33.3,7.4c28.2,1.5,47.1-7.6,47.1-7.6l-1.4-3.9c0,0,1.3-1.1,1.4-1.7c0.1-0.6-1-1.9-1-1.9
					s2.8-1.5,2.8-3.4c0-1.9-5.7-7.8-5.5-12.8c0.2-5,4.5-9.5,5.1-12.3s-7.4-9.9-7.4-9.9c6.8-21.6,8.1-50.6,8.1-50.6l1.3-1.5
					c0,0,8.1,18.6,15.5,27.7c0.9,1.1,1.8,2.1,2.8,3.2c2.1,2.2,4.2,4.3,6.4,6.1c5.1,4.5,9.8,7.4,11,7.2c1.9-0.4,9.5-15.4,9.1-30.7
					c-0.2-7.3-4.6-15.5-9.1-22c-0.5-0.7-1-1.4-1.5-2.1c-3.2-4.4-6.4-7.9-7.8-9.4c-0.6-0.6-0.9-0.9-0.9-0.9s1-3.4,1.8-6.3
					c0-0.1,0-0.1,0-0.2c0,0,0-0.1,0-0.1c0-0.1,0-0.1,0-0.1c0.4-1.8,0.7-3.3,0.4-3.7c-0.6-1-4.3-2.1-4.9-2.9
					c-0.6-0.8-3.3-13.5-5.3-14.9c-1.9-1.3-5.4-2.3-16.7-6.8c-0.6-0.2-1.1-0.4-1.7-0.7c-12.8-5.1-25.3-11.2-25.3-11.2l-4.8-5.9h-2.1
					l0.7,1.5l0,0.1c-0.3,1.5-0.7,3-1.2,4.4c0,0,0,0.1,0,0.1c-6.6,20.8-23.6,27.5-23.6,27.5c-11.8-8.7-11.6-22.5-11.6-22.5v-1.9
					l-2.2,0.7l-1.5,3.6c0,0-2.6,4-12.7,8.4c-1.8,0.8-3.6,1.7-5.6,2.9c-9.3,5.3-19.6,13.4-20.4,15.1c-0.1,0.2-0.2,0.5-0.3,0.9v0
					c-1.1,4.3-3.3,20.3-5.4,26c-1.3,3.6-3.4,5.5-4.9,6.6c0,0,0,0,0,0c-1.1,0.8-1.9,1-1.9,1c-0.2,0.9-0.3,1.8-0.4,2.6
					C238.8,243.6,247,262.2,248.9,263.5z"/>
				
					<linearGradient id="SVGID_00000052798925569518272480000000665971569277033656_" gradientUnits="userSpaceOnUse" x1="-41.41" y1="194.3606" x2="2.29" y2="194.3606" gradientTransform="matrix(-1 0 0 -1 360 401.2756)">
					<stop  offset="0" style="stop-color:#B2E8FF"/>
					<stop  offset="1" style="stop-color:#4964BB"/>
				</linearGradient>
				
					<path style="opacity:0.5;fill:url(#SVGID_00000052798925569518272480000000665971569277033656_);enable-background:new    ;" d="
					M357.7,211.8l8.2,2.8l1.3-1.5c0,0,8.1,18.6,15.5,27.7c0.9,1.1,1.8,2.1,2.8,3.2c2.1,2.2,4.2,4.3,6.4,6.1l6.3-27.1l3.2-20.6
					c-3.2-4.4-6.4-7.9-7.8-9.4c-0.6-0.6-0.9-0.9-0.9-0.9s1-3.4,1.8-6.3c0-0.1,0-0.1,0-0.2c0,0,0-0.1,0-0.1c0-0.1,0-0.1,0-0.1
					c0.4-1.8,0.7-3.3,0.4-3.7c-0.6-1-4.3-2.1-4.9-2.9c-0.6-0.8-3.3-13.5-5.3-14.9c0,0,1.3,12.2-5.7,27.8l-3.4,4.8l-10,8
					C365.6,204.4,361.8,209.5,357.7,211.8z"/>
				<path class="st30" d="M381.5,233.9c1.8,13.1,21.3,23.2,21.3,23.2c4.4,0,9.2-7.6,13.6-16.9c4.4-9.4,4.7-36.2,4.9-37.9
					c0.2-1.7,2.7-5,2.9-6.4c0.1-1.4-4-4.4-4-4.4l0-0.1l0-0.1c0.4-0.9,2.9-6.1,2.7-7.1c-0.2-1-4.8-3.3-4.8-3.3l-0.3,5.1
					c0,0-10.8-2-14.4-10.4l-0.6-2.6l-1.8,1.2v11c0,0-0.4,1.7-0.9,1.7s-4.8-2.1-5.6-1.8c-0.9,0.3-1.8,6.2-2.9,6.9
					c-1.2,0.8-4.3,2.9-4.8,4c-0.2,0.5-0.2,2.2-0.2,4.1c0,2.4,0,5.3-0.4,6.9C385.5,210.3,379.8,220.8,381.5,233.9z"/>
				
					<linearGradient id="SVGID_00000112598732188700565150000009755862748596956313_" gradientUnits="userSpaceOnUse" x1="101.5301" y1="168.2895" x2="157.8356" y2="168.2895" gradientTransform="matrix(-1 0 0 -1 360 401.2756)">
					<stop  offset="0" style="stop-color:#81AAF1"/>
					<stop  offset="1" style="stop-color:#AEB3F3"/>
				</linearGradient>
				<path style="fill:url(#SVGID_00000112598732188700565150000009755862748596956313_);" d="M202.6,222.7c0.9,1.4,5.3,4.3,6.4,5.4
					c1.1,1.1,0,4.9,0,4.9c18.6,19.7,37.9,29.6,39.9,30.5c0.1,0,0.2,0.1,0.2,0.1c11.7-7.8,10.7-20.8,6.8-31.6
					c-3.7-10.4-10-19-10.3-19.4l0,0c0,0,0,0,0,0c-0.2-0.1-3.5-1.5-5.9-1.6c-0.8-0.1-1.5,0.2-2.2,0.7c-1.4,0.9-2.6,2.3-3.8,1.7
					c-1.7-0.9-5.5-9.9-8.1-10.1c-1.8-0.2-4.3,1.7-6,2.7c-0.7,0.5-1.3,0.8-1.6,0.7c-0.9-0.2-4.2-4.1-4.4-4.2c-0.2-0.1-1.7,1-1.7,1
					l1,1.3c-1.6,9.1-6.8,15.2-6.8,15.2l-3.5-5.1C202.6,214.8,201.7,221.3,202.6,222.7z"/>
				<path class="st32" d="M202.6,222.7c0.9,1.4,5.3,4.3,6.4,5.4c1.1,1.1,0,4.9,0,4.9c18.6,19.7,37.9,29.6,39.9,30.5
					c0.1,0,0.2,0.1,0.2,0.1c1.5,0.2,8.9-1.9,16.3-16.7c6.7-13.4,8.6-22.3,8.9-23.9l0-0.2l-1.6-2.2l-2.4-27.3l-1.7,5.5
					c-6.4-7.8-12.5-19.7-12.5-19.7l-0.3,0.9v0c-1.1,4.3-3.3,20.3-5.4,26c-1.3,3.6-3.4,5.5-4.9,6.6l0,0l0,0
					c5.9,5.4,8.9,13.2,10.3,19.4c1.3,5.7,1.4,10,1.4,10s-1.6-7.7-6.8-17c-1.9-3.4-4.6-6.4-7.3-8.9c-2-1.9-4.1-3.4-5.7-4.6
					c-1.4,0.9-2.6,2.3-3.8,1.7c7.8,11.7,7.6,34.9,0.3,30.5c-7.3-4.4-9-13.8-9-13.8c1.7-11.4,1.2-24.3-0.2-26.8
					c-1.7,0.1-6.5,3.5-6.8,3.4C218.3,220,212,229,212,229l-4.2-6.4c6.1-10.2,5.6-20.2,5.6-20.2c-0.2-0.1-1.7,1-1.7,1l1,1.3
					c-1.6,9.1-6.8,15.2-6.8,15.2l-3.5-5.1C202.6,214.8,201.7,221.3,202.6,222.7z"/>
				<path class="st28" d="M283,306.8v4l0.1,0.1l0.2,0.2l0.2,0.1c1.8,1.4,9.4,6.1,33.3,7.4c28.2,1.5,47.1-7.6,47.1-7.6l-1.4-3.9
					c0,0,1.3-1.1,1.4-1.7c0.1-0.6-1-1.9-1-1.9s2.8-1.5,2.8-3.4c0-1.7-4.6-6.7-5.4-11.3c-0.1-0.5-0.1-1-0.1-1.5
					c0.2-5,4.5-9.4,5.1-12.3c0,0,0,0,0,0c0.6-2.8-7.4-9.9-7.4-9.9c6.8-21.6,8.1-50.6,8.1-50.6l1.3-1.5c0,0,8.1,18.6,15.5,27.7
					c7.4,9.1,18.2,16.9,20.1,16.5c4.4,0,9.2-7.6,13.6-16.9c4.4-9.4,4.7-36.2,4.9-37.9c0.2-1.7,2.7-5,2.9-6.4
					c-4.7,8.1-12.3,5.8-12.3,5.8c5.5,0.1,8.3-10.1,8.3-10.1l0-0.1l0-0.1l2.7-7.1c-0.3,0.3-6.5,7.3-12.6,3c-6.2-4.4-9.4-13-9.4-13v11
					c0,0-0.4,1.7-0.9,1.7c0.4,5.1,1.4,11.2,2.7,17.3c2.8,13.1,6.7,25.8,6.7,25.8s-10.4-5.7-14.1-20.1c-1.8-6.9-2-12.9-1.9-17.2
					c0.1-3.7,0.6-6.3,0.8-7.2c0-0.1,0-0.1,0-0.2c0,0,0-0.1,0-0.1c0,0,0,0,0-0.1l-1,2.1l-1.9,4.8c-2.2,18.5,2.4,46.3,2.4,46.3
					c-6.7-8.3-8.1-26.8-7.8-31.3c0.1-2.1,0.3-4.8,0.4-6.9c0.1-2.4,0.2-4.1,0.2-4.1l-13.7,8.2l2.5-8l-10,8c0,0-9,10.8-18.2,12.1
					c-9.2,1.3-43.1,0.5-43.1,0.5s29.4,1.9,38,4.4s10.2,5.4,10.2,5.4c-6.2,31.6-40.6,42.2-41.6,42.6c31.2-4.7,45.7-31.2,45.7-31.2
					s0.5,14.9-1.9,20.6c-2.4,5.7-16.5,19.6-34.7,22.5c-1.5,0.2-3,0.4-4.5,0.5c-15.3,0.7-28-7.1-29.3-8c-0.1,0-0.1-0.1-0.1-0.1
					s0,0,0,0c0.5,0.8,6.8,9.6,32.2,10.6c1.5,0.1,3,0,4.5,0c0,0,0,0,0,0c23.5-1,35.5-16.7,35.5-16.7s8.7,4.7,3.1,11.6
					c-0.1,0.1-0.1,0.1-0.2,0.2c-1.6,1.9-5.2,4.2-9.5,6.6c-0.1,0.1-0.2,0.1-0.4,0.2c-5.2,2.9-11.2,5.8-15.9,8.2c0,0,0,0-0.1,0
					c-2.9,1.5-5.2,2.8-6.5,3.7c0,0,0,0,0,0c-1.3,1-1.6,1.6-0.3,1.7c6.6,0.8,31.5-4.7,32.5-3.2c1,1.5-1.2,5.4-1.2,5.4
					c-22.8,11.3-71.7,5.7-73.2,5.6c40.9,10.5,74.4-2.8,74.4-2.8l-1.1,3.9c0,0-18.2,6.3-39.7,6.8c-21.5,0.5-34.9-5-34.9-5L283,306.8z
					"/>
				
					<linearGradient id="SVGID_00000063610880259086852860000002189057218451805613_" gradientUnits="userSpaceOnUse" x1="60.305" y1="178.3341" x2="87.323" y2="178.3341" gradientTransform="matrix(-1 0 0 -1 360 401.2756)">
					<stop  offset="0" style="stop-color:#B2FFD5"/>
					<stop  offset="1" style="stop-color:#4964BB"/>
				</linearGradient>
				
					<path style="opacity:0.5;fill:url(#SVGID_00000063610880259086852860000002189057218451805613_);enable-background:new    ;" d="
					M299.7,216.9c0,0-16.3,0.9-27,3.7l5.5,8.4C278.2,229,286.6,221.7,299.7,216.9z"/>
				
					<linearGradient id="SVGID_00000112634684081534743870000006097324963150193855_" gradientUnits="userSpaceOnUse" x1="35.8" y1="130.9171" x2="75.506" y2="130.9171" gradientTransform="matrix(-1 0 0 -1 360 401.2756)">
					<stop  offset="0" style="stop-color:#B2FFD5"/>
					<stop  offset="1" style="stop-color:#4964BB"/>
				</linearGradient>
				
					<path style="opacity:0.5;fill:url(#SVGID_00000112634684081534743870000006097324963150193855_);enable-background:new    ;" d="
					M284.5,261.7c0,0,10.1,8.5,20.1,12.4s19.6,4.3,19.6,4.3s-5.7,1.7-19.9-0.6c-14.1-2.3-18.9-9.9-18.9-9.9L284.5,261.7z"/>
				
					<linearGradient id="SVGID_00000021841472108532761210000015683020245861279108_" gradientUnits="userSpaceOnUse" x1="37.6388" y1="112.9638" x2="80.06" y2="112.9638" gradientTransform="matrix(-1 0 0 -1 360 401.2756)">
					<stop  offset="0" style="stop-color:#B2FFD5"/>
					<stop  offset="1" style="stop-color:#4964BB"/>
				</linearGradient>
				
					<path style="opacity:0.5;fill:url(#SVGID_00000021841472108532761210000015683020245861279108_);enable-background:new    ;" d="
					M279.9,294.3L279.9,294.3c18.8,4.9,42.6-2.1,42.4-2.9s-6.5,0.4-21.2-2.6c-14.2-2.9-19.4-7.9-19.7-8.2c0.1,0.9,2.1,2.8,2.6,4.8
					C284.5,286.8,281.8,291.1,279.9,294.3z"/>
				
					<linearGradient id="SVGID_00000135659610569177060310000015541547277052677273_" gradientUnits="userSpaceOnUse" x1="1.13" y1="157.4156" x2="1.13" y2="205.0256" gradientTransform="matrix(-1 0 0 -1 360 401.2756)">
					<stop  offset="0" style="stop-color:#B2FFD5"/>
					<stop  offset="1" style="stop-color:#4964BB"/>
				</linearGradient>
				
					<path style="opacity:0.5;fill:url(#SVGID_00000135659610569177060310000015541547277052677273_);enable-background:new    ;" d="
					M331,219.4c16,1.6,20.4,6.1,20.4,6.1c4.5,0.6,14.6-11,14.6-11l1.3-1.5c0,0,8.1,18.6,15.5,27.7c0.9,1.1,1.8,2.1,2.8,3.2l-1-2.4
					c0,0-1.7-0.8-2.2-9.9c-0.5-9,3.8-22.5,3.8-24.3s0.7-11.1,0.7-11.1l-13.7,8.2l2.5-8l-10,8c0,0-3.9,5.9-13.8,10.8
					C342.5,219.8,332.1,219.5,331,219.4z"/>
				<path class="st32" d="M367.3,213l-9.6-1.2c0,0-3.8,2.5-11.5,5.7l6.4,9.4c0,0-2.5,13.4-9.8,21c0,0,19.3-10.7,22-19.8L367.3,213z"
					/>
				
					<linearGradient id="SVGID_00000101816329722913473790000014881301225991396235_" gradientUnits="userSpaceOnUse" x1="-52.075" y1="199.5483" x2="-52.075" y2="226.8156" gradientTransform="matrix(-1 0 0 -1 360 401.2756)">
					<stop  offset="0" style="stop-color:#B2FFD5"/>
					<stop  offset="1" style="stop-color:#4964BB"/>
				</linearGradient>
				
					<path style="opacity:0.5;fill:url(#SVGID_00000101816329722913473790000014881301225991396235_);enable-background:new    ;" d="
					M423.1,184.4l-2.7,7.2c0,0-2.8,9.7-8.3,10.1s-10.9-16.3-10.9-16.3v-11c0,0,5.9,12.6,12.2,14
					C419.7,189.9,423.1,184.4,423.1,184.4z"/>
				
					<linearGradient id="SVGID_00000151525331582929199330000007124050219739679109_" gradientUnits="userSpaceOnUse" x1="-30.01" y1="223.5596" x2="-19.021" y2="223.5596" gradientTransform="matrix(-1 0 0 -1 360 401.2756)">
					<stop  offset="0" style="stop-color:#B2FFD5"/>
					<stop  offset="1" style="stop-color:#4964BB"/>
				</linearGradient>
				
					<path style="opacity:0.5;fill:url(#SVGID_00000151525331582929199330000007124050219739679109_);enable-background:new    ;" d="
					M390,178.7c0,0-4.9,9.8-11,12.9c0,0,7.2-17.5,5.7-27.8C384.7,163.8,387.4,165.5,390,178.7z"/>
				
					<linearGradient id="SVGID_00000168813193561514146070000002527549273248970667_" gradientUnits="userSpaceOnUse" x1="89.4475" y1="157.4156" x2="89.4475" y2="207.9556" gradientTransform="matrix(-1 0 0 -1 360 401.2756)">
					<stop  offset="0" style="stop-color:#B2E8FF"/>
					<stop  offset="1" style="stop-color:#4964BB"/>
				</linearGradient>
				
					<path style="opacity:0.76;fill:url(#SVGID_00000168813193561514146070000002527549273248970667_);enable-background:new    ;" d="
					M270.3,193.3l-1.7,5.5l-1.7,45.1c0,0,4.4-8.6,7.4-20.8l-1.6-2.4C272.7,220.6,270,203.6,270.3,193.3z"/>
				
					<linearGradient id="SVGID_00000039830120358366257670000007070397605392471468_" gradientUnits="userSpaceOnUse" x1="146.268" y1="168.2856" x2="146.268" y2="194.6956" gradientTransform="matrix(-1 0 0 -1 360 401.2756)">
					<stop  offset="0" style="stop-color:#B2E8FF"/>
					<stop  offset="1" style="stop-color:#4964BB"/>
				</linearGradient>
				
					<path style="opacity:0.5;fill:url(#SVGID_00000039830120358366257670000007070397605392471468_);enable-background:new    ;" d="
					M217.9,206.6c0,0,1,22.1-8.4,24L209,233C209,233,221.2,232.5,217.9,206.6z"/>
				
					<linearGradient id="SVGID_00000023245831740700763700000000455794137699264897_" gradientUnits="userSpaceOnUse" x1="116.316" y1="169.4656" x2="116.316" y2="189.6556" gradientTransform="matrix(-1 0 0 -1 360 401.2756)">
					<stop  offset="0" style="stop-color:#B2E8FF"/>
					<stop  offset="1" style="stop-color:#4964BB"/>
				</linearGradient>
				
					<path style="opacity:0.3;fill:url(#SVGID_00000023245831740700763700000000455794137699264897_);enable-background:new    ;" d="
					M233.6,213.3c0,0,0.4,0.8,3.8-1.7c0,0,11.8,8.4,16.4,20.2c0,0-7.3-10.9-11.2-12s-4.8,3.2-4.8,3.2S236.2,216.8,233.6,213.3z"/>
				
					<linearGradient id="SVGID_00000110466237706389008050000003915591177393110163_" gradientUnits="userSpaceOnUse" x1="-57.7828" y1="197.808" x2="-57.7828" y2="205.3056" gradientTransform="matrix(-1 0 0 -1 360 401.2756)">
					<stop  offset="0" style="stop-color:#B2FFD5"/>
					<stop  offset="1" style="stop-color:#4964BB"/>
				</linearGradient>
				
					<path style="opacity:0.5;fill:url(#SVGID_00000110466237706389008050000003915591177393110163_);enable-background:new    ;" d="
					M424.3,196c0,0-4.6,8.4-13.1,5.8c0,0,5.1,3.4,10.2,0.6C421.5,202.4,424.6,196.9,424.3,196z"/>
				
					<linearGradient id="SVGID_00000000916646567511337440000011197009286269483936_" gradientUnits="userSpaceOnUse" x1="-37.7538" y1="174.9486" x2="-37.7538" y2="215.9256" gradientTransform="matrix(-1 0 0 -1 360 401.2756)">
					<stop  offset="0" style="stop-color:#B2E8FF"/>
					<stop  offset="1" style="stop-color:#4964BB"/>
				</linearGradient>
				
					<path style="opacity:0.5;fill:url(#SVGID_00000000916646567511337440000011197009286269483936_);enable-background:new    ;" d="
					M394.5,185.4c0,0-6.3,23.4,10.1,41c0,0-10.6-5.4-13-18C389.2,195.7,394.5,185.4,394.5,185.4z"/>
				
					<linearGradient id="SVGID_00000047745545001437530680000015221938623405847480_" gradientUnits="userSpaceOnUse" x1="67.6698" y1="203.7916" x2="67.6698" y2="234.6276" gradientTransform="matrix(-1 0 0 -1 360 401.2756)">
					<stop  offset="0" style="stop-color:#B2FFD5"/>
					<stop  offset="1" style="stop-color:#4964BB"/>
				</linearGradient>
				
					<path style="opacity:0.5;fill:url(#SVGID_00000047745545001437530680000015221938623405847480_);enable-background:new    ;" d="
					M282.4,166.6c0,0,0.7,10.6,5.8,18.1c5.1,7.6,15.1,12.7,15.1,12.7s-12.6-4.6-18.4-11.2C279.1,179.8,282.4,166.6,282.4,166.6z"/>
				
					<linearGradient id="SVGID_00000015345498544658640140000007967480168955408054_" gradientUnits="userSpaceOnUse" x1="27.2721" y1="207.9606" x2="27.2721" y2="250.5196" gradientTransform="matrix(-1 0 0 -1 360 401.2756)">
					<stop  offset="0" style="stop-color:#B2FFD5"/>
					<stop  offset="1" style="stop-color:#4964BB"/>
				</linearGradient>
				
					<path style="opacity:0.5;fill:url(#SVGID_00000015345498544658640140000007967480168955408054_);enable-background:new    ;" d="
					M346.8,150.8c0,0,0,8.8-2.8,17.8c-2.8,9-27.5,24.7-27.5,24.7s25.4-10.6,30.4-20.1C351.7,163.8,346.8,150.8,346.8,150.8z"/>
				
					<linearGradient id="SVGID_00000047025656575845052650000004689951488188833961_" gradientUnits="userSpaceOnUse" x1="19.03" y1="241.1956" x2="65.29" y2="241.1956" gradientTransform="matrix(-1 0 0 -1 360 401.2756)">
					<stop  offset="0" style="stop-color:#B2E8FF"/>
					<stop  offset="1" style="stop-color:#4964BB"/>
				</linearGradient>
				
					<path style="opacity:0.5;fill:url(#SVGID_00000047025656575845052650000004689951488188833961_);enable-background:new    ;" d="
					M294.7,152.7c0.8,9.3,3.6,15.8,6.6,20.1c4.2,6,8.7,8.1,8.7,8.1c4.5-2,8.4-4.4,11.8-7.1c14.3-11.4,18.9-27.2,19.2-28.5
					c-6,14.5-14.9,23.4-21.6,28.3c-5.4,4-9.4,5.5-9.4,5.5v-4.6c1.1-0.4,2.1-0.9,3.1-1.4c11.8-5.9,18-18.4,20.9-26.4c0,0,0,0,0-0.1
					c1.6-4.3,2.2-7.4,2.2-7.4h-2.1l0.7,1.5l0,0.1c-0.3,1.5-0.7,3-1.2,4.4c0,0,0,0.1,0,0.1c-6.6,20.8-23.6,27.5-23.6,27.5
					c-11.8-8.7-11.6-22.5-11.6-22.5v-1.9l-2.2,0.7L294.7,152.7z"/>
				
					<linearGradient id="SVGID_00000003105021409784648060000013268553418904673692_" gradientUnits="userSpaceOnUse" x1="137.9518" y1="171.2976" x2="137.9518" y2="198.0686" gradientTransform="matrix(-1 0 0 -1 360 401.2756)">
					<stop  offset="0" style="stop-color:#B2E8FF"/>
					<stop  offset="1" style="stop-color:#4964BB"/>
				</linearGradient>
				
					<path style="opacity:0.3;fill:url(#SVGID_00000003105021409784648060000013268553418904673692_);enable-background:new    ;" d="
					M224.7,203.2c0,0,3.2,10.5,0.2,26.8c0,0-1.5-20.7-2.7-22.5s-4.3-0.9-4.3-0.9S222.9,203.8,224.7,203.2z"/>
				<path class="st28" d="M255.8,260.2c2.8-2.5,6.2-6.5,9.5-13.2c6.7-13.4,8.6-22.3,8.9-23.9l-1.6-2.4l-2.1-20.6l-2-1.2
					c0,0-7.1-7.9-12.5-19.7c-0.1,0.2-0.2,0.5-0.3,0.9v0c-1.1,4.3-3.3,20.3-5.4,26c-1.3,3.6-3.4,5.5-4.9,6.6c0,0,12.3,18.3,12.9,31.3
					C259,255.7,256.3,259.6,255.8,260.2z"/>
				
					<linearGradient id="SVGID_00000000909514052988831060000005334694685867514044_" gradientUnits="userSpaceOnUse" x1="12.95" y1="103.0156" x2="12.95" y2="126.2556" gradientTransform="matrix(-1 0 0 -1 360 401.2756)">
					<stop  offset="0" style="stop-color:#B2E8FF"/>
					<stop  offset="1" style="stop-color:#4964BB"/>
				</linearGradient>
				
					<path style="opacity:0.5;fill:url(#SVGID_00000000909514052988831060000005334694685867514044_);enable-background:new    ;" d="
					M328.9,298.3c0,0,22.2-3.6,31.2-9.5c0,0,0,0,0,0c-0.1-0.5-0.1-1-0.1-1.5c0.2-5,4.5-9.4,5.1-12.3c-0.1,0.3-0.8,1.8-3.9,4.5
					c-2,1.7-5,3.9-9.5,6.6c-0.1,0.1-0.2,0.1-0.4,0.2c-6.4,3.8-11.9,6.3-15.9,8.2c0,0,0,0-0.1,0C331.9,296.2,329.6,297.3,328.9,298.3
					C328.9,298.2,328.9,298.3,328.9,298.3z"/>
				
					<linearGradient id="SVGID_00000078739344031361237910000009697366083757341081_" gradientUnits="userSpaceOnUse" x1="58.095" y1="109.3995" x2="58.095" y2="120.6856" gradientTransform="matrix(-1 0 0 -1 360 401.2756)">
					<stop  offset="0" style="stop-color:#B2E8FF"/>
					<stop  offset="1" style="stop-color:#4964BB"/>
				</linearGradient>
				
					<path style="opacity:0.5;fill:url(#SVGID_00000078739344031361237910000009697366083757341081_);enable-background:new    ;" d="
					M281.5,280.6c0.1,0.9,2.1,2.8,2.6,4.8c0,0,8.1,8.6,38.3,6c-0.2-0.9-6.5,0.4-21.2-2.6C286.9,286,281.8,280.9,281.5,280.6z"/>
			</g>
			<g>
				
					<linearGradient id="SVGID_00000010270740413904425980000017156294275415619214_" gradientUnits="userSpaceOnUse" x1="57.5975" y1="254.4637" x2="57.5975" y2="331.6707" gradientTransform="matrix(-1 0 0 -1 360 401.2756)">
					<stop  offset="1.600000e-02" style="stop-color:#FFC2A9"/>
					<stop  offset="1" style="stop-color:#FF9595"/>
				</linearGradient>
				<path style="fill:url(#SVGID_00000010270740413904425980000017156294275415619214_);" d="M291.1,146.4c0,0,9,2,18.9-2.8
					s18.2-18.9,18.8-22.5c0.5-3.5-3.8-12.8-3.8-20s3.5-19.6-2.4-26.3c-5.9-6.7-33.2-7.7-42.1,0.9c0,0-2.7,6.9-2.7,10.8
					c0,0.9,0.2,2.3,0.4,3.9c0.1,0.6,0.2,1.2,0.3,1.9c0.8,4.7,1.9,10.5,1.4,13c-0.2,0.9-0.5,1.7-0.8,2.5v0c-1.1,2.5-2.7,4.5-3,6.7
					C275.7,117.3,279.5,137.6,291.1,146.4z"/>
				
					<linearGradient id="SVGID_00000029754919163569811450000006902825285855312310_" gradientUnits="userSpaceOnUse" x1="28.8158" y1="285.6178" x2="28.8158" y2="308.3806" gradientTransform="matrix(-1 0 0 -1 360 401.2756)">
					<stop  offset="1.600000e-02" style="stop-color:#FFC2A9"/>
					<stop  offset="1" style="stop-color:#FF9595"/>
				</linearGradient>
				<path style="fill:url(#SVGID_00000029754919163569811450000006902825285855312310_);" d="M325,99.1c0,0,2.5-6.1,8.6-6.2
					c0,0,3.6,1.4,4.2,4.2c0,0-1.3,9.9-2.8,14.6c-1.5,4.6-7.1,4-7.1,4S323.1,108.2,325,99.1z"/>
				
					<linearGradient id="SVGID_00000154402494569659289460000010062191689899217309_" gradientUnits="userSpaceOnUse" x1="68.3295" y1="277.0101" x2="69.284" y2="281.9795" gradientTransform="matrix(-1 0 0 -1 360 401.2756)">
					<stop  offset="0" style="stop-color:#E1616A"/>
					<stop  offset="1" style="stop-color:#FF8883"/>
				</linearGradient>
				<path style="fill:url(#SVGID_00000154402494569659289460000010062191689899217309_);" d="M301.4,119.4c0,0-2.1-0.2-2.9,0.5
					s-4.1,3.8-8.2,4.6c-4.1,0.9-6.8-2.6-7.7-2.8c-0.9-0.2-1.8,1.1-1.8,1.1s0.4-1.4,2.5-2.1c0,0,0.9,3.3,6.8,2.1s8.4-3.7,8.4-3.7
					l0.3-0.5C298.7,118.6,300.4,118.9,301.4,119.4z"/>
				
					<linearGradient id="SVGID_00000087391861998823354930000018024138526967058840_" gradientUnits="userSpaceOnUse" x1="59.714" y1="280.8126" x2="59.714" y2="330.5496" gradientTransform="matrix(-1 0 0 -1 360 401.2756)">
					<stop  offset="0" style="stop-color:#FFEADB"/>
					<stop  offset="0.9944" style="stop-color:#C27CB6"/>
				</linearGradient>
				
					<path style="opacity:0.6;fill:url(#SVGID_00000087391861998823354930000018024138526967058840_);enable-background:new    ;" d="
					M310.1,88.8l-0.1-0.6c0,0-5.9-10.3-17.5-10.6c-11.7-0.3-14.3,7-14.3,7l-2.2-3.3l4.9-10l34.2-0.6l8.3,6.7l1.1,16.5l-3.7,21.7
					l-9,4.8l-2.5-2.3c0.9-7.3,6.4-13.9,6.4-13.9l-3.9-2.7c0,0-10.1,4.9-16,3.4c0,0-4.4-12.9-4.2-22.4
					C291.5,82.6,306.6,84.8,310.1,88.8z"/>
				
					<linearGradient id="SVGID_00000042715526768023624880000008590073605413006491_" gradientUnits="userSpaceOnUse" x1="49.399" y1="315.8491" x2="68.938" y2="315.8491" gradientTransform="matrix(-1 0 0 -1 360 401.2756)">
					<stop  offset="5.600000e-03" style="stop-color:#651D4F"/>
					<stop  offset="1" style="stop-color:#93364F"/>
				</linearGradient>
				<path style="fill:url(#SVGID_00000042715526768023624880000008590073605413006491_);" d="M310.6,89.6c0,0-0.6-3.7-6.9-5.2
					c-7-1.7-12.7-3.1-12.7-3.1s1.2,4.1,3.6,5.6c0,0,7.4-0.3,11.2,0.6C309.5,88.3,310.6,89.6,310.6,89.6z"/>
				
					<linearGradient id="SVGID_00000178923660287662374580000016329106096240009630_" gradientUnits="userSpaceOnUse" x1="75.858" y1="312.0721" x2="82.2787" y2="312.0721" gradientTransform="matrix(-1 0 0 -1 360 401.2756)">
					<stop  offset="5.600000e-03" style="stop-color:#651D4F"/>
					<stop  offset="1" style="stop-color:#93364F"/>
				</linearGradient>
				<path style="fill:url(#SVGID_00000178923660287662374580000016329106096240009630_);" d="M278.2,84.6c0,0,3.6,2.7,6,9.3
					c0,0-2.3-3-4.5-3c-1.5,0-1.2,1.5-1.2,1.5S277,88.4,278.2,84.6z"/>
				
					<linearGradient id="SVGID_00000010275893251965278580000001234842195158290324_" gradientUnits="userSpaceOnUse" x1="57.2895" y1="301.1806" x2="57.2895" y2="311.0336" gradientTransform="matrix(-1 0 0 -1 360 401.2756)">
					<stop  offset="0" style="stop-color:#CF6074"/>
					<stop  offset="1" style="stop-color:#F37270"/>
				</linearGradient>
				<path style="fill:url(#SVGID_00000010275893251965278580000001234842195158290324_);" d="M308.3,100.1c0,0-0.4-7.9-8.1-9.9
					c0,0-2.7,3.6-3,7.6C297.2,97.8,301.2,97.1,308.3,100.1z"/>
				
					<linearGradient id="SVGID_00000173843034658024148670000002164130740895660180_" gradientUnits="userSpaceOnUse" x1="76.9413" y1="298.0546" x2="76.9413" y2="306.6286" gradientTransform="matrix(-1 0 0 -1 360 401.2756)">
					<stop  offset="0" style="stop-color:#CF6074"/>
					<stop  offset="1" style="stop-color:#FF817F"/>
				</linearGradient>
				<path style="fill:url(#SVGID_00000173843034658024148670000002164130740895660180_);" d="M286.3,103.2c0,0-0.6-6.3-4.2-8.6
					c0,0-2.5,1.8-2.2,7.1C279.9,101.7,282,100.9,286.3,103.2z"/>
				<path class="st58" d="M308.3,100.1c0,0-2.5,3.1-9.5,3.7c0,0-1.3-2-1.2-6C297.6,97.8,304,97.2,308.3,100.1z"/>
				<path class="st58" d="M286.3,103.2v0.9c0,0-1.1,2.2-4.9,2.6c0,0-1.2-1.9-1.3-5.1C280,101.7,282.5,101.1,286.3,103.2z"/>
				<path class="st59" d="M300.8,97.6c0,0,1.8,2.2,1.6,5.5c0,0-2.3,0.5-3.6,0.6c0,0-1.5-2.1-1.2-6C297.6,97.8,299.6,97.3,300.8,97.6
					z"/>
				<path class="st59" d="M282.6,101.8c0,0,1,1.1,1.2,4.4c0,0-1.4,0.6-2.5,0.6c0,0-1.4-2-1.3-5.1C280,101.7,281,101.3,282.6,101.8z"
					/>
				<path class="st60" d="M301.4,103.4c0,0,0.6-4.2-1.8-5.9l-2,0.3c0,0-0.7,3.4,1.2,6C298.8,103.8,300.8,103.5,301.4,103.4z"/>
				<path class="st60" d="M281.7,101.6c0,0,0.9,1.9,1.3,4.8c0,0-0.7,0.3-1.7,0.3c0,0-1.4-1.7-1.3-5.1
					C280,101.7,281,101.4,281.7,101.6z"/>
				<path class="st61" d="M308.3,100.1c0,0-4.6-2.7-12.6-1.2l1.5-1.1C297.2,97.8,302.8,96.1,308.3,100.1z"/>
				<path class="st61" d="M286.3,103.2c0,0-3.7-2-8.1-0.9l1.8-1.3C280,101,282.9,100.5,286.3,103.2z"/>
				<path class="st11" d="M303.2,100.1c0,0-1.3-0.3-2.4,0.9C300.8,101,302.4,101.4,303.2,100.1z"/>
				<path class="st11" d="M284.6,103.8c0,0-2-0.4-2.7,0.5C281.9,104.3,283,105,284.6,103.8z"/>
				<path class="st62" d="M307.8,100.6c0,0-3.6,3.6-9.4,4.4l-0.1-2.1l0.5,0.9C298.8,103.8,304.3,103.4,307.8,100.6z"/>
				<path class="st62" d="M286.3,104.1c0,0-0.6,2.3-5.3,3.3l0.2-1.1l0.3,0.4C281.3,106.8,284.7,106.3,286.3,104.1z"/>
				<path class="st63" d="M295.7,113.4c0,0-1.8-0.4-5,0s-6.8,1.3-8.8,0c0,0,2.6,2.6,4.9,3c2.3,0.4,5.7-1.6,5.7-1.6l1.5,0
					C294.1,114.8,295.2,114.2,295.7,113.4z"/>
				<path class="st64" d="M293.9,114.8c0,0-0.8-0.5-1.5-0.4c-0.7,0.1-1.3,1.1-1.3,1.1S292.5,114.8,293.9,114.8z"/>
				<path class="st25" d="M281.9,113.4c-0.8-0.8,3.5-8.6,5.6-8.9c2.1-0.3,4,8.7,4,8.7s-2.9,0.4-5.7,0.8
					C283,114.3,281.9,113.4,281.9,113.4z"/>
				
					<linearGradient id="SVGID_00000096774974495714753290000017066799938813615021_" gradientUnits="userSpaceOnUse" x1="77.7484" y1="293.0656" x2="77.7484" y2="312.3588" gradientTransform="matrix(-1 0 0 -1 360 401.2756)">
					<stop  offset="0" style="stop-color:#FFEADB"/>
					<stop  offset="0.9944" style="stop-color:#C27CB6"/>
				</linearGradient>
				
					<path style="opacity:0.6;fill:url(#SVGID_00000096774974495714753290000017066799938813615021_);enable-background:new    ;" d="
					M278.8,88.9c1.2-0.2,5.4,4.9,5.4,4.9s2.6,8.2,2.1,10.6c-0.5,2.4-7,3.7-7,3.7l-0.3-0.4v0c0.3-0.8,0.6-1.6,0.8-2.5
					c0.5-2.5-0.6-8.3-1.4-13c0,0-0.3-1-0.3-1.9C278.1,89.7,278.2,89,278.8,88.9z"/>
				
					<linearGradient id="SVGID_00000093867844347242974700000008702593570742128306_" gradientUnits="userSpaceOnUse" x1="58.6336" y1="253.4927" x2="58.6336" y2="347.1256" gradientTransform="matrix(-1 0 0 -1 360 401.2756)">
					<stop  offset="5.600000e-03" style="stop-color:#651D4F"/>
					<stop  offset="1" style="stop-color:#93364F"/>
				</linearGradient>
				<path style="fill:url(#SVGID_00000093867844347242974700000008702593570742128306_);" d="M276.7,120.1
					c0.1,0.9,3.4,21.2,12.7,27.3c0,0,0,0,0,0s8.5,2.1,21.4-2.7c0,0,14.5-8.3,18-22.2c0,0,0.8-3.3-0.9-6.8c0,0-2.4-1-3.5-7.4
					c-1.2-7.1,2.5-12,2.5-12s-0.5-3.8,0.6-8.2c1.1-4.4,3.3-8.6,2.3-11.7c-1-3.1-8.9-5.1-12.5-8c-0.6-0.5-1.1-1-1.6-1.5c0,0,0,0,0,0
					c0,0,0,0-0.1-0.1c-0.5-0.5-0.9-1-1.2-1.5l-0.4-0.5l-0.4-0.4c-1.1-1.2-2.4-2.4-5.1-3.7c-5.5-2.5-9.4-2.9-13.3-6.5c0,0,0,0,0,0
					s-0.2,3.6,1.1,6.7c0,0-12.1-2.7-15-2.7s-3.8,9.1-3.8,9.1l0,0c-0.2,0.3-3.6,4.8-4.8,8c-0.7,1.7,5.2,13.6,5.2,13.6
					s-0.7-5.7,2.9-10.9l1.3,1.2c0,0,0-0.1,0.2-0.3c0.5-1,2.5-4.2,5.9-5.1c0,0,0,0.7,10.7-0.5c10.7-1.1,15.1-1.7,17.6,0.8
					c2.6,2.5,1.6,8.2-0.8,10.2c0,0,6.5,6.9,6.4,16.7c-0.2,9.4-7.3,16.4-10.3,17.5c-0.1,0.1-0.2,0.1-0.3,0.1
					c-2.8,0.8-4.2-4.2-20.5-2.1c-11.5,1.5-10.7,3-12.1,5.7C278.6,123,276.9,120.3,276.7,120.1z M280,126.2c-0.1-4.3,3-5.7,3.5-5.4
					c0.6,0.2,2.3,1.1,7,0.8c4.7-0.3,7.9-3,7.9-3s6.1,0.6,7.9,5.6c1.8,4.9-6.3,8.2-7.9,8.1c-1.5-0.1-5.3-4.4-5.3-4.4
					s-4.1-0.3-4.9,0.4c-0.8,0.8-1.2,6.5-3.5,6.9C282.5,135.5,280,129.2,280,126.2z"/>
				<path class="st67" d="M285.3,106.2c0,0-4.1,5.1-3.7,7c0.4,2.1,5.2,3.2,5.2,3.2s-3.8-1.3-4.6-3.2
					C282.2,113.2,283.2,109.3,285.3,106.2z"/>
				
					<linearGradient id="SVGID_00000172422472920114532050000007870678767258980769_" gradientUnits="userSpaceOnUse" x1="83.2267" y1="312.4556" x2="83.2267" y2="334.0556" gradientTransform="matrix(-1 0 0 -1 360 401.2756)">
					<stop  offset="0" style="stop-color:#FFEADB"/>
					<stop  offset="0.9944" style="stop-color:#8860C7"/>
				</linearGradient>
				
					<path style="opacity:0.6;fill:url(#SVGID_00000172422472920114532050000007870678767258980769_);enable-background:new    ;" d="
					M277.9,88.8c0,0-0.7-5.7,2.9-10.9c-2.9-5.2-3.3-10.7-3.3-10.7l0,0c-1,2.4-1.5,7.1-1.5,7.1l-3.3,0.9
					C272.1,76.9,277.9,88.8,277.9,88.8z"/>
				
					<linearGradient id="SVGID_00000183957108395018245810000005852978234927976345_" gradientUnits="userSpaceOnUse" x1="53.792" y1="253.4928" x2="53.792" y2="347.1256" gradientTransform="matrix(-1 0 0 -1 360 401.2756)">
					<stop  offset="0" style="stop-color:#CCC2DB"/>
					<stop  offset="0.9944" style="stop-color:#8860C7"/>
				</linearGradient>
				
					<path style="opacity:0.6;fill:url(#SVGID_00000183957108395018245810000005852978234927976345_);enable-background:new    ;" d="
					M282.4,78.8c0.5-1,2.5-4.2,5.9-5.1c0,0,0,0.7,10.7-0.5c10.7-1.1,15.1-1.7,17.6,0.8c2.6,2.5,1.6,8.2-0.8,10.2
					c0,0,6.5,6.9,6.4,16.7c-0.2,9.4-7.3,16.4-10.3,17.5l0.1,1c0,0-0.5,21.5-5.8,23.2c-5.2,1.7-16.1,0.8-17.1,1.8
					c-1,1,0.1,2.6,0.2,2.8c0,0,0,0,0,0s8.5,2.1,21.4-2.7c0,0,14.5-8.3,18-22.2c0,0,0.8-3.3-0.9-6.8c0,0-2.4-1-3.5-7.4
					c-1.2-7.1,2.5-12,2.5-12s-0.5-3.8,0.6-8.2c1.1-4.4,3.3-8.6,2.3-11.7c-6.1,0.9-10-2.2-10-2.2s-1.1-1.5-5.8-2.2S290.5,73,290.5,73
					s1.9-1.6,5.9-2.6c3.8-1,16.6,0.2,18,0.3c-1.5-0.3-16-2.8-17.7-2.3c-1.8,0.5-8.1,3.4-8.1,3.4c0.6-2.9,6.2-9.8,6.2-9.8
					s8,0.1,13.2,1.2c4.6,1,7.2,3.1,7.7,3.5l-1.2-1.5l-0.4-0.5l-0.4-0.4l-1.8-0.3l-9.1-3.7c-3.1-1.6-7-5.7-7.5-6.2c0,0,0,0,0,0
					s-0.2,3.6,1.1,6.7c-7.7-1-10.3-0.5-10.3-0.5C282.5,65.4,282.4,78.8,282.4,78.8z"/>
				
					<linearGradient id="SVGID_00000036966483911743705000000007060912446067965841_" gradientUnits="userSpaceOnUse" x1="60.0705" y1="253.5148" x2="60.0705" y2="257.5378" gradientTransform="matrix(-1 0 0 -1 360 401.2756)">
					<stop  offset="0" style="stop-color:#776D7E"/>
					<stop  offset="1" style="stop-color:#9D68C2"/>
				</linearGradient>
				
					<path style="opacity:0.5;fill:url(#SVGID_00000036966483911743705000000007060912446067965841_);enable-background:new    ;" d="
					M310.8,144.6c0,0-4.7-1.1-11.9-0.8s-11.2,0.3-9.5,3.5C289.5,147.3,298.4,149.4,310.8,144.6z"/>
				<path class="st71" d="M286,60.4c0,0-4.3-1.7-6.1-1.4c0,0,0.7-0.9,1.4-1.1c0.7-0.2,15,3,15,3S287.4,59.8,286,60.4z"/>
				<path class="st71" d="M294.8,62c0,0,0.3,4.7,1.9,6.4l17.7,2.3l5.2-0.9c0,0-2-0.9-4.2-3.4C313.1,63.8,301.6,61.3,294.8,62z"/>
				<path class="st71" d="M277.6,67.2c0,0-1.4,4.7-1.5,7.1l-3.3,0.9C272.7,75.2,273.7,71.7,277.6,67.2z"/>
				
					<linearGradient id="SVGID_00000025428846054470451730000005553944317217420946_" gradientUnits="userSpaceOnUse" x1="32.1299" y1="291.0143" x2="21.9348" y2="303.5045" gradientTransform="matrix(-1 0 0 -1 360 401.2756)">
					<stop  offset="0" style="stop-color:#FFEADB"/>
					<stop  offset="0.9944" style="stop-color:#B060F4"/>
				</linearGradient>
				
					<path style="opacity:0.8;fill:url(#SVGID_00000025428846054470451730000005553944317217420946_);enable-background:new    ;" d="
					M325.8,107.5c0,0,1.2-6,4.3-8.9c3-3,6.5-2,6.5-2s-0.9,11.1-1.9,13.8s-2.5,3.4-2.5,3.4s2.1-1.9,2.4-5.5s0.4-8.8-0.4-9.4
					c-0.8-0.6-4.1,1.8-4.1,1.8s1,1.3,1.6,4.5s-1.7,5.6-2.5,5.6s0-3.8-0.1-4.8S327.1,105,325.8,107.5z"/>
				
					<linearGradient id="SVGID_00000115488983289170535720000004366163978005722545_" gradientUnits="userSpaceOnUse" x1="33.198" y1="292.6227" x2="28.1816" y2="298.7683" gradientTransform="matrix(-1 0 0 -1 360 401.2756)">
					<stop  offset="0" style="stop-color:#FFEADB"/>
					<stop  offset="0.9944" style="stop-color:#B060F4"/>
				</linearGradient>
				
					<path style="opacity:0.8;fill:url(#SVGID_00000115488983289170535720000004366163978005722545_);enable-background:new    ;" d="
					M328.8,100.1c0,0,3.3,2.2,3,6.7c-0.4,4.5-2.9,4.3-2.9,3.3c0-0.9,0.5-3.4,0.2-4.7c-0.3-1.4-2.5-0.8-2.5-0.8
					S328.1,101,328.8,100.1z"/>
				<path class="st71" d="M307.8,70.2c0,0-5,1.7-10.6,2.2s-6.7,0.6-6.7,0.6s2.2-2.2,7-2.8C302.2,69.6,307.8,70.2,307.8,70.2z"/>
				
					<linearGradient id="SVGID_00000060743977701119087800000012369994434672043956_" gradientUnits="userSpaceOnUse" x1="76.598" y1="278.1367" x2="81.835" y2="278.1367" gradientTransform="matrix(-1 0 0 -1 360 401.2756)">
					<stop  offset="5.600000e-03" style="stop-color:#651D4F"/>
					<stop  offset="1" style="stop-color:#C46376"/>
				</linearGradient>
				<path style="fill:url(#SVGID_00000060743977701119087800000012369994434672043956_);" d="M283.4,120.5c0,0-2.4,0-3.4,3
					c-0.8,2.4-1,4.5-1,4.5l-0.9-3.3c0,0,1.1-4.2,2.3-5.2c0.8-0.7,2.3-1.4,3-1.2L283.4,120.5z"/>
				
					<linearGradient id="SVGID_00000052097990675887968530000005877375988741689020_" gradientUnits="userSpaceOnUse" x1="70.132" y1="282.0307" x2="75.781" y2="282.0307" gradientTransform="matrix(-1 0 0 -1 360 401.2756)">
					<stop  offset="5.600000e-03" style="stop-color:#651D4F"/>
					<stop  offset="1" style="stop-color:#C46376"/>
				</linearGradient>
				<path style="fill:url(#SVGID_00000052097990675887968530000005877375988741689020_);" d="M289.9,117.4l-0.4,3.6
					c0,0-2.9,0.2-4.9-0.6l-0.3-2.2C284.2,118.3,288,117.3,289.9,117.4z"/>
			</g>
		</g>
	</g>
	<g>
		<g>
			<path class="st76" d="M248.3,134.6l-3.2,91.8c-0.1,3.6-3.1,6.5-6.8,6.5H80.2c-3.7,0-6.7-2.9-6.8-6.6l-2.2-92.9
				c-0.1-3.8,3-6.9,6.8-6.9l163.6,1.1C245.4,127.6,248.5,130.8,248.3,134.6z"/>
			<g>
				<path class="st77" d="M73.2,226.3L71,133.5c0-1.9,0.7-3.7,2-5.1c1.3-1.4,3.1-2.1,5-2.1l163.6,1.1c1.9,0,3.7,0.8,5,2.2
					c1.3,1.4,2,3.2,1.9,5.1l-3.2,91.8c-0.1,3.8-3.2,6.8-7,6.8H80.2C76.4,233.2,73.3,230.2,73.2,226.3z M73.4,128.7
					c-1.2,1.3-1.9,2.9-1.9,4.7l2.2,92.9c0.1,3.5,3,6.4,6.5,6.4h158.1c3.5,0,6.4-2.8,6.5-6.3l3.2-91.8c0.1-1.8-0.6-3.5-1.8-4.7
					s-2.9-2-4.7-2l-163.6-1.1c0,0,0,0,0,0C76.3,126.8,74.6,127.5,73.4,128.7z"/>
			</g>
			<path class="st78" d="M248.1,139.3H71.4l-0.3-4.8c-0.3-4.3,3.2-7.9,7.5-7.8l163.5,1.3c3.4,0,6.1,2.8,6.1,6.2L248.1,139.3z"/>
			
				<linearGradient id="SVGID_00000022527983629095664030000009091049700985745296_" gradientUnits="userSpaceOnUse" x1="147.814" y1="201.4556" x2="147.814" y2="254.8586" gradientTransform="matrix(-1 0 0 -1 360 401.2756)">
				<stop  offset="0" style="stop-color:#CCEDFF"/>
				<stop  offset="1" style="stop-color:#9D68C2"/>
			</linearGradient>
			
				<polygon style="opacity:0.3;fill:url(#SVGID_00000022527983629095664030000009091049700985745296_);enable-background:new    ;" points="
				239.2,146.7 239.2,199.8 185.1,199.8 185.1,146.4 			"/>
			
				<linearGradient id="SVGID_00000016049946751736394800000003636462498816940164_" gradientUnits="userSpaceOnUse" x1="238.8725" y1="227.4926" x2="238.8725" y2="251.0146" gradientTransform="matrix(-1 0 0 -1 360 401.2756)">
				<stop  offset="0" style="stop-color:#CCEDFF"/>
				<stop  offset="1" style="stop-color:#9D68C2"/>
			</linearGradient>
			
				<polygon style="opacity:0.3;fill:url(#SVGID_00000016049946751736394800000003636462498816940164_);enable-background:new    ;" points="
				109.4,173.8 132.9,173.8 132.9,150.3 109.4,150.3 			"/>
			
				<linearGradient id="SVGID_00000011019919906976148060000018028133668771462275_" gradientUnits="userSpaceOnUse" x1="266.6265" y1="227.4926" x2="266.6265" y2="251.0146" gradientTransform="matrix(-1 0 0 -1 360 401.2756)">
				<stop  offset="0" style="stop-color:#CCEDFF"/>
				<stop  offset="1" style="stop-color:#9D68C2"/>
			</linearGradient>
			
				<polygon style="opacity:0.3;fill:url(#SVGID_00000011019919906976148060000018028133668771462275_);enable-background:new    ;" points="
				81.6,173.8 105.1,173.8 105.1,150.3 81.6,150.3 			"/>
			
				<linearGradient id="SVGID_00000024711076711234484240000005907454625010951834_" gradientUnits="userSpaceOnUse" x1="210.6555" y1="227.4926" x2="210.6555" y2="251.0146" gradientTransform="matrix(-1 0 0 -1 360 401.2756)">
				<stop  offset="0" style="stop-color:#CCEDFF"/>
				<stop  offset="1" style="stop-color:#9D68C2"/>
			</linearGradient>
			
				<polygon style="opacity:0.3;fill:url(#SVGID_00000024711076711234484240000005907454625010951834_);enable-background:new    ;" points="
				137.6,173.8 161.1,173.8 161.1,150.3 137.6,150.3 			"/>
			<rect x="81.6" y="187.5" class="st83" width="60.2" height="5.6"/>
			<rect x="81.6" y="196.1" class="st83" width="75.2" height="1.7"/>
			<rect x="141.7" y="176.8" class="st83" width="14.4" height="1.7"/>
			<rect x="113.9" y="176.8" class="st83" width="14.4" height="1.7"/>
			<rect x="86.2" y="176.8" class="st83" width="14.4" height="1.7"/>
			<rect x="136.9" y="198.9" class="st83" width="24.2" height="1.7"/>
			<rect x="81.6" y="201.7" class="st83" width="75.2" height="1.7"/>
			<rect x="81.6" y="204.5" class="st83" width="79.5" height="1.7"/>
			<rect x="81.6" y="207.3" class="st83" width="79.5" height="1.7"/>
			<rect x="81.6" y="218.6" class="st83" width="75.2" height="1.7"/>
			<rect x="81.6" y="221.4" class="st83" width="79.5" height="1.7"/>
			<rect x="81.6" y="224.2" class="st83" width="79.5" height="1.7"/>
			<rect x="84.8" y="210.1" class="st83" width="76.3" height="1.7"/>
			<rect x="81.6" y="212.9" class="st83" width="75.2" height="1.7"/>
			<rect x="96.7" y="215.7" class="st83" width="64.4" height="1.7"/>
			<g>
				<path class="st84" d="M208.7,173.8c0-8.5,6.9-15.4,15.4-15.4c8.5,0,15.4,6.9,15.4,15.4c0,8.5-6.9,15.4-15.4,15.4
					C215.6,189.2,208.7,182.3,208.7,173.8z M209.7,173.8c0,7.9,6.5,14.4,14.4,14.4c7.9,0,14.4-6.5,14.4-14.4s-6.5-14.4-14.4-14.4
					C216.1,159.4,209.7,165.9,209.7,173.8z"/>
			</g>
			<circle class="st11" cx="224.1" cy="173.8" r="8.4"/>
			<g>
				<path class="st84" d="M169.8,146.4c0-8.5,6.9-15.4,15.4-15.4c8.5,0,15.4,6.9,15.4,15.4c0,8.5-6.9,15.4-15.4,15.4
					C176.7,161.8,169.8,154.9,169.8,146.4z M170.8,146.4c0,7.9,6.5,14.4,14.4,14.4c7.9,0,14.4-6.5,14.4-14.4s-6.5-14.4-14.4-14.4
					C177.2,132,170.8,138.5,170.8,146.4z"/>
			</g>
			<ellipse class="st11" cx="185.2" cy="146.4" rx="7.9" ry="7.9"/>
			<g>
				<polygon class="st11" points="241.9,132.1 240.8,130.4 234.7,135.7 235.6,137 				"/>
				<polygon class="st11" points="234.6,132.1 235.7,130.4 241.8,135.7 240.8,137 				"/>
			</g>
			<rect x="75.7" y="131.5" class="st11" width="54.4" height="2.7"/>
		</g>
	</g>
	<g>
		<g>
			<polygon class="st85" points="416.6,92.1 416.6,115.7 388.4,116 388,91.4 			"/>
			
				<linearGradient id="SVGID_00000113352819834754918570000014820969571315202726_" gradientUnits="userSpaceOnUse" x1="-27.282" y1="285.2886" x2="-27.282" y2="309.9106" gradientTransform="matrix(-1 0 0 -1 360 401.2756)">
				<stop  offset="0" style="stop-color:#A242EA"/>
				<stop  offset="1" style="stop-color:#FE117E"/>
			</linearGradient>
			
				<polygon style="fill:url(#SVGID_00000113352819834754918570000014820969571315202726_);stroke:#C67500;stroke-miterlimit:10;" points="
				388,91.4 386.2,94.5 387.1,116 388.4,116 			"/>
			<polygon class="st11" points="411.6,100.1 409,96.3 394.9,108.2 397,111 			"/>
			<polygon class="st11" points="394.5,100.1 397.1,96.3 411.2,108.2 409.1,111 			"/>
		</g>
	</g>
	<g>
		<g>
			<path class="st87" d="M350.7,370.2h96.7c4.3,0,7.8-3.4,7.9-7.7l1.8-79.3c0.1-4.4-3.5-8.1-7.9-8.1H348.6c-4.5,0-8,3.7-7.9,8.1
				l2.2,79.3C342.9,366.8,346.4,370.2,350.7,370.2z"/>
			<g>
				<path class="st88" d="M342.6,362.5l-2.2-79.3c-0.1-2.2,0.8-4.3,2.3-5.9c1.6-1.6,3.6-2.5,5.9-2.5h100.7c2.2,0,4.3,0.9,5.8,2.5
					c1.5,1.6,2.4,3.7,2.3,5.9l-1.8,79.3c-0.1,4.4-3.8,8-8.2,8h-96.7C346.3,370.4,342.7,366.9,342.6,362.5z M348.6,275.3
					c-2.1,0-4,0.8-5.5,2.3c-1.5,1.5-2.2,3.5-2.2,5.6l2.2,79.3c0.1,4.2,3.5,7.5,7.7,7.5h96.7c4.1,0,7.6-3.4,7.7-7.5l1.8-79.3
					c0-2.1-0.7-4-2.2-5.5c-1.5-1.5-3.4-2.3-5.5-2.3L348.6,275.3L348.6,275.3z"/>
			</g>
			<g>
				<rect x="380.2" y="291.3" class="st11" width="50.9" height="2.2"/>
				<rect x="405.7" y="296.6" class="st11" width="25.4" height="2.2"/>
				<rect x="405.7" y="301" class="st11" width="25.4" height="2.2"/>
				<rect x="382.6" y="301" class="st11" width="20.2" height="2.2"/>
				<rect x="390.1" y="305.4" class="st11" width="41" height="2.2"/>
				<rect x="416.5" y="309.8" class="st11" width="14.6" height="2.2"/>
				<rect x="388.3" y="323.1" class="st11" width="25.2" height="2.2"/>
				<rect x="385.4" y="314.2" class="st11" width="45.7" height="2.2"/>
				<rect x="395.9" y="318.7" class="st11" width="35.2" height="2.2"/>
				<rect x="414.5" y="323.1" class="st11" width="16.5" height="2.2"/>
				<rect x="405.7" y="327.5" class="st11" width="25.4" height="2.2"/>
				<rect x="423.8" y="331.9" class="st11" width="7.3" height="2.2"/>
				<rect x="394.3" y="331.9" class="st11" width="26.5" height="2.2"/>
				<rect x="388.3" y="336.2" class="st11" width="25.2" height="2.2"/>
				<rect x="414.5" y="336.2" class="st11" width="16.5" height="2.2"/>
				<rect x="405.7" y="340.6" class="st11" width="25.4" height="2.2"/>
				<rect x="423.8" y="345.1" class="st11" width="7.3" height="2.2"/>
				<rect x="394.3" y="345.1" class="st11" width="26.5" height="2.2"/>
			</g>
		</g>
	</g>
	<g>
		<g>
			<path class="st89" d="M439.5,282.8h48.8c3.9,0,7.1-3.1,7.3-7l1.1-32.1c0.1-4.1-3.2-7.5-7.3-7.5h-50.9c-4.1,0-7.4,3.4-7.3,7.5
				l1,32.1C432.3,279.6,435.6,282.8,439.5,282.8z"/>
			<g>
				<path class="st90" d="M432,275.7l-1-32.1c-0.1-2.1,0.7-4,2.1-5.5c1.4-1.5,3.4-2.3,5.4-2.3h50.9c2.1,0,4,0.8,5.4,2.3
					c1.4,1.5,2.2,3.4,2.1,5.5l-1.1,32.1c-0.1,4.1-3.4,7.3-7.5,7.3h-48.8C435.4,283,432.1,279.8,432,275.7z M438.5,236.4
					c-1.9,0-3.7,0.8-5,2.1c-1.3,1.4-2,3.2-2,5.1l1,32.1c0.1,3.8,3.2,6.8,7,6.8h48.8c3.8,0,6.9-3,7-6.8l1.1-32.1
					c0.1-1.9-0.6-3.7-2-5.1s-3.1-2.1-5.1-2.1L438.5,236.4L438.5,236.4z"/>
			</g>
			<g>
				<polygon class="st11" points="475.3,247.6 487.3,261.6 475.1,272 475.1,266.6 482.2,260.5 475.6,253 				"/>
			</g>
			<g>
				<polygon class="st11" points="454.1,248.3 442.1,262.2 454.4,272.6 454.4,267.2 447.3,261.1 455.2,252.8 				"/>
			</g>
			<g>
				<polygon class="st11" points="472.7,272 462.2,248.9 457.3,248.9 469.1,272 				"/>
			</g>
		</g>
	</g>
	<g>
		<g>
			<path class="st91" d="M111.2,348.8h61c4.9,0,8.9-3.9,9.1-8.8l1.4-40.2c0.2-5.1-4-9.4-9.1-9.4h-63.6c-5.1,0-9.3,4.3-9.1,9.4
				l1.2,40.2C102.2,344.9,106.3,348.8,111.2,348.8z"/>
			<g>
				<path class="st90" d="M101.8,340l-1.2-40.2c-0.1-2.6,0.9-5,2.6-6.8c1.8-1.8,4.2-2.8,6.7-2.8h63.6c2.6,0,4.9,1,6.7,2.9
					c1.8,1.8,2.7,4.3,2.6,6.8l-1.4,40.2c-0.2,5.1-4.3,9-9.4,9h-61C106.1,349.1,102,345.1,101.8,340z M110,290.7
					c-2.4,0-4.7,1-6.4,2.7c-1.7,1.7-2.6,4-2.5,6.4l1.2,40.2c0.1,4.8,4,8.6,8.9,8.6h61c4.8,0,8.7-3.8,8.9-8.6l1.4-40.2
					c0.1-2.4-0.8-4.7-2.5-6.5c-1.7-1.7-3.9-2.7-6.4-2.7L110,290.7L110,290.7z"/>
			</g>
			<rect x="114.5" y="296.9" class="st83" width="55.9" height="33.2"/>
			<polygon class="st11" points="147.4,305.2 147.4,321.9 133.2,312.7 			"/>
			<rect x="114.5" y="336.2" class="st83" width="55.9" height="3"/>
			<rect x="156" y="336.2" class="st11" width="14.5" height="3"/>
		</g>
	</g>
	<g>
		<g>
			<g>
				<path class="st92" d="M214.3,294.8l-2.9-8.3C210.4,287.2,212.7,290.1,214.3,294.8z M217.3,303.1l-2.9-8.3
					C215.9,299.4,216.5,302.9,217.3,303.1z M214.3,294.8l-2.9-8.3C210.4,287.2,212.7,290.1,214.3,294.8z M217.3,303.1l-2.9-8.3
					C215.9,299.4,216.5,302.9,217.3,303.1z M206.5,303c0.7,1.2,1.5,2.2,2.3,3.2l-1.4,3.9l5.9,4.5l0.6-4.4c1.2,0.5,2.4,0.8,3.6,0.8
					l0.6,2l0.8,3l5.3-2.1l-2-4.6c0.9-0.8,1.7-1.8,2.3-3l3.3,3.1l1.6-7.4l-3.4-2.2c0-1.6-0.1-3.3-0.4-5.1l3.3-0.5l-3.1-8.4l-2.8,1.6
					c-0.8-1.6-1.8-3-2.9-4.2l1.4-3.9l-5.9-4.5l-0.6,4.4c-1.2-0.5-2.4-0.8-3.6-0.8l-1.3-4.7l0,0l-5.3,1.7l2,4.6
					c-0.2,0.2-0.4,0.4-0.6,0.6c-0.7,0.7-1.2,1.5-1.7,2.5l-3.3-3.1l-1.6,7.4l3.4,2.2c0,1.3,0,2.7,0.3,4.2c0,0.3,0.1,0.6,0.2,0.9
					l-3.3,0.5l3.1,8.4l2.8-1.6C206.1,302.3,206.3,302.7,206.5,303z M211.4,286.4c2.9-1,6.6,1.9,8.2,6.5c1.6,4.6,0.5,9.2-2.4,10.2
					c-2.9,1-1.3-3.7-2.9-8.3C212.7,290.1,208.5,287.4,211.4,286.4z M214.3,294.8l-2.9-8.3C210.4,287.2,212.7,290.1,214.3,294.8z
					 M217.3,303.1l-2.9-8.3C215.9,299.4,216.5,302.9,217.3,303.1z"/>
			</g>
			<path class="st93" d="M206.5,303l4.6,2.8l-3.6,4.3l5.9,4.5l4.8-1.5l2.8-0.9l-0.8,1.5l-1.2,2.4l7.5-2.5l5.3-2.1l-1.7-3.9l5.2-0.6
				l-2.7-9.9l-5.5-15.3l1.8-4.8l-5.9-4.5l-4.6,2.2l-1-3.6l-5.3,2.1l-2.2,0.7l-5.3,1.7l2.6,5.4l1.4-3.3l-7.5,2.5l-1.1,7.1l3.5,1.7
				l0.3,4.6l-0.5,0.2l-3.1,1.5l3.1,8.4L206.5,303z M217.3,303.1l-2.9-8.3l-2.9-8.3c2.9-1,6.6,1.9,8.2,6.5
				C221.3,297.5,220.2,302.1,217.3,303.1z"/>
			<g class="st94">
				<path class="st95" d="M213.5,299.5c0.8,1.6,1.8,3,2.9,4.2l-1.4,3.9l5.9,4.5l0.6-4.4c1.2,0.5,2.4,0.8,3.6,0.8l1.4,5l5.3-2.1
					l-2-4.6c0.9-0.8,1.7-1.8,2.2-3l3.3,3.1l1.6-7.4l-3.4-2.2c0-1.6-0.1-3.3-0.4-5.1l3.3-0.5l-3.1-8.4l-2.8,1.6
					c-0.8-1.6-1.8-3-2.9-4.2l1.4-3.9l-5.9-4.5l-0.6,4.4c-1.2-0.5-2.4-0.8-3.6-0.8l-1.4-5l-5.3,2.1l2,4.6c-0.9,0.8-1.7,1.8-2.2,3
					l-3.3-3.1L207,285l3.4,2.2c0,1.6,0.1,3.3,0.4,5.1l-3.3,0.5l3.1,8.4L213.5,299.5z M216.6,294.2c-1.6-4.6-0.5-9.2,2.4-10.2
					s6.6,1.9,8.2,6.5c1.6,4.6,0.5,9.2-2.4,10.2C221.9,301.7,218.2,298.8,216.6,294.2z"/>
			</g>
			<polygon class="st96" points="199.4,287.5 207,285 210.4,287.2 202.9,289.6 			"/>
			<polygon class="st93" points="207.4,310.1 215,307.6 216.3,303.7 208.8,306.2 			"/>
			<polygon class="st96" points="214.1,277.8 209.9,279 208.5,277.6 205.8,278.5 204.5,275.6 212.1,273.1 			"/>
			<path class="st96" d="M225.1,308.5l-4,1.6l0.3-2.5C221.4,307.7,223.6,308.8,225.1,308.5z"/>
			<path class="st96" d="M224.5,285.9l-6.7,3.5c0,0-1-1.3-1.7-1.8C216.1,287.6,217.8,280.3,224.5,285.9z"/>
		</g>
	</g>
	<g>
		<g>
			<polygon class="st97" points="201.8,84.3 203.2,50.6 159.1,50.6 161,84.2 			"/>
			<polygon class="st98" points="203.2,50.6 204.5,52.6 203.2,84.3 201.8,84.3 			"/>
			<polygon class="st11" points="188.6,57.4 195.5,56.6 194.5,79.7 188.6,79.1 188.6,76.7 192,76.8 192.4,59 188.6,59.1 			"/>
			<polygon class="st11" points="174.4,57.4 167.5,56.6 168.4,79.7 174.4,79.1 174.4,76.7 171,76.8 170.6,59 174.4,59.1 			"/>
		</g>
	</g>
	<g>
		<g>
			<polygon class="st97" points="505.6,158 504.7,135 534.7,135 533.5,157.9 			"/>
			
				<linearGradient id="SVGID_00000090295833389253924360000002793739759132459138_" gradientUnits="userSpaceOnUse" x1="108.646" y1="244.0145" x2="114.4066" y2="265.4084" gradientTransform="matrix(1 0 0 -1 393.3441 401.2756)">
				<stop  offset="0" style="stop-color:#1852A0"/>
				<stop  offset="1" style="stop-color:#067ED3"/>
			</linearGradient>
			
				<polygon style="fill-rule:evenodd;clip-rule:evenodd;fill:url(#SVGID_00000090295833389253924360000002793739759132459138_);stroke:#C67500;stroke-miterlimit:10;" points="
				504.7,135 503.8,136.4 504.7,158 505.6,158 			"/>
			<path class="st11" d="M516.2,139.7c0,0-3.3-0.1-3.9,0.1c-0.6,0.3,0.2,5.6,0.2,5.6l-1.3,1.2l1.2,1.2c0,0-0.1,5.4,0.7,5.9
				c0.8,0.5,3.4,0,3.4,0v-1.4c0,0-2.2,0.1-2.5-0.2s-0.3-5-0.3-5l-0.6-0.6l0.6-0.7c0,0-0.1-3.4,0-4.3c0-0.6,2.6-0.7,2.6-0.7V139.7z"
				/>
			<path class="st11" d="M523.8,139.7c0,0,3.3-0.1,3.9,0.1c0.6,0.3-0.2,5.6-0.2,5.6l1.3,1.2l-1.2,1.2c0,0,0.1,5.4-0.7,5.9
				c-0.8,0.5-3.4,0-3.4,0v-1.4c0,0,2.2,0.1,2.5-0.2s0.3-5,0.3-5l0.6-0.6l-0.6-0.7c0,0,0.1-3.4,0-4.3c0-0.6-2.6-0.7-2.6-0.7V139.7z"
				/>
		</g>
	</g>
</g>
</svg>
