<?xml version="1.0" encoding="utf-8"?>
<!-- Generator: Adobe Illustrator 27.0.0, SVG Export Plug-In . SVG Version: 6.00 Build 0)  -->
<svg version="1.1" id="Layer_3" xmlns="http://www.w3.org/2000/svg" xmlns:xlink="http://www.w3.org/1999/xlink" x="0px" y="0px"
	 viewBox="0 0 600 400" style="enable-background:new 0 0 600 400;" xml:space="preserve">
<style type="text/css">
	.st0{display:none;}
	.st1{display:inline;}
	.st2{fill:#F1F1F4;}
	.st3{fill:#E2E2E2;}
	.st4{fill:url(#SVGID_1_);}
	.st5{fill:url(#SVGID_00000057114047964956117680000013090418406976510652_);}
	.st6{fill:#E5E2FF;}
	.st7{fill:url(#SVGID_00000056394953263857071660000009719118183582843553_);}
	.st8{opacity:0.62;fill:url(#SVGID_00000175290861475394845600000003591125448623463309_);enable-background:new    ;}
	.st9{opacity:0.62;fill:url(#SVGID_00000114041144714230213010000002722352382396473504_);enable-background:new    ;}
	.st10{opacity:0.5;fill:url(#SVGID_00000104678901688970833710000013570563880257512620_);enable-background:new    ;}
	.st11{fill:#FFFFFF;}
	.st12{fill:#FE9083;}
	.st13{fill:#CB4D7A;}
	.st14{fill:#EE8183;}
	.st15{fill:url(#SVGID_00000162325461449766709160000010826280003129265588_);}
	.st16{opacity:0.6;fill:url(#SVGID_00000170237866929337671360000014157700935078524574_);enable-background:new    ;}
	.st17{fill:url(#SVGID_00000145769593837225048640000005503213493266555013_);}
	.st18{fill:#E28183;}
	.st19{opacity:0.91;fill:url(#SVGID_00000076597877874029775010000006831717063237137061_);enable-background:new    ;}
	.st20{fill:url(#SVGID_00000181805702694743832640000016174023864393468055_);}
	.st21{opacity:0.6;fill:url(#SVGID_00000088833261840869659790000013531681135649610917_);enable-background:new    ;}
	.st22{fill:url(#SVGID_00000127031450377254328350000014062637384372998055_);}
	.st23{fill:url(#SVGID_00000043427244080284492760000009093717992997400705_);}
	.st24{opacity:0.91;fill:url(#SVGID_00000066517646674533132220000000908277596498315667_);enable-background:new    ;}
	.st25{fill:#FFBCAF;}
	.st26{fill:url(#SVGID_00000175308564025689079220000002224464074710192787_);}
	.st27{opacity:0.5;fill:url(#SVGID_00000137844638525195579480000016508414814268819851_);enable-background:new    ;}
	.st28{fill:#918F8B;}
	.st29{opacity:0.5;fill:url(#SVGID_00000127026452315172545210000005223655229080326293_);enable-background:new    ;}
	.st30{fill:#B5B5B5;}
	.st31{fill:url(#SVGID_00000087379109207054677680000010158770102730782105_);}
	.st32{opacity:0.5;fill:#B5B5B5;enable-background:new    ;}
	.st33{opacity:0.5;fill:url(#SVGID_00000181078191088823387440000002280794629762841236_);enable-background:new    ;}
	.st34{opacity:0.5;fill:url(#SVGID_00000025434098299439576100000008781418719233140368_);enable-background:new    ;}
	.st35{opacity:0.5;fill:url(#SVGID_00000110455344177572795680000013203615646112395147_);enable-background:new    ;}
	.st36{opacity:0.5;fill:url(#SVGID_00000054257010553511575300000011116951670606286465_);enable-background:new    ;}
	.st37{opacity:0.5;fill:url(#SVGID_00000073715297833327394130000009625871454233206958_);enable-background:new    ;}
	.st38{opacity:0.5;fill:url(#SVGID_00000115499775862750526930000001868154730094618763_);enable-background:new    ;}
	.st39{opacity:0.76;fill:url(#SVGID_00000182519169379787675160000013381265600314368685_);enable-background:new    ;}
	.st40{opacity:0.5;fill:url(#SVGID_00000094619521231922482410000016313218124306668730_);enable-background:new    ;}
	.st41{opacity:0.3;fill:url(#SVGID_00000007409869738614418790000000924089699807293629_);enable-background:new    ;}
	.st42{opacity:0.5;fill:url(#SVGID_00000161605238419632182030000003543005031986093482_);enable-background:new    ;}
	.st43{opacity:0.5;fill:url(#SVGID_00000115495166279066815830000006337368249116060569_);enable-background:new    ;}
	.st44{opacity:0.5;fill:url(#SVGID_00000004509699030774861730000017921967753760757412_);enable-background:new    ;}
	.st45{opacity:0.5;fill:url(#SVGID_00000106841850765933038670000002127249626642726840_);enable-background:new    ;}
	.st46{opacity:0.5;fill:url(#SVGID_00000013878200546335392410000010666923653020969916_);enable-background:new    ;}
	.st47{opacity:0.3;fill:url(#SVGID_00000158031276321661896640000003277518383333701769_);enable-background:new    ;}
	.st48{opacity:0.5;fill:url(#SVGID_00000108275951936689333350000012485180092055605419_);enable-background:new    ;}
	.st49{opacity:0.5;fill:url(#SVGID_00000155856513293047642890000005987943163878593701_);enable-background:new    ;}
	.st50{fill:url(#SVGID_00000036959198909141721160000010179864863738367155_);}
	.st51{fill:url(#SVGID_00000064346926087904766470000001300838393630729892_);}
	.st52{fill:url(#SVGID_00000063598786931075855220000018038458926882556849_);}
	.st53{opacity:0.6;fill:url(#SVGID_00000045593447405694746970000004383147488833077649_);enable-background:new    ;}
	.st54{fill:url(#SVGID_00000028314133785679366440000011045368854661475748_);}
	.st55{fill:url(#SVGID_00000177486230559489165890000008008391069970400439_);}
	.st56{fill:url(#SVGID_00000170270557168501791270000010653735095540060304_);}
	.st57{fill:url(#SVGID_00000145757004390662107380000002469028754118466221_);}
	.st58{fill:#FFEBED;}
	.st59{fill:#914343;}
	.st60{fill:#451414;}
	.st61{fill:#571D0F;}
	.st62{fill:#C6659C;}
	.st63{fill:#CB5F7D;}
	.st64{fill:#9F4A8B;}
	.st65{opacity:0.6;fill:url(#SVGID_00000148628038352228832130000011015594729969792660_);enable-background:new    ;}
	.st66{fill:url(#SVGID_00000158015471081467494880000007361612924820942781_);}
	.st67{fill:#D2726C;}
	.st68{opacity:0.6;fill:url(#SVGID_00000094620228462670368420000017162443589457821352_);enable-background:new    ;}
	.st69{opacity:0.6;fill:url(#SVGID_00000023258260204023607330000013799210736617338280_);enable-background:new    ;}
	.st70{opacity:0.5;fill:url(#SVGID_00000156578921550391042870000005353539299985718922_);enable-background:new    ;}
	.st71{fill:#B55B6D;}
	.st72{opacity:0.8;fill:url(#SVGID_00000073694842640079166510000013464349026811590539_);enable-background:new    ;}
	.st73{opacity:0.8;fill:url(#SVGID_00000070836603572647121260000009258342911106085250_);enable-background:new    ;}
	.st74{fill:url(#SVGID_00000060725271083488083110000001889013468156623260_);}
	.st75{fill:url(#SVGID_00000025414028118740998350000017801705528092162689_);}
	.st76{opacity:0.81;fill:#C67500;enable-background:new    ;}
	.st77{fill:#9B4CA2;stroke:#C67500;stroke-miterlimit:10;}
	.st78{opacity:0.81;fill:#EFB454;enable-background:new    ;}
	.st79{opacity:0.3;fill:url(#SVGID_00000174581255976112943570000002494973122752700315_);enable-background:new    ;}
	.st80{opacity:0.3;fill:url(#SVGID_00000060014335595216203610000005312144171538357655_);enable-background:new    ;}
	.st81{opacity:0.3;fill:url(#SVGID_00000128445882196779063210000004084011284109797277_);enable-background:new    ;}
	.st82{opacity:0.3;fill:url(#SVGID_00000058581403683604189920000011587949394229052056_);enable-background:new    ;}
	.st83{fill:#D1D4FB;}
	.st84{fill:#E0FFFF;}
	.st85{fill:#EE9B00;}
	.st86{fill:url(#SVGID_00000003082949362668550430000012012025267460598145_);stroke:#C67500;stroke-miterlimit:10;}
	.st87{opacity:0.81;fill:#EE9B00;enable-background:new    ;}
	.st88{fill:#713DA2;stroke:#C67500;stroke-miterlimit:10;}
	.st89{opacity:0.73;fill:#C67500;enable-background:new    ;}
	.st90{fill:#403DA2;stroke:#C67500;stroke-miterlimit:10;}
	.st91{opacity:0.73;fill:#EE9B00;enable-background:new    ;}
	.st92{fill-rule:evenodd;clip-rule:evenodd;fill:#B77408;}
	.st93{opacity:0.73;fill-rule:evenodd;clip-rule:evenodd;fill:#EE9B00;enable-background:new    ;}
	.st94{opacity:0.81;enable-background:new    ;}
	.st95{fill-rule:evenodd;clip-rule:evenodd;fill:#9B5C08;}
	.st96{opacity:0.5;fill-rule:evenodd;clip-rule:evenodd;fill:#601734;enable-background:new    ;}
	.st97{fill-rule:evenodd;clip-rule:evenodd;fill:#EE9B00;}
	.st98{fill-rule:evenodd;clip-rule:evenodd;fill:#C67500;}
	
		.st99{fill-rule:evenodd;clip-rule:evenodd;fill:url(#SVGID_00000079473716654499034050000016482736733032132014_);stroke:#C67500;stroke-miterlimit:10;}
</style>
<g>
	<g class="st0">
		<g class="st1">
			<path class="st2" d="M472.5,199.1l-2.9,0.1l-0.1-2.4h-0.1l-0.8,2.4l-4.2,0.1c-0.8,0-1.4,0-2-0.2c-0.6-0.2-1-0.5-1.4-0.8
				c-0.3-0.3-0.6-0.8-0.8-1.3c-0.1-0.5-0.2-1-0.2-1.7l-0.1-2.1c0-0.6,0-1.2,0.2-1.7c0.2-0.6,0.3-0.9,0.7-1.3
				c0.3-0.3,0.7-0.7,1.3-0.8c0.6-0.2,1.2-0.3,2-0.3l7.7-0.2c0.2,0,0.3,0.1,0.5,0.5L472.5,199.1z M469.4,191.6c0,0,0-0.1-0.1-0.1
				l-0.1-0.1l-4.7,0.1c-0.6,0-0.9,0.1-1.2,0.3c-0.2,0.2-0.3,0.7-0.3,1.3v1.7c0,0.6,0.1,1,0.3,1.3c0.2,0.2,0.7,0.3,1.2,0.3l5-0.1
				L469.4,191.6z"/>
			<path class="st2" d="M455.2,195.4l-4,0.1l-0.1-2.1l4.9-0.1V192v-0.1l-0.1-0.1l-5.9,0.2c-0.1,0-0.1,0-0.1,0.1v1.4h-0.1l-2.8-0.9
				l-0.1-2.7c0-0.2,0.1-0.5,0.5-0.5l11.1-0.3c0.2,0,0.5,0.1,0.5,0.5l0.2,9.5c0,0.2-0.1,0.5-0.3,0.5l-11.4,0.3l-0.1-2.8l8.7-0.2
				c0.1,0,0.2-0.1,0.2-0.2l-0.1-3.1h-0.1L455.2,195.4z"/>
			<path class="st2" d="M433.6,192.5l-0.1-2.1c0-0.3,0.1-0.5,0.5-0.5l9.1-0.2c0.9,0,1.6,0.1,2,0.6c0.5,0.3,0.6,0.9,0.7,1.7v0.7
				c0,0.3,0,0.7-0.1,1c-0.1,0.2-0.2,0.5-0.3,0.7c-0.1,0.2-0.5,0.3-0.7,0.5c-0.3,0.1-0.7,0.2-1,0.2l-6.1,0.9c-0.2,0-0.3,0.1-0.3,0.1
				c-0.1,0.1-0.1,0.2-0.1,0.3v0.2c0,0.2,0,0.3,0.1,0.5c0.1,0.1,0.2,0.1,0.5,0.1l8.2-0.2l0.1,2.7l-9.3,0.2c-0.6,0-1,0-1.4-0.1
				c-0.3-0.1-0.7-0.2-0.9-0.5c-0.2-0.2-0.5-0.5-0.6-0.8c-0.1-0.3-0.2-0.7-0.2-1.2v-0.8c0-0.3,0-0.7,0.1-1c0.1-0.2,0.2-0.6,0.3-0.7
				c0.1-0.2,0.3-0.3,0.7-0.5c0.2-0.1,0.6-0.2,1-0.3l6.4-1c0.2,0,0.3-0.1,0.3-0.1s0.1-0.2,0.1-0.3v-0.2c0-0.1,0-0.2-0.1-0.3
				s-0.2-0.1-0.5-0.1l-5.4,0.1c-0.1,0-0.1,0.1-0.1,0.2v1.2h-0.1L433.6,192.5z"/>
			<path class="st2" d="M429.6,200.3l-0.3-10.3l2.9-0.1l0.3,10.3L429.6,200.3z"/>
			<path class="st2" d="M418.7,197.8c0,0.1,0,0.1,0.1,0.1l4.9-0.1c0.6,0,0.9-0.1,1.2-0.5c0.2-0.2,0.3-0.7,0.3-1.3v-1.9
				c0-0.3,0-0.6-0.1-0.8s-0.1-0.3-0.2-0.5c-0.1-0.1-0.2-0.2-0.5-0.2c-0.2,0-0.5-0.1-0.7,0l-5,0.1c-0.1,0-0.1,0-0.1,0.1v1h-0.1
				l-2.8-0.9l-0.1-2.2c0-0.2,0.1-0.5,0.3-0.5l7.7-0.2c0.8,0,1.4,0,2,0.2c0.6,0.2,1,0.5,1.4,0.8c0.3,0.3,0.6,0.8,0.8,1.3
				c0.1,0.5,0.2,1,0.2,1.7l0.1,2.1c0,0.6,0,1.2-0.2,1.7c-0.2,0.6-0.3,0.9-0.7,1.3c-0.3,0.3-0.7,0.7-1.3,0.8c-0.6,0.2-1.2,0.3-2,0.3
				l-7.7,0.2c-0.2,0-0.3-0.1-0.3-0.3l-0.1-5.1l2.9-0.1v0.1c0,0.1,0,0.2,0,0.5c0,0.1,0,0.3,0,0.5V197.8z"/>
			<path class="st2" d="M414,190.5c0.2,0,0.3,0.1,0.5,0.5l0.3,9.9l-2.7,0.1l-0.2-7.7c0-0.1-0.1-0.2-0.2-0.2h-0.1
				c-0.1,0-0.2,0.1-0.2,0.2l-3.8,7.5c-0.1,0.1-0.1,0.2-0.2,0.3s-0.2,0.1-0.5,0.1l-4.2,0.1c-0.2,0-0.3-0.1-0.5-0.3l-0.3-9.9l2.7-0.1
				l0.2,7.7c0,0.1,0.1,0.2,0.2,0.2h0.1c0.1,0,0.2-0.1,0.2-0.2l3.7-7.5c0.1-0.1,0.1-0.2,0.2-0.3s0.2-0.1,0.5-0.1L414,190.5z"/>
		</g>
	</g>
	<g>
		<ellipse class="st3" cx="332.4" cy="188.4" rx="179.3" ry="179.3"/>
	</g>
	<g>
		<g>
			
				<linearGradient id="SVGID_1_" gradientUnits="userSpaceOnUse" x1="-415.64" y1="342.4887" x2="-415.64" y2="260.1557" gradientTransform="matrix(-0.906 -0.4233 -0.4233 0.906 217.6115 -241.8499)">
				<stop  offset="0" style="stop-color:#DBCCFF"/>
				<stop  offset="1" style="stop-color:#D1BBFF"/>
			</linearGradient>
			<path class="st4" d="M462.9,179.9c-0.2,1.7,0.5,4.9,4.2,8.7l-15.4,37.4c-3,0.6-5.8,2.4-7.2,5.6c-2.3,4.9-0.2,10.8,4.7,13.1
				c4.9,2.3,10.8,0.2,13.1-4.7c1.4-3,1.2-6.4-0.5-9l18.7-36c5.4,0.3,8.2-1.2,9.4-2.4c0.2-0.2,1.4-2.9,1.4-2.9
				c3-8.2,0.3-16.2,0.3-16.2l-2.8-1.3l-4.6,11.8c-3.8,2.1-7.5,1.4-7.5,1.4l0,0c0,0-2.9-2.3-3.7-6.6l6.1-11.1l-2.8-1.3
				c0,0-7.7,3.1-12.3,10.8C464.3,177,463,179.5,462.9,179.9z M448.4,233.2l4.5-3.1l5,2.3l0.5,5.4l-4.5,3.1l-5-2.3L448.4,233.2z"/>
			
				<linearGradient id="SVGID_00000155112112626283268260000011828763038933996936_" gradientUnits="userSpaceOnUse" x1="-415.5374" y1="345.6996" x2="-415.5374" y2="263.4445" gradientTransform="matrix(-0.906 -0.4233 -0.4233 0.906 217.6115 -241.8499)">
				<stop  offset="0" style="stop-color:#B5A6E7"/>
				<stop  offset="1" style="stop-color:#7760BF"/>
			</linearGradient>
			<path style="fill:url(#SVGID_00000155112112626283268260000011828763038933996936_);" d="M465.7,191.4l-15.4,37.2
				c-3,0.6-5.8,2.4-7.2,5.6c-2.3,4.9-0.2,10.8,4.7,13.1c4.9,2.3,10.8,0.2,13.1-4.7c1.4-3,1.2-6.4-0.5-9l18.7-35.7
				c6.5,0.3,10.6-5.3,10.6-5.3c3-8.2,0.3-16.2,0.3-16.2l-2.8-1.3l-4.6,11.8c-3.8,2.1-7.5,1.4-7.5,1.4l0,0c0,0-2.9-2.3-3.7-6.6
				l6.1-11.1l-2.8-1.3c0,0-7.7,3.1-12.3,10.8C462.9,179.9,461.3,186.8,465.7,191.4z M447.1,236.1l4.5-3.1l5,2.3l0.5,5.4l-4.5,3.1
				l-5-2.3L447.1,236.1z"/>
			<rect x="488" y="172.7" transform="matrix(0.4233 -0.906 0.906 0.4233 124.6087 544.0721)" class="st6" width="3.2" height="3"/>
			
				<rect x="475.5" y="166.8" transform="matrix(0.4233 -0.906 0.906 0.4233 122.7255 529.3499)" class="st6" width="3.2" height="3"/>
			<rect x="449" y="238.6" transform="matrix(0.4233 -0.906 0.906 0.4233 41.2836 547.43)" class="st6" width="3.2" height="5.4"/>
			<g>
				
					<linearGradient id="SVGID_00000085952745762895999970000011667913588036615077_" gradientUnits="userSpaceOnUse" x1="-415.6762" y1="325.2316" x2="-415.6762" y2="290.5259" gradientTransform="matrix(-0.906 -0.4233 -0.4233 0.906 217.6115 -241.8499)">
					<stop  offset="0" style="stop-color:#B5A6E7"/>
					<stop  offset="1" style="stop-color:#7760BF"/>
				</linearGradient>
				<path style="fill:url(#SVGID_00000085952745762895999970000011667913588036615077_);" d="M466.3,196.3L454,226.6
					c0,0,2.1,3,6.1,2.9l15.2-29.1C475.2,200.5,471.8,196.1,466.3,196.3z M467,196.8c1.3,0.1,2.5,0.6,3.7,1.2
					c1.6,0.8,2.9,1.7,3.6,2.4l-15.2,28.5c-0.7-0.1-1.4-0.3-2.1-0.6c-0.8-0.3-1.5-0.9-2-1.3L467,196.8z"/>
				<path class="st6" d="M455.2,226.8l-1.2-0.2c0,0,1.7,3.1,6.1,2.9l-0.9-0.7C459.2,228.8,457,228.6,455.2,226.8z"/>
				
					<linearGradient id="SVGID_00000161621103293684108840000016519479001823185032_" gradientUnits="userSpaceOnUse" x1="-420.5818" y1="291.2928" x2="-410.7314" y2="291.2928" gradientTransform="matrix(-0.906 -0.4233 -0.4233 0.906 217.6115 -241.8499)">
					<stop  offset="0" style="stop-color:#8B8BE0"/>
					<stop  offset="1" style="stop-color:#A177B7"/>
				</linearGradient>
				
					<path style="opacity:0.62;fill:url(#SVGID_00000161621103293684108840000016519479001823185032_);enable-background:new    ;" d="
					M475.2,200.5l-0.9-0.1c0,0-2.5-2.7-7.4-3.5l-0.7-0.6c0,0,2-0.3,5,1C474.2,198.7,475.2,200.5,475.2,200.5z"/>
			</g>
			
				<linearGradient id="SVGID_00000145022688691263916930000015033641425218437555_" gradientUnits="userSpaceOnUse" x1="-415.6534" y1="293.5066" x2="-415.6534" y2="287.5448" gradientTransform="matrix(-0.906 -0.4233 -0.4233 0.906 217.6115 -241.8499)">
				<stop  offset="0" style="stop-color:#FFFFFF"/>
				<stop  offset="1" style="stop-color:#A177B7"/>
			</linearGradient>
			
				<path style="opacity:0.62;fill:url(#SVGID_00000145022688691263916930000015033641425218437555_);enable-background:new    ;" d="
				M479.2,197.8c0,0-7.3-1.3-13.5-6.2l-2,4.7c0,0,2.2-2.2,7.2-0.2c5.8,2.3,5.4,6.9,5.4,6.9L479.2,197.8z"/>
			
				<linearGradient id="SVGID_00000117657885969536584740000008980316189824815524_" gradientUnits="userSpaceOnUse" x1="-410.4586" y1="328.7992" x2="-410.4586" y2="290.5671" gradientTransform="matrix(-0.906 -0.4233 -0.4233 0.906 217.6115 -241.8499)">
				<stop  offset="0" style="stop-color:#000000"/>
				<stop  offset="1" style="stop-color:#FFFFFF"/>
			</linearGradient>
			<path style="opacity:0.5;fill:url(#SVGID_00000117657885969536584740000008980316189824815524_);enable-background:new    ;" d="
				M463.7,196.3c1.4-1,3-1,3-1l-14.6,35.4l-1.7-1.9L463.7,196.3z"/>
			<path class="st11" d="M463.7,196.3c0,0,1.5,4.7-2.9,6.9L463.7,196.3z"/>
		</g>
	</g>
	<g>
		<g>
			<g>
				<path class="st12" d="M295,135.3c-0.1,0.5-0.1,0.8-0.1,0.8c0.6,2.3,1.2,4.5,2,6.6c2.3,6.5,5.1,11.1,7.2,14
					c1.9,2.4,3.1,3.7,3.1,3.7c16.9-5.3,25.2-21.9,28.3-30v-0.1c0.6-1.5,1-2.8,1.3-3.6l0,0c0.2-0.7,0.2-1,0.2-1
					c-0.1-0.1-0.1-0.2-0.2-0.5v-0.1c-0.2-0.6-0.6-1.2-0.8-1.7c-2.2-4.9-3.7-9.4-4.6-13c-0.8-3-1.3-5.3-1.5-6.6
					c-0.1-0.7-0.1-0.9-0.1-0.9l-7.9,4.2l-27.1,14.3c0.5,2.4,0.6,4.9,0.6,6.8c0,1.4,0,2.8-0.1,3.8c-0.1,1.4-0.2,2.4-0.3,3.1l0,0
					C295.1,135.3,295,135.3,295,135.3z"/>
				<path class="st13" d="M295,135c0,0.1,0,0.3,0,0.5c0,0.3,0.1,0.6,0.2,0.9l0,0c1.4,5.1,6.9,10.3,14,7.9
					c7.6-2.8,22.2-33.7,22.2-33.7l-1.5-6.6l-34.7,28.2l-0.3,2.7L295,135z"/>
			</g>
			<g>
				<g>
					<path class="st14" d="M410.3,129.3c0,0,2.1-11.7,1.2-20.4s0.2-18.4,0.2-18.4s2.1-0.9,3.6,0s5.1,9.8,3.5,17
						c-1.6,7.2-0.3,24.3-0.3,24.3h2.4l5.2-7.3l2.5-0.7c0,0,14.7,13.9,14.5,22.1l-2,7.3l-18.2-0.6l-11.6-13.4L410.3,129.3z"/>
					
						<linearGradient id="SVGID_00000109726200992724329500000011558041232738163883_" gradientUnits="userSpaceOnUse" x1="-316.7062" y1="343.4797" x2="-316.7062" y2="317.8913" gradientTransform="matrix(-1 0 0 1 120 -194)">
						<stop  offset="1.600000e-02" style="stop-color:#FFC2A9"/>
						<stop  offset="1" style="stop-color:#FF9595"/>
					</linearGradient>
					<path style="fill:url(#SVGID_00000109726200992724329500000011558041232738163883_);" d="M428.7,123.9c0,0-0.3,9.3-2.4,17.1
						c0,0,0.3,3.2,4.2,3.5l0.9-1c0,0,0.7,3.7,4,3.9l3.1-3.1l-0.8,2.7c0,0,1.2,2.8,4.2,2.7c0,0,5.1-3.9,5.3-9.1l-5-4.2V133l-5.9-4.2
						l-0.1-2.3C436.2,126.4,432.7,123.8,428.7,123.9z"/>
					
						<linearGradient id="SVGID_00000103238910117872328580000014646296752144411792_" gradientUnits="userSpaceOnUse" x1="-300.6299" y1="342.8797" x2="-300.6299" y2="300.5494" gradientTransform="matrix(-1 0 0 1 120 -194)">
						<stop  offset="0" style="stop-color:#FFEADB"/>
						<stop  offset="0.9944" style="stop-color:#C27CB6"/>
					</linearGradient>
					
						<path style="opacity:0.6;fill:url(#SVGID_00000103238910117872328580000014646296752144411792_);enable-background:new    ;" d="
						M411.2,106.5c0,0,0.9,2.2,2.2,3.1c1.3,0.9,4.9,1.5,4.9,1.5l0.1,20.7h2.4l5.2-7.3c0,0-2.7,4.2-2.8,7.3l2.1,1l1.9-6.2l0.8,4.5
						l-0.8,5.6c0,0-3.1-2.7-8.8-2.8l-0.8,1.5c0,0,10.2,8.4,12.6,13.4c0,0-5.1-6.4-16.5-13.5l-1-3.4l-1.5-8.1
						C411.1,123.9,412.5,112.2,411.2,106.5z"/>
					
						<linearGradient id="SVGID_00000011710307123526987220000003823880117845545397_" gradientUnits="userSpaceOnUse" x1="-301.9303" y1="371.6782" x2="-301.9303" y2="306.3785" gradientTransform="matrix(-1 0 0 1 120 -194)">
						<stop  offset="1.600000e-02" style="stop-color:#FFC2A9"/>
						<stop  offset="1" style="stop-color:#FF9595"/>
					</linearGradient>
					<path style="fill:url(#SVGID_00000011710307123526987220000003823880117845545397_);" d="M402.6,142.5
						c0.9,2.9,10.9,14.7,12,17.2c1.2,2.5,1.7,5.9,1.7,5.9c4.9,10.5,16.7,12,16.7,12l0.6-9.5c0,0,6.4-3.7,7.4-5.7l0,0l0.1-0.3
						c0.3-1.9,0-8.8,0-8.8l-11.1-4.5c-4.9-6.2-16.5-13.4-16.5-13.4l-0.6-3.2c8.4-4.2,7.1-16.7,5.6-18.2c-1.4-1.5-4-1.5-4-1.5
						s-3.1,10.1-5.1,14.8C407.6,131.9,401.7,139.6,402.6,142.5z"/>
					<path class="st18" d="M436.2,126.4c0,0-1.3,11.4-4.9,17c0,0,4.6-5.8,5-14.6L436.2,126.4z"/>
					<path class="st18" d="M442.2,132.9c0,0-1.2,9.3-6.9,14.5c0,0,5.1-2.5,6.9-11.2V132.9z"/>
					
						<linearGradient id="SVGID_00000052783880170270441990000015619771757141387709_" gradientUnits="userSpaceOnUse" x1="-313.676" y1="361.5005" x2="-293.1446" y2="361.5005" gradientTransform="matrix(-1 0 0 1 120 -194)">
						<stop  offset="1.600000e-02" style="stop-color:#D1A1D6"/>
						<stop  offset="0.9944" style="stop-color:#BD89C4"/>
					</linearGradient>
					
						<path style="opacity:0.91;fill:url(#SVGID_00000052783880170270441990000015619771757141387709_);enable-background:new    ;" d="
						M413.2,157.3c0,0,12.5,12.1,20.6,10.9l-0.6,9.5c0,0-13.2-1.2-17.5-15C415.7,162.8,414.2,158.7,413.2,157.3z"/>
				</g>
				<g>
					
						<linearGradient id="SVGID_00000039840921253657458730000010801075267951430553_" gradientUnits="userSpaceOnUse" x1="-62.178" y1="411.4641" x2="-62.178" y2="324.2184" gradientTransform="matrix(-1 0 0 1 120 -194)">
						<stop  offset="1.600000e-02" style="stop-color:#FFC2A9"/>
						<stop  offset="1" style="stop-color:#FF9595"/>
					</linearGradient>
					<path style="fill:url(#SVGID_00000039840921253657458730000010801075267951430553_);" d="M148.2,173.9c0,0,11.4,21,25,27.5h4.6
						l10.6,16.1c0,0,6.8-4.3,7.4-18.5c0,0-2.4-2.5-3-5.3c0,0,3.8-3,4.9-5.2c1-2.2,1.4-8.8,2.1-11.4c0.7-2.7,6.9-8.3,8.3-9
						c1.4-0.7,7.6-1,7.6-1s0.9-2.3,0-3.4c-0.9-1-10.6-4.9-16-1.3c0,0-0.3,2.8-0.9,4.3s-5.3,6.6-6,6.6c-0.7,0-3.9-2.7-5.3-4.6
						c-1.3-2-8.4-17.2-10.1-22.3c0-0.1,0-0.1,0-0.1c0-0.1-0.1-0.1-0.1-0.2c0-0.1,0-0.1,0-0.1s0,0,0-0.1c-1.3-4.5-9-13-13.1-15.4
						c0,0-1.7-0.5-2.7,1.7c0,0,3.2,9.4,6.7,14.9c0.6,0.9,1.2,2.1,1.9,3.2l0,0c2.9,5.3,6.2,12.4,6.7,13.4l0.1,0.1l-1.9,0.9l-5-4.7
						l-5.1-4.7l-11.7,12.3l1.2,1.5l3.6,4.6l-1.9,0.3l-4.3-4.7L148.2,173.9z"/>
					
						<linearGradient id="SVGID_00000046307984648645802490000004604442804917442727_" gradientUnits="userSpaceOnUse" x1="-51.9681" y1="383.4868" x2="-51.9681" y2="340.1041" gradientTransform="matrix(-1 0 0 1 120 -194)">
						<stop  offset="0" style="stop-color:#FFEADB"/>
						<stop  offset="0.9944" style="stop-color:#C27CB6"/>
					</linearGradient>
					
						<path style="opacity:0.6;fill:url(#SVGID_00000046307984648645802490000004604442804917442727_);enable-background:new    ;" d="
						M151,178.4l3.7,5.4c0,0,20.2-15.6,24.5-16.9s6-0.5,6-0.5l4.5,5.8c0,0-8.3,7.4-9,17.3c0,0,2.8-12.6,12.3-16.3
						c-0.7,0-3.9-2.7-5.3-4.6c-1.3-2-8.4-17.2-10.1-22.3c0.2,0.9,0.6,2.5-0.2,3.9c-1,1.9-6.8,0.1-7.2,0l0,0l6.7,13.4l0.1,0.1
						l-1.9,0.9l-5-4.7l2.4,5.8l-18,3.2l3.6,4.6l-1.9,0.3L151,178.4z"/>
					
						<linearGradient id="SVGID_00000070816363368126432650000010325225378020611262_" gradientUnits="userSpaceOnUse" x1="-43.236" y1="368.5127" x2="-43.236" y2="349.0651" gradientTransform="matrix(-1 0 0 1 120 -194)">
						<stop  offset="0" style="stop-color:#FFB0B0"/>
						<stop  offset="0.984" style="stop-color:#FFC2A9"/>
					</linearGradient>
					<path style="fill:url(#SVGID_00000070816363368126432650000010325225378020611262_);" d="M165,155.1c0,0-3.5-0.5-5.8,4l0.5,1.5
						c0,0-3.5,0.7-6.7,6.2c0,0,2.9,5.3,10.2,7.7c0,0,3.4-0.9,3.9-3.8l-0.7-1.9l2.7,2c0,0,3.1,0.9,4.5-3.7L165,155.1z"/>
					
						<linearGradient id="SVGID_00000125564913972706006520000000101051659301498039_" gradientUnits="userSpaceOnUse" x1="-32.0481" y1="371.5082" x2="-32.0481" y2="360.8435" gradientTransform="matrix(-1 0 0 1 120 -194)">
						<stop  offset="0" style="stop-color:#FFB0B0"/>
						<stop  offset="0.984" style="stop-color:#FFC2A9"/>
					</linearGradient>
					<path style="fill:url(#SVGID_00000125564913972706006520000000101051659301498039_);" d="M147.2,172.4c0,0-0.7-3.4,2.9-5.6
						l6.9,7.6c0,0-0.2,2.4-3.2,3C153.8,177.6,149,175.9,147.2,172.4z"/>
					
						<linearGradient id="SVGID_00000034785297530145752900000007301977146528507071_" gradientUnits="userSpaceOnUse" x1="-77.667" y1="392.7278" x2="-57.8319" y2="392.7278" gradientTransform="matrix(-1 0 0 1 120 -194)">
						<stop  offset="1.600000e-02" style="stop-color:#D1A1D6"/>
						<stop  offset="0.9944" style="stop-color:#BD89C4"/>
					</linearGradient>
					
						<path style="opacity:0.91;fill:url(#SVGID_00000034785297530145752900000007301977146528507071_);enable-background:new    ;" d="
						M197.7,188.4c0,0-8.1,9-19.8,12.8l5.1,7.7l10.6-13.4l-0.7-2C192.8,193.6,197.1,190.4,197.7,188.4z"/>
					<path class="st18" d="M159.8,160.6c0,0,3.4,5.6,6.7,8.3l0.7,1.9c0,0-6.5-4.4-8.9-9.5C158.3,161.3,159,160.7,159.8,160.6z"/>
				</g>
				<path class="st25" d="M402.6,142.5c0,0,5.3-1.2,7.6-5.8c2.2-4.7,0.8-11.5,0.8-11.5s-4.2,8.1-6.2,10.9
					C402.6,138.8,402.1,141.9,402.6,142.5z"/>
			</g>
			<g>
				
					<linearGradient id="SVGID_00000028323131726982907360000002692663785929589659_" gradientUnits="userSpaceOnUse" x1="-195.635" y1="360.4017" x2="-195.635" y2="319.2279" gradientTransform="matrix(-1 0 0 1 120 -194)">
					<stop  offset="0" style="stop-color:#B4CDF8"/>
					<stop  offset="1" style="stop-color:#D3D6FB"/>
				</linearGradient>
				<path style="fill:url(#SVGID_00000028323131726982907360000002692663785929589659_);" d="M302.5,162.2c1.6,1.5,3.4,2.9,5.6,4
					l0.1,0.1c0,0,0,0,0.1-0.1l0,0c0.6-0.3,2.5-1.6,5.3-3.6c7.1-5.3,18.9-16.1,22.3-30.6c0,0,0,0,0-0.1c0.3-1.7,0.7-3.5,0.8-5.3l0,0
					c0-0.5,0.1-0.9,0.1-1.4c0,0-2.3,5.6-6.4,11.4c-4.7,7.1-12,14.7-20.6,14.7c-7.4,0-11.2-5.1-13.2-9.7c-0.8-2-1.3-3.9-1.6-5.3l0,0
					c-0.1-0.5-0.1-0.8-0.2-1l0,0c0-0.1,0-0.3,0-0.5c-0.1-0.5-0.1-0.8-0.1-0.8S292.1,151.8,302.5,162.2z"/>
				
					<linearGradient id="SVGID_00000146462572588331451470000010609809363668305538_" gradientUnits="userSpaceOnUse" x1="-216.9407" y1="339.6992" x2="-174.5374" y2="339.6992" gradientTransform="matrix(-1 0 0 1 120 -194)">
					<stop  offset="0" style="stop-color:#B2E8FF"/>
					<stop  offset="1" style="stop-color:#4964BB"/>
				</linearGradient>
				
					<path style="opacity:0.5;fill:url(#SVGID_00000146462572588331451470000010609809363668305538_);enable-background:new    ;" d="
					M302.5,162.2c1.6,1.5,3.4,2.9,5.6,4h0.1h0.1l0,0c0.6-0.3,2.5-1.6,5.3-3.6c7.1-5.3,18.9-16.1,22.3-30.6c0,0,0,0,0-0.1
					c0.3-1.7,0.7-3.5,0.8-5.3l0,0c0-0.5,0.1-0.9,0.1-1.4c0,0-2.3,5.6-6.4,11.4c0,0-4.6,12.8-14.8,19.2c-5.1,3.2-8.9,2.8-11.7,0.8
					c-2.8-1.9-4.6-5.1-5.8-7.5c-1-2.4-1.4-4.7-1.5-6.5c0-0.3,0-0.7,0-1c-0.8-2-1.3-3.9-1.6-5.3l0,0c-0.1-0.5-0.1-0.8-0.2-1l0,0
					c0-0.1,0-0.3,0-0.5c-0.1-0.5-0.1-0.8-0.1-0.8S292.1,151.8,302.5,162.2z"/>
				<path class="st28" d="M237.6,267.1c0.1,0,0.2,0.1,0.2,0.1c0.9,0.1,3.9-0.6,7.7-3.9l0,0l0,0l0,0c3.2-2.9,7.2-7.5,11-15.3
					c7.7-15.5,9.9-25.8,10.3-27.6v-0.2l4.5,7.2c3,9.3,8.9,47.4,8.8,49c-0.1,1.6-5.2,9.6-5.1,10.6l0,0c0.1,1,2.4,3.2,3,5.6
					c0.5,1.6-2.7,6.6-4.7,10.3l0,0c-1.2,2-2,3.6-2,4.2c0,1.7,5.4,10.3,5.4,10.3v4.6l0.1,0.1l0.2,0.2l0.2,0.1
					c2.1,1.6,10.9,7.1,38.5,8.6c32.6,1.7,54.5-8.8,54.5-8.8l-1.6-4.5c0,0,1.5-1.3,1.6-2c0.1-0.7-1.2-2.2-1.2-2.2s3.2-1.7,3.2-3.9
					s-6.6-9-6.4-14.8s5.2-11,5.9-14.2s-8.6-11.5-8.6-11.5c7.9-25,9.4-58.5,9.4-58.5l1.5-1.7c0,0,9.4,21.5,17.9,32
					c1,1.3,2.1,2.4,3.2,3.7c2.4,2.5,4.9,5,7.4,7.1c5.9,5.2,11.3,8.6,12.7,8.3c2.2-0.5,11-17.8,10.5-35.5
					c-0.2-8.4-5.3-17.9-10.5-25.4c-0.6-0.8-1.2-1.6-1.7-2.4c-3.7-5.1-7.4-9.1-9-10.9c-0.7-0.7-1-1-1-1s1.2-3.9,2.1-7.3
					c0-0.1,0-0.1,0-0.2V177c0-0.1,0-0.1,0-0.1c0.5-2.1,0.8-3.8,0.5-4.3c-0.7-1.2-5-2.4-5.7-3.4c-0.7-0.9-3.8-15.6-6.1-17.2
					c-2.2-1.5-6.2-2.7-19.3-7.9c-0.7-0.2-1.3-0.5-2-0.8c-14.8-5.9-29.3-13-29.3-13l-5.6-6.8H336l0.8,1.7v0.1
					c-0.3,1.7-0.8,3.5-1.4,5.1v0.1c-7.6,24.1-27.3,31.8-27.3,31.8c-13.6-10.1-13.4-26-13.4-26v-2.2l-2.5,0.8l-1.7,4.2
					c0,0-3,4.6-14.7,9.7c-2.1,0.9-4.2,2-6.5,3.4c-10.8,6.1-22.7,15.5-23.6,17.5c-0.1,0.2-0.2,0.6-0.3,1l0,0
					c-1.3,5-3.8,23.5-6.2,30.1c-1.5,4.2-3.9,6.4-5.7,7.6l0,0c-1.3,0.9-2.2,1.2-2.2,1.2c-0.2,1-0.3,2.1-0.5,3
					C225.9,244.1,235.4,265.6,237.6,267.1z"/>
				
					<linearGradient id="SVGID_00000036226770226804782830000011903827458615493505_" gradientUnits="userSpaceOnUse" x1="-293.9796" y1="395.7348" x2="-243.4377" y2="395.7348" gradientTransform="matrix(-1 0 0 1 120 -194)">
					<stop  offset="0" style="stop-color:#B2E8FF"/>
					<stop  offset="1" style="stop-color:#4964BB"/>
				</linearGradient>
				
					<path style="opacity:0.5;fill:url(#SVGID_00000036226770226804782830000011903827458615493505_);enable-background:new    ;" d="
					M363.4,207.3l9.5,3.2l1.5-1.7c0,0,9.4,21.5,17.9,32c1,1.3,2.1,2.4,3.2,3.7c2.4,2.5,4.9,5,7.4,7.1l7.3-31.3l3.7-23.8
					c-3.7-5.1-7.4-9.1-9-10.9c-0.7-0.7-1-1-1-1s1.2-3.9,2.1-7.3c0-0.1,0-0.1,0-0.2v-0.1c0-0.1,0-0.1,0-0.1c0.5-2.1,0.8-3.8,0.5-4.3
					c-0.7-1.2-5-2.4-5.7-3.4c-0.7-0.9-3.8-15.6-6.1-17.2c0,0,1.5,14.1-6.6,32.2l-3.9,5.6l-11.6,9.3
					C372.6,198.7,368.2,204.6,363.4,207.3z"/>
				<path class="st30" d="M391,232.8c2.1,15.2,24.6,26.8,24.6,26.8c5.1,0,10.6-8.8,15.7-19.5c5.1-10.9,5.4-41.9,5.7-43.8
					c0.2-2,3.1-5.8,3.4-7.4c0.1-1.6-4.6-5.1-4.6-5.1v-0.1v-0.1c0.5-1,3.4-7.1,3.1-8.2c-0.2-1.2-5.6-3.8-5.6-3.8l-0.3,5.9
					c0,0-12.5-2.3-16.7-12l-0.7-3l-2.1,1.4v12.7c0,0-0.5,2-1,2c-0.6,0-5.6-2.4-6.5-2.1c-1,0.3-2.1,7.2-3.4,8c-1.4,0.9-5,3.4-5.6,4.6
					c-0.2,0.6-0.2,2.5-0.2,4.7c0,2.8,0,6.1-0.5,8C395.6,205.6,389,217.7,391,232.8z"/>
				
					<linearGradient id="SVGID_00000054236830473968218520000016037218683011130503_" gradientUnits="userSpaceOnUse" x1="-128.6714" y1="425.8596" x2="-63.4864" y2="425.8596" gradientTransform="matrix(-1 0 0 1 120 -194)">
					<stop  offset="0" style="stop-color:#81AAF1"/>
					<stop  offset="1" style="stop-color:#AEB3F3"/>
				</linearGradient>
				<path style="fill:url(#SVGID_00000054236830473968218520000016037218683011130503_);" d="M184.1,219.9c1,1.6,6.1,5,7.4,6.2
					c1.3,1.3,0,5.7,0,5.7c21.5,22.8,43.8,34.2,46.1,35.3c0.1,0,0.2,0.1,0.2,0.1c13.5-9,12.4-24.1,7.9-36.5
					c-4.3-12-11.6-22-11.9-22.4l0,0l0,0c-0.2-0.1-4-1.7-6.8-1.9c-0.9-0.1-1.7,0.2-2.5,0.8c-1.6,1-3,2.7-4.4,2
					c-2-1-6.4-11.5-9.4-11.7c-2.1-0.2-5,2-6.9,3.1c-0.8,0.6-1.5,0.9-1.9,0.8c-1-0.2-4.9-4.7-5.1-4.9c-0.2-0.1-2,1.2-2,1.2l1.2,1.5
					c-1.9,10.5-7.9,17.6-7.9,17.6l-4-5.9C184.1,210.8,183,218.3,184.1,219.9z"/>
				<path class="st32" d="M184.1,219.9c1,1.6,6.1,5,7.4,6.2c1.3,1.3,0,5.7,0,5.7c21.5,22.8,43.8,34.2,46.1,35.3
					c0.1,0,0.2,0.1,0.2,0.1c1.7,0.2,10.3-2.2,18.9-19.3c7.7-15.5,9.9-25.8,10.3-27.6V220l-1.9-2.5l-2.8-31.6l-2,6.4
					c-7.4-9-14.5-22.8-14.5-22.8l-0.3,1l0,0c-1.3,5-3.8,23.5-6.2,30.1c-1.5,4.2-3.9,6.4-5.7,7.6l0,0l0,0
					c6.8,6.2,10.3,15.3,11.9,22.4c1.5,6.6,1.6,11.6,1.6,11.6s-1.9-8.9-7.9-19.7c-2.2-3.9-5.3-7.4-8.4-10.3c-2.3-2.2-4.7-3.9-6.6-5.3
					c-1.6,1-3,2.7-4.4,2c9,13.5,8.8,40.4,0.3,35.3c-8.4-5.1-10.4-16-10.4-16c2-13.2,1.4-28.1-0.2-31c-2,0.1-7.5,4-7.9,3.9
					c0.5,15.6-6.8,26-6.8,26l-4.9-7.4c7.1-11.8,6.5-23.4,6.5-23.4c-0.2-0.1-2,1.2-2,1.2l1.2,1.5c-1.9,10.5-7.9,17.6-7.9,17.6l-4-5.9
					C184.1,210.8,183,218.3,184.1,219.9z"/>
				<path class="st28" d="M277,317.2v4.6l0.1,0.1l0.2,0.2l0.2,0.1c2.1,1.6,10.9,7.1,38.5,8.6c32.6,1.7,54.5-8.8,54.5-8.8l-1.6-4.5
					c0,0,1.5-1.3,1.6-2c0.1-0.7-1.2-2.2-1.2-2.2s3.2-1.7,3.2-3.9c0-2-5.3-7.7-6.2-13.1c-0.1-0.6-0.1-1.2-0.1-1.7
					c0.2-5.8,5.2-10.9,5.9-14.2l0,0c0.7-3.2-8.6-11.4-8.6-11.4c7.9-25,9.4-58.5,9.4-58.5l1.5-1.7c0,0,9.4,21.5,17.9,32
					c8.6,10.5,21,19.5,23.2,19.1c5.1,0,10.6-8.8,15.7-19.5c5.1-10.9,5.4-41.9,5.7-43.8c0.2-2,3.1-5.8,3.4-7.4
					c-5.4,9.4-14.2,6.7-14.2,6.7c6.4,0.1,9.6-11.7,9.6-11.7v-0.1v-0.1l3.1-8.2c-0.3,0.3-7.5,8.4-14.6,3.5c-7.2-5.1-10.9-15-10.9-15
					v12.7c0,0-0.5,2-1,2c0.5,5.9,1.6,13,3.1,20c3.2,15.2,7.7,29.8,7.7,29.8s-12-6.6-16.3-23.2c-2.1-8-2.3-14.9-2.2-19.9
					c0.1-4.3,0.7-7.3,0.9-8.3c0-0.1,0-0.1,0-0.2v-0.1c0,0,0,0,0-0.1l-1.2,2.4l-2.2,5.6c-2.5,21.4,2.8,53.5,2.8,53.5
					c-7.7-9.6-9.4-31-9-36.2c0.1-2.4,0.3-5.6,0.5-8c0.1-2.8,0.2-4.7,0.2-4.7l-15.8,9.5l2.9-9.3l-11.6,9.3c0,0-10.4,12.5-21,14
					c-10.6,1.5-49.8,0.6-49.8,0.6s34,2.2,43.9,5.1c9.9,2.9,11.8,6.2,11.8,6.2c-7.2,36.5-47,48.8-48.1,49.3
					c36.1-5.4,52.9-36.1,52.9-36.1s0.6,17.2-2.2,23.8c-2.8,6.6-19.1,22.7-40.1,26c-1.7,0.2-3.5,0.5-5.2,0.6
					c-17.7,0.8-32.4-8.2-33.9-9.3c-0.1,0-0.1-0.1-0.1-0.1l0,0c0.6,0.9,7.9,11.1,37.2,12.3c1.7,0.1,3.5,0,5.2,0l0,0
					c27.2-1.2,41.1-19.3,41.1-19.3s10.1,5.4,3.6,13.4c-0.1,0.1-0.1,0.1-0.2,0.2c-1.9,2.2-6,4.9-11,7.6c-0.1,0.1-0.2,0.1-0.5,0.2
					c-6,3.4-13,6.7-18.4,9.5c0,0,0,0-0.1,0c-3.4,1.7-6,3.2-7.5,4.3l0,0c-1.5,1.2-1.9,1.9-0.3,2c7.6,0.9,36.4-5.4,37.6-3.7
					c1.2,1.7-1.4,6.2-1.4,6.2c-26.4,13.1-82.9,6.6-84.7,6.5c47.3,12.1,86-3.2,86-3.2l-1.3,4.5c0,0-21,7.3-45.9,7.9
					c-24.9,0.6-40.4-5.8-40.4-5.8L277,317.2z"/>
				
					<linearGradient id="SVGID_00000150072695764295295390000001115702748319663493_" gradientUnits="userSpaceOnUse" x1="-176.3568" y1="414.182" x2="-145.1295" y2="414.182" gradientTransform="matrix(-1 0 0 1 120 -194)">
					<stop  offset="0" style="stop-color:#B2FFD5"/>
					<stop  offset="1" style="stop-color:#4964BB"/>
				</linearGradient>
				
					<path style="opacity:0.5;fill:url(#SVGID_00000150072695764295295390000001115702748319663493_);enable-background:new    ;" d="
					M296.4,213.2c0,0-18.9,1-31.2,4.3l6.4,9.7C271.5,227.2,281.2,218.7,296.4,213.2z"/>
				
					<linearGradient id="SVGID_00000158730196424521957090000003064405395852472226_" gradientUnits="userSpaceOnUse" x1="-204.6927" y1="469.0061" x2="-158.777" y2="469.0061" gradientTransform="matrix(-1 0 0 1 120 -194)">
					<stop  offset="0" style="stop-color:#B2FFD5"/>
					<stop  offset="1" style="stop-color:#4964BB"/>
				</linearGradient>
				
					<path style="opacity:0.5;fill:url(#SVGID_00000158730196424521957090000003064405395852472226_);enable-background:new    ;" d="
					M278.8,265c0,0,11.7,9.8,23.2,14.3c11.6,4.5,22.7,5,22.7,5s-6.6,2-23-0.7c-16.3-2.7-21.9-11.4-21.9-11.4L278.8,265z"/>
				
					<linearGradient id="SVGID_00000024684819529378925050000014667891615056783770_" gradientUnits="userSpaceOnUse" x1="-202.566" y1="489.7794" x2="-153.5261" y2="489.7794" gradientTransform="matrix(-1 0 0 1 120 -194)">
					<stop  offset="0" style="stop-color:#B2FFD5"/>
					<stop  offset="1" style="stop-color:#4964BB"/>
				</linearGradient>
				
					<path style="opacity:0.5;fill:url(#SVGID_00000024684819529378925050000014667891615056783770_);enable-background:new    ;" d="
					M273.5,302.7L273.5,302.7c21.7,5.7,49.3-2.4,49-3.4c-0.2-0.9-7.5,0.5-24.5-3c-16.4-3.4-22.4-9.1-22.8-9.5c0.1,1,2.4,3.2,3,5.6
					C278.8,294,275.7,299,273.5,302.7z"/>
				
					<linearGradient id="SVGID_00000048470924033107538760000016021320784291758519_" gradientUnits="userSpaceOnUse" x1="-244.8834" y1="438.4121" x2="-244.8834" y2="383.348" gradientTransform="matrix(-1 0 0 1 120 -194)">
					<stop  offset="0" style="stop-color:#B2FFD5"/>
					<stop  offset="1" style="stop-color:#4964BB"/>
				</linearGradient>
				
					<path style="opacity:0.5;fill:url(#SVGID_00000048470924033107538760000016021320784291758519_);enable-background:new    ;" d="
					M332.6,216.1c18.5,1.9,23.6,7.1,23.6,7.1c5.2,0.7,16.9-12.7,16.9-12.7l1.5-1.7c0,0,9.4,21.5,17.9,32c1,1.3,2.1,2.4,3.2,3.7
					l-1.2-2.8c0,0-2-0.9-2.5-11.4c-0.6-10.4,4.4-26,4.4-28.1c0-2.1,0.8-12.8,0.8-12.8l-15.8,9.5l2.9-9.3l-11.6,9.3
					c0,0-4.5,6.8-16,12.5C345.9,216.5,333.8,216.2,332.6,216.1z"/>
				<path class="st32" d="M374.5,208.7l-11.1-1.4c0,0-4.4,2.9-13.3,6.6l7.4,10.9c0,0-2.9,15.5-11.3,24.3c0,0,22.3-12.4,25.4-22.9
					L374.5,208.7z"/>
				
					<linearGradient id="SVGID_00000029005178196511346400000002978123878940155529_" gradientUnits="userSpaceOnUse" x1="-306.4128" y1="389.6132" x2="-306.4128" y2="358.0768" gradientTransform="matrix(-1 0 0 1 120 -194)">
					<stop  offset="0" style="stop-color:#B2FFD5"/>
					<stop  offset="1" style="stop-color:#4964BB"/>
				</linearGradient>
				
					<path style="opacity:0.5;fill:url(#SVGID_00000029005178196511346400000002978123878940155529_);enable-background:new    ;" d="
					M439.1,175.6l-3.1,8.3c0,0-3.2,11.2-9.6,11.7s-12.6-18.9-12.6-18.9V164c0,0,6.8,14.6,14.1,16.2
					C435.1,182,439.1,175.6,439.1,175.6z"/>
				
					<linearGradient id="SVGID_00000083075402641261595380000004908914881292499375_" gradientUnits="userSpaceOnUse" x1="-280.7948" y1="361.8474" x2="-268.0725" y2="361.8474" gradientTransform="matrix(-1 0 0 1 120 -194)">
					<stop  offset="0" style="stop-color:#B2FFD5"/>
					<stop  offset="1" style="stop-color:#4964BB"/>
				</linearGradient>
				
					<path style="opacity:0.5;fill:url(#SVGID_00000083075402641261595380000004908914881292499375_);enable-background:new    ;" d="
					M400.8,169c0,0-5.7,11.3-12.7,14.9c0,0,8.3-20.2,6.6-32.2C394.7,151.8,397.8,153.7,400.8,169z"/>
				
					<linearGradient id="SVGID_00000063591968084217561980000013641259057017667713_" gradientUnits="userSpaceOnUse" x1="-142.7007" y1="438.4121" x2="-142.7007" y2="379.9593" gradientTransform="matrix(-1 0 0 1 120 -194)">
					<stop  offset="0" style="stop-color:#B2E8FF"/>
					<stop  offset="1" style="stop-color:#4964BB"/>
				</linearGradient>
				
					<path style="opacity:0.76;fill:url(#SVGID_00000063591968084217561980000013641259057017667713_);enable-background:new    ;" d="
					M262.4,185.9l-2,6.4l-2,52.2c0,0,5.1-9.9,8.6-24.1l-1.9-2.8C265.1,217.5,262,197.8,262.4,185.9z"/>
				
					<linearGradient id="SVGID_00000052074037103237147180000008743035245638820493_" gradientUnits="userSpaceOnUse" x1="-76.9304" y1="425.8055" x2="-76.9304" y2="395.2722" gradientTransform="matrix(-1 0 0 1 120 -194)">
					<stop  offset="0" style="stop-color:#B2E8FF"/>
					<stop  offset="1" style="stop-color:#4964BB"/>
				</linearGradient>
				
					<path style="opacity:0.5;fill:url(#SVGID_00000052074037103237147180000008743035245638820493_);enable-background:new    ;" d="
					M201.7,201.3c0,0,1.2,25.6-9.7,27.8l-0.6,2.8C191.5,231.8,205.6,231.2,201.7,201.3z"/>
				
					<linearGradient id="SVGID_00000154427381968197355260000018272452641154998440_" gradientUnits="userSpaceOnUse" x1="-111.5891" y1="424.4177" x2="-111.5891" y2="401.055" gradientTransform="matrix(-1 0 0 1 120 -194)">
					<stop  offset="0" style="stop-color:#B2E8FF"/>
					<stop  offset="1" style="stop-color:#4964BB"/>
				</linearGradient>
				
					<path style="opacity:0.3;fill:url(#SVGID_00000154427381968197355260000018272452641154998440_);enable-background:new    ;" d="
					M219.9,209c0,0,0.5,0.9,4.4-2c0,0,13.6,9.7,19,23.4c0,0-8.4-12.6-13-13.9c-4.5-1.3-5.6,3.7-5.6,3.7S222.9,213.1,219.9,209z"/>
				
					<linearGradient id="SVGID_00000075866963873639212500000010455057006269395623_" gradientUnits="userSpaceOnUse" x1="-312.9013" y1="391.6494" x2="-312.9013" y2="382.9779" gradientTransform="matrix(-1 0 0 1 120 -194)">
					<stop  offset="0" style="stop-color:#B2FFD5"/>
					<stop  offset="1" style="stop-color:#4964BB"/>
				</linearGradient>
				
					<path style="opacity:0.5;fill:url(#SVGID_00000075866963873639212500000010455057006269395623_);enable-background:new    ;" d="
					M440.5,189c0,0-5.3,9.7-15.2,6.7c0,0,5.9,3.9,11.8,0.7C437.2,196.4,440.8,190.1,440.5,189z"/>
				
					<linearGradient id="SVGID_00000145767042907329045320000003092673716514730917_" gradientUnits="userSpaceOnUse" x1="-289.8023" y1="418.0878" x2="-289.8023" y2="370.6685" gradientTransform="matrix(-1 0 0 1 120 -194)">
					<stop  offset="0" style="stop-color:#B2E8FF"/>
					<stop  offset="1" style="stop-color:#4964BB"/>
				</linearGradient>
				
					<path style="opacity:0.5;fill:url(#SVGID_00000145767042907329045320000003092673716514730917_);enable-background:new    ;" d="
					M406,176.8c0,0-7.3,27.1,11.7,47.4c0,0-12.3-6.2-15-20.8C399.9,188.7,406,176.8,406,176.8z"/>
				
					<linearGradient id="SVGID_00000111891411583335879620000013245049387711710868_" gradientUnits="userSpaceOnUse" x1="-167.8937" y1="384.7289" x2="-167.8937" y2="349.0651" gradientTransform="matrix(-1 0 0 1 120 -194)">
					<stop  offset="0" style="stop-color:#B2FFD5"/>
					<stop  offset="1" style="stop-color:#4964BB"/>
				</linearGradient>
				
					<path style="opacity:0.5;fill:url(#SVGID_00000111891411583335879620000013245049387711710868_);enable-background:new    ;" d="
					M276.3,155c0,0,0.8,12.3,6.7,20.9c5.9,8.8,17.5,14.7,17.5,14.7s-14.6-5.3-21.3-13C272.5,170.3,276.3,155,276.3,155z"/>
				
					<linearGradient id="SVGID_00000157296551328241736100000007625264961028539569_" gradientUnits="userSpaceOnUse" x1="-214.5858" y1="379.8899" x2="-214.5858" y2="330.6675" gradientTransform="matrix(-1 0 0 1 120 -194)">
					<stop  offset="0" style="stop-color:#B2FFD5"/>
					<stop  offset="1" style="stop-color:#4964BB"/>
				</linearGradient>
				
					<path style="opacity:0.5;fill:url(#SVGID_00000157296551328241736100000007625264961028539569_);enable-background:new    ;" d="
					M350.8,136.7c0,0,0,10.2-3.2,20.6s-31.8,28.6-31.8,28.6s29.4-12.3,35.2-23.2C356.5,151.8,350.8,136.7,350.8,136.7z"/>
				
					<linearGradient id="SVGID_00000027582492486354587900000014279290795507270790_" gradientUnits="userSpaceOnUse" x1="-224.123" y1="341.434" x2="-170.574" y2="341.434" gradientTransform="matrix(-1 0 0 1 120 -194)">
					<stop  offset="0" style="stop-color:#B2E8FF"/>
					<stop  offset="1" style="stop-color:#4964BB"/>
				</linearGradient>
				
					<path style="opacity:0.5;fill:url(#SVGID_00000027582492486354587900000014279290795507270790_);enable-background:new    ;" d="
					M290.6,138.9c0.9,10.8,4.2,18.3,7.6,23.2c4.9,6.9,10.1,9.4,10.1,9.4c5.2-2.3,9.7-5.1,13.6-8.2c16.5-13.2,21.9-31.5,22.2-33
					c-6.9,16.8-17.2,27.1-25,32.7c-6.2,4.6-10.9,6.4-10.9,6.4v-5.3c1.3-0.5,2.4-1,3.6-1.6c13.6-6.8,20.8-21.3,24.2-30.5
					c0,0,0,0,0-0.1c1.9-5,2.5-8.6,2.5-8.6h-2.4l0.8,1.7v0.1c-0.3,1.7-0.8,3.5-1.4,5.1v0.1c-7.6,24.1-27.3,31.8-27.3,31.8
					c-13.6-10.1-13.4-26-13.4-26V134l-2.5,0.8L290.6,138.9z"/>
				
					<linearGradient id="SVGID_00000065784858582632000700000012632159824325459131_" gradientUnits="userSpaceOnUse" x1="-86.5398" y1="422.3358" x2="-86.5398" y2="391.3734" gradientTransform="matrix(-1 0 0 1 120 -194)">
					<stop  offset="0" style="stop-color:#B2E8FF"/>
					<stop  offset="1" style="stop-color:#4964BB"/>
				</linearGradient>
				
					<path style="opacity:0.3;fill:url(#SVGID_00000065784858582632000700000012632159824325459131_);enable-background:new    ;" d="
					M209.6,197.3c0,0,3.7,12.1,0.2,31c0,0-1.7-23.9-3.1-26c-1.4-2.1-5-1-5-1S207.5,198,209.6,197.3z"/>
				<path class="st28" d="M245.6,263.3c3.2-2.9,7.2-7.5,11-15.3c7.7-15.5,9.9-25.8,10.3-27.6l-1.9-2.8l-2.4-23.8l-2.3-1.4
					c0,0-8.2-9.1-14.5-22.8c-0.1,0.2-0.2,0.6-0.3,1l0,0c-1.3,5-3.8,23.5-6.2,30.1c-1.5,4.2-3.9,6.4-5.7,7.6c0,0,14.2,21.2,14.9,36.2
					C249.3,258.1,246.2,262.6,245.6,263.3z"/>
				
					<linearGradient id="SVGID_00000157297675763412501310000016780769800726036352_" gradientUnits="userSpaceOnUse" x1="-231.0624" y1="501.2831" x2="-231.0624" y2="474.4045" gradientTransform="matrix(-1 0 0 1 120 -194)">
					<stop  offset="0" style="stop-color:#B2E8FF"/>
					<stop  offset="1" style="stop-color:#4964BB"/>
				</linearGradient>
				
					<path style="opacity:0.5;fill:url(#SVGID_00000157297675763412501310000016780769800726036352_);enable-background:new    ;" d="
					M330.1,307.3c0,0,25.7-4.2,36.1-11l0,0c-0.1-0.6-0.1-1.2-0.1-1.7c0.2-5.8,5.2-10.9,5.9-14.2c-0.1,0.3-0.9,2.1-4.5,5.2
					c-2.3,2-5.8,4.5-11,7.6c-0.1,0.1-0.2,0.1-0.5,0.2c-7.4,4.4-13.8,7.3-18.4,9.5c0,0,0,0-0.1,0
					C333.6,304.9,330.9,306.2,330.1,307.3C330.1,307.2,330.1,307.3,330.1,307.3z"/>
				
					<linearGradient id="SVGID_00000052789317679556287880000011283801185852435082_" gradientUnits="userSpaceOnUse" x1="-178.9591" y1="493.8997" x2="-178.9591" y2="480.8424" gradientTransform="matrix(-1 0 0 1 120 -194)">
					<stop  offset="0" style="stop-color:#B2E8FF"/>
					<stop  offset="1" style="stop-color:#4964BB"/>
				</linearGradient>
				
					<path style="opacity:0.5;fill:url(#SVGID_00000052789317679556287880000011283801185852435082_);enable-background:new    ;" d="
					M275.3,286.9c0.1,1,2.4,3.2,3,5.6c0,0,9.4,9.9,44.3,6.9c-0.2-1-7.5,0.5-24.5-3C281.6,293.1,275.7,287.2,275.3,286.9z"/>
			</g>
			<g>
				
					<linearGradient id="SVGID_00000090996635966999369210000000640009662175291024_" gradientUnits="userSpaceOnUse" x1="-179.5444" y1="326.1248" x2="-179.5444" y2="236.8298" gradientTransform="matrix(-1 0 0 1 120 -194)">
					<stop  offset="1.600000e-02" style="stop-color:#FFC2A9"/>
					<stop  offset="1" style="stop-color:#FF9595"/>
				</linearGradient>
				<path style="fill:url(#SVGID_00000090996635966999369210000000640009662175291024_);" d="M286.4,131.6c0,0,10.4,2.3,21.9-3.2
					c11.5-5.6,21-21.9,21.7-26c0.6-4-4.4-14.8-4.4-23.1s4-22.7-2.8-30.4s-38.4-8.9-48.7,1c0,0-3.1,8-3.1,12.5c0,1,0.2,2.7,0.5,4.5
					c0.1,0.7,0.2,1.4,0.3,2.2c0.9,5.4,2.2,12.1,1.6,15c-0.2,1-0.6,2-0.9,2.9l0,0c-1.3,2.9-3.1,5.2-3.5,7.7
					C268.6,98,273,121.5,286.4,131.6z"/>
				
					<linearGradient id="SVGID_00000151501856695030011220000007895573015774749318_" gradientUnits="userSpaceOnUse" x1="-212.7627" y1="290.0915" x2="-212.7627" y2="263.7648" gradientTransform="matrix(-1 0 0 1 120 -194)">
					<stop  offset="1.600000e-02" style="stop-color:#FFC2A9"/>
					<stop  offset="1" style="stop-color:#FF9595"/>
				</linearGradient>
				<path style="fill:url(#SVGID_00000151501856695030011220000007895573015774749318_);" d="M325.6,76.9c0,0,2.9-7.1,9.9-7.2
					c0,0,4.2,1.6,4.9,4.9c0,0-1.5,11.5-3.2,16.9c-1.7,5.3-8.2,4.6-8.2,4.6S323.4,87.5,325.6,76.9z"/>
				
					<linearGradient id="SVGID_00000129177654631957537580000009055491004608588989_" gradientUnits="userSpaceOnUse" x1="-167.112" y1="300.0388" x2="-166.0081" y2="294.2914" gradientTransform="matrix(-1 0 0 1 120 -194)">
					<stop  offset="0" style="stop-color:#E1616A"/>
					<stop  offset="1" style="stop-color:#FF8883"/>
				</linearGradient>
				<path style="fill:url(#SVGID_00000129177654631957537580000009055491004608588989_);" d="M298.3,100.4c0,0-2.4-0.2-3.4,0.6
					s-4.7,4.4-9.5,5.3c-4.7,1-7.9-3-8.9-3.2c-1-0.2-2.1,1.3-2.1,1.3s0.5-1.6,2.9-2.4c0,0,1,3.8,7.9,2.4c6.8-1.4,9.7-4.3,9.7-4.3
					l0.3-0.6C295.2,99.5,297.2,99.8,298.3,100.4z"/>
				
					<linearGradient id="SVGID_00000175298815884193484670000012056962471934536381_" gradientUnits="userSpaceOnUse" x1="-176.9929" y1="295.649" x2="-176.9929" y2="238.1676" gradientTransform="matrix(-1 0 0 1 120 -194)">
					<stop  offset="0" style="stop-color:#FFEADB"/>
					<stop  offset="0.9944" style="stop-color:#C27CB6"/>
				</linearGradient>
				
					<path style="opacity:0.6;fill:url(#SVGID_00000175298815884193484670000012056962471934536381_);enable-background:new    ;" d="
					M308.4,65l-0.1-0.7c0,0-6.8-11.9-20.2-12.3c-13.5-0.3-16.5,8.1-16.5,8.1l-2.5-3.8l5.7-11.6l39.6-0.7l9.6,7.7l1.3,19.1L320.8,96
					l-10.4,5.6l-2.9-2.7c1-8.4,7.4-16.1,7.4-16.1l-4.5-3.1c0,0-11.7,5.7-18.5,3.9c0,0-5.1-14.9-4.9-25.9
					C286.9,57.9,304.3,60.4,308.4,65z"/>
				
					<linearGradient id="SVGID_00000010271097667656714010000011664114373432602292_" gradientUnits="userSpaceOnUse" x1="-188.9634" y1="255.1541" x2="-166.3652" y2="255.1541" gradientTransform="matrix(-1 0 0 1 120 -194)">
					<stop  offset="5.600000e-03" style="stop-color:#651D4F"/>
					<stop  offset="1" style="stop-color:#93364F"/>
				</linearGradient>
				<path style="fill:url(#SVGID_00000010271097667656714010000011664114373432602292_);" d="M309,66c0,0-0.7-4.3-8-6
					c-8.1-2-14.7-3.6-14.7-3.6s1.4,4.7,4.2,6.5c0,0,8.6-0.3,13,0.7C307.7,64.5,309,66,309,66z"/>
				
					<linearGradient id="SVGID_00000103247710920345062410000014776433906690383285_" gradientUnits="userSpaceOnUse" x1="-158.3629" y1="259.5491" x2="-150.937" y2="259.5491" gradientTransform="matrix(-1 0 0 1 120 -194)">
					<stop  offset="5.600000e-03" style="stop-color:#651D4F"/>
					<stop  offset="1" style="stop-color:#93364F"/>
				</linearGradient>
				<path style="fill:url(#SVGID_00000103247710920345062410000014776433906690383285_);" d="M271.5,60.2c0,0,4.2,3.1,6.9,10.8
					c0,0-2.7-3.5-5.2-3.5c-1.7,0-1.4,1.7-1.4,1.7S270.1,64.6,271.5,60.2z"/>
				
					<linearGradient id="SVGID_00000134958160517812119710000007701404194867898785_" gradientUnits="userSpaceOnUse" x1="-179.8843" y1="272.0978" x2="-179.8843" y2="260.7022" gradientTransform="matrix(-1 0 0 1 120 -194)">
					<stop  offset="0" style="stop-color:#CF6074"/>
					<stop  offset="1" style="stop-color:#F37270"/>
				</linearGradient>
				<path style="fill:url(#SVGID_00000134958160517812119710000007701404194867898785_);" d="M306.3,78.1c0,0-0.5-9.1-9.4-11.5
					c0,0-3.1,4.2-3.5,8.8C293.5,75.4,298.1,74.6,306.3,78.1z"/>
				
					<linearGradient id="SVGID_00000088133625210985891020000014156993605110407811_" gradientUnits="userSpaceOnUse" x1="-157.1433" y1="275.7075" x2="-157.1433" y2="265.7911" gradientTransform="matrix(-1 0 0 1 120 -194)">
					<stop  offset="0" style="stop-color:#CF6074"/>
					<stop  offset="1" style="stop-color:#FF817F"/>
				</linearGradient>
				<path style="fill:url(#SVGID_00000088133625210985891020000014156993605110407811_);" d="M280.9,81.7c0,0-0.7-7.3-4.9-9.9
					c0,0-2.9,2.1-2.5,8.2C273.5,79.9,275.9,79,280.9,81.7z"/>
				<path class="st58" d="M306.3,78.1c0,0-2.9,3.6-11,4.3c0,0-1.5-2.3-1.4-6.9C293.9,75.4,301.3,74.7,306.3,78.1z"/>
				<path class="st58" d="M280.9,81.7v1c0,0-1.3,2.5-5.7,3c0,0-1.4-2.2-1.5-5.9C273.6,79.9,276.5,79.3,280.9,81.7z"/>
				<path class="st59" d="M297.6,75.2c0,0,2.1,2.5,1.9,6.4c0,0-2.7,0.6-4.2,0.7c0,0-1.7-2.4-1.4-6.9
					C293.9,75.4,296.2,74.9,297.6,75.2z"/>
				<path class="st59" d="M276.6,80.1c0,0,1.2,1.3,1.4,5.1c0,0-1.6,0.7-2.9,0.7c0,0-1.6-2.3-1.5-5.9
					C273.6,79.9,274.7,79.5,276.6,80.1z"/>
				<path class="st60" d="M298.3,81.9c0,0,0.7-4.9-2.1-6.8l-2.3,0.3c0,0-0.8,3.9,1.4,6.9C295.3,82.4,297.6,82,298.3,81.9z"/>
				<path class="st60" d="M275.5,79.8c0,0,1,2.2,1.5,5.6c0,0-0.8,0.3-2,0.3c0,0-1.6-2-1.5-5.9C273.6,79.9,274.7,79.6,275.5,79.8z"/>
				<path class="st61" d="M306.3,78.1c0,0-5.3-3.1-14.6-1.4l1.7-1.3C293.5,75.4,299.9,73.5,306.3,78.1z"/>
				<path class="st61" d="M280.9,81.7c0,0-4.3-2.3-9.4-1l2.1-1.5C273.6,79.1,276.9,78.6,280.9,81.7z"/>
				<path class="st11" d="M300.4,78.1c0,0-1.5-0.3-2.8,1C297.6,79.1,299.5,79.6,300.4,78.1z"/>
				<path class="st11" d="M278.9,82.4c0,0-2.3-0.5-3.1,0.6C275.8,83,277,83.8,278.9,82.4z"/>
				<path class="st62" d="M305.7,78.7c0,0-4.2,4.2-10.9,5.1l-0.1-2.4l0.6,1C295.3,82.4,301.7,81.9,305.7,78.7z"/>
				<path class="st62" d="M280.9,82.7c0,0-0.7,2.7-6.1,3.8l0.2-1.3l0.3,0.5C275.1,85.8,279,85.3,280.9,82.7z"/>
				<path class="st63" d="M291.7,93.5c0,0-2.1-0.5-5.8,0s-7.9,1.5-10.2,0c0,0,3,3,5.7,3.5c2.7,0.5,6.6-1.9,6.6-1.9h1.7
					C289.9,95.1,291.2,94.4,291.7,93.5z"/>
				<path class="st64" d="M289.6,95.1c0,0-0.9-0.6-1.7-0.5c-0.8,0.1-1.5,1.3-1.5,1.3S288,95.1,289.6,95.1z"/>
				<path class="st25" d="M275.8,93.5c-0.9-0.9,4-9.9,6.5-10.3c2.4-0.3,4.6,10.1,4.6,10.1s-3.4,0.5-6.6,0.9
					C277,94.5,275.8,93.5,275.8,93.5z"/>
				
					<linearGradient id="SVGID_00000166665046797583592220000004060224791130103481_" gradientUnits="userSpaceOnUse" x1="-156.1538" y1="281.4776" x2="-156.1538" y2="259.1637" gradientTransform="matrix(-1 0 0 1 120 -194)">
					<stop  offset="0" style="stop-color:#FFEADB"/>
					<stop  offset="0.9944" style="stop-color:#C27CB6"/>
				</linearGradient>
				
					<path style="opacity:0.6;fill:url(#SVGID_00000166665046797583592220000004060224791130103481_);enable-background:new    ;" d="
					M272.2,65.1c1.4-0.2,6.2,5.7,6.2,5.7s3,9.5,2.4,12.3c-0.6,2.8-8.1,4.3-8.1,4.3l-0.3-0.5l0,0c0.3-0.9,0.7-1.9,0.9-2.9
					c0.6-2.9-0.7-9.6-1.6-15c0,0-0.3-1.2-0.3-2.2C271.4,66.1,271.5,65.3,272.2,65.1z"/>
				
					<linearGradient id="SVGID_00000045577933004652309660000000022559904533696944_" gradientUnits="userSpaceOnUse" x1="-178.2631" y1="327.3324" x2="-178.2631" y2="219.0114" gradientTransform="matrix(-1 0 0 1 120 -194)">
					<stop  offset="5.600000e-03" style="stop-color:#651D4F"/>
					<stop  offset="1" style="stop-color:#93364F"/>
				</linearGradient>
				<path style="fill:url(#SVGID_00000045577933004652309660000000022559904533696944_);" d="M269.8,101.2c0.1,1,3.9,24.5,14.7,31.6
					l0,0c0,0,9.8,2.4,24.8-3.1c0,0,16.8-9.6,20.8-25.7c0,0,0.9-3.8-1-7.9c0,0-2.8-1.2-4-8.6c-1.4-8.2,2.9-13.9,2.9-13.9
					s-0.6-4.4,0.7-9.5c1.3-5.1,3.8-9.9,2.7-13.5c-1.2-3.6-10.3-5.9-14.5-9.3c-0.7-0.6-1.3-1.2-1.9-1.7l0,0c0,0,0,0-0.1-0.1
					c-0.6-0.6-1-1.2-1.4-1.7l-0.5-0.6l-0.5-0.5c-1.3-1.4-2.8-2.8-5.9-4.3c-6.4-2.9-10.9-3.4-15.4-7.5l0,0c0,0-0.2,4.2,1.3,7.7
					c0,0-14-3.1-17.3-3.1s-4.4,10.5-4.4,10.5l0,0c-0.2,0.3-4.2,5.6-5.6,9.3c-0.8,2,6,15.7,6,15.7s-0.8-6.6,3.4-12.6l1.5,1.4
					c0,0,0-0.1,0.2-0.3c0.6-1.2,2.9-4.9,6.8-5.9c0,0,0,0.8,12.4-0.6c12.4-1.3,17.5-2,20.4,0.9c3,2.9,1.9,9.5-0.9,11.8
					c0,0,7.5,8,7.4,19.3c-0.2,10.9-8.4,19-11.9,20.2c-0.1,0.1-0.2,0.1-0.3,0.1c-3.2,0.9-4.9-4.9-23.7-2.4c-13.3,1.7-12.4,3.5-14,6.6
					C272,104.6,270,101.5,269.8,101.2z M273.6,108.3c-0.1-5,3.5-6.6,4-6.2c0.7,0.2,2.7,1.3,8.1,0.9s9.1-3.5,9.1-3.5s7.1,0.7,9.1,6.5
					c2.1,5.7-7.3,9.5-9.1,9.4c-1.7-0.1-6.1-5.1-6.1-5.1s-4.7-0.3-5.7,0.5c-0.9,0.9-1.4,7.5-4,8C276.5,119,273.6,111.8,273.6,108.3z"
					/>
				<path class="st67" d="M279.7,85.2c0,0-4.7,5.9-4.3,8.1c0.5,2.4,6,3.7,6,3.7s-4.4-1.5-5.3-3.7C276.1,93.2,277.3,88.7,279.7,85.2z
					"/>
				
					<linearGradient id="SVGID_00000122000462646050812670000013179127458262707358_" gradientUnits="userSpaceOnUse" x1="-149.7884" y1="259.0286" x2="-149.7884" y2="234.0468" gradientTransform="matrix(-1 0 0 1 120 -194)">
					<stop  offset="0" style="stop-color:#FFEADB"/>
					<stop  offset="0.9944" style="stop-color:#8860C7"/>
				</linearGradient>
				
					<path style="opacity:0.6;fill:url(#SVGID_00000122000462646050812670000013179127458262707358_);enable-background:new    ;" d="
					M271.1,65c0,0-0.8-6.6,3.4-12.6c-3.4-6-3.8-12.4-3.8-12.4l0,0c-1.2,2.8-1.7,8.2-1.7,8.2l-3.8,1C264.4,51.3,271.1,65,271.1,65z"
					/>
				
					<linearGradient id="SVGID_00000031890893767303821010000014670356192925418170_" gradientUnits="userSpaceOnUse" x1="-183.848" y1="327.2462" x2="-183.848" y2="219.0409" gradientTransform="matrix(-1 0 0 1 120 -194)">
					<stop  offset="0" style="stop-color:#CCC2DB"/>
					<stop  offset="0.9944" style="stop-color:#8860C7"/>
				</linearGradient>
				
					<path style="opacity:0.6;fill:url(#SVGID_00000031890893767303821010000014670356192925418170_);enable-background:new    ;" d="
					M276.3,53.5c0.6-1.2,2.9-4.9,6.8-5.9c0,0,0,0.8,12.4-0.6c12.4-1.3,17.5-2,20.4,0.9c3,2.9,1.9,9.5-0.9,11.8c0,0,7.5,8,7.4,19.3
					c-0.2,10.9-8.4,19-11.9,20.2l0.1,1.2c0,0-0.6,24.9-6.7,26.8c-6,2-18.6,0.9-19.8,2.1c-1.2,1.2,0.1,3,0.2,3.2l0,0
					c0,0,9.8,2.4,24.8-3.1c0,0,16.8-9.6,20.8-25.7c0,0,0.9-3.8-1-7.9c0,0-2.8-1.2-4-8.6c-1.4-8.2,2.9-13.9,2.9-13.9
					s-0.6-4.4,0.7-9.5c1.3-5.1,3.8-9.9,2.7-13.5c-7.1,1-11.6-2.5-11.6-2.5s-1.3-1.7-6.7-2.5s-27.1,1.4-27.1,1.4s2.2-1.9,6.8-3
					c4.4-1.2,19.2,0.2,20.8,0.3c-1.7-0.3-18.5-3.2-20.5-2.7c-2.1,0.6-9.4,3.9-9.4,3.9c0.7-3.4,7.2-11.3,7.2-11.3s9.3,0.1,15.3,1.4
					c5.3,1.2,8.3,3.6,8.9,4l-1.4-1.7l-0.5-0.6l-0.5-0.5l-2.1-0.3l-10.5-4.3c-3.6-1.9-8.1-6.6-8.7-7.2l0,0c0,0-0.2,4.2,1.3,7.7
					c-8.9-1.2-11.9-0.6-11.9-0.6C276.5,38,276.3,53.5,276.3,53.5z"/>
				
					<linearGradient id="SVGID_00000044140758998392383490000014976608344952263318_" gradientUnits="userSpaceOnUse" x1="-176.5945" y1="327.2167" x2="-176.5945" y2="322.5638" gradientTransform="matrix(-1 0 0 1 120 -194)">
					<stop  offset="0" style="stop-color:#776D7E"/>
					<stop  offset="1" style="stop-color:#9D68C2"/>
				</linearGradient>
				
					<path style="opacity:0.5;fill:url(#SVGID_00000044140758998392383490000014976608344952263318_);enable-background:new    ;" d="
					M309.2,129.6c0,0-5.4-1.3-13.8-0.9c-8.3,0.3-13,0.3-11,4C284.6,132.7,294.9,135.1,309.2,129.6z"/>
				<path class="st71" d="M280.5,32.2c0,0-5-2-7.1-1.6c0,0,0.8-1,1.6-1.3c0.8-0.2,17.3,3.5,17.3,3.5S282.1,31.5,280.5,32.2z"/>
				<path class="st71" d="M290.7,34c0,0,0.3,5.4,2.2,7.4l20.5,2.7l6-1c0,0-2.3-1-4.9-3.9C311.9,36.1,298.6,33.2,290.7,34z"/>
				<path class="st71" d="M270.8,40c0,0-1.6,5.4-1.7,8.2l-3.8,1C265.1,49.3,266.3,45.3,270.8,40z"/>
				
					<linearGradient id="SVGID_00000003790205851219342950000016184102755513525644_" gradientUnits="userSpaceOnUse" x1="-208.9958" y1="283.9028" x2="-220.7755" y2="269.4713" gradientTransform="matrix(-1 0 0 1 120 -194)">
					<stop  offset="0" style="stop-color:#FFEADB"/>
					<stop  offset="0.9944" style="stop-color:#B060F4"/>
				</linearGradient>
				
					<path style="opacity:0.8;fill:url(#SVGID_00000003790205851219342950000016184102755513525644_);enable-background:new    ;" d="
					M326.5,86.7c0,0,1.4-6.9,5-10.3C335,72.9,339,74,339,74s-1,12.8-2.2,16c-1.2,3.1-2.9,3.9-2.9,3.9s2.4-2.2,2.8-6.4
					c0.3-4.2,0.5-10.2-0.5-10.9s-4.7,2.1-4.7,2.1s1.2,1.5,1.9,5.2c0.7,3.7-2,6.5-2.9,6.5c-0.9,0,0-4.4-0.1-5.6
					C330.2,83.8,328,83.8,326.5,86.7z"/>
				
					<linearGradient id="SVGID_00000129194817292417590510000004622652537289677721_" gradientUnits="userSpaceOnUse" x1="-207.7353" y1="282.0145" x2="-213.5371" y2="274.9067" gradientTransform="matrix(-1 0 0 1 120 -194)">
					<stop  offset="0" style="stop-color:#FFEADB"/>
					<stop  offset="0.9944" style="stop-color:#B060F4"/>
				</linearGradient>
				
					<path style="opacity:0.8;fill:url(#SVGID_00000129194817292417590510000004622652537289677721_);enable-background:new    ;" d="
					M330,78.1c0,0,3.8,2.5,3.5,7.7c-0.5,5.2-3.4,5-3.4,3.8c0-1,0.6-3.9,0.2-5.4c-0.3-1.6-2.9-0.9-2.9-0.9S329.2,79.1,330,78.1z"/>
				<path class="st71" d="M305.7,43.5c0,0-5.8,2-12.3,2.5c-6.5,0.6-7.7,0.7-7.7,0.7s2.5-2.5,8.1-3.2
					C299.2,42.8,305.7,43.5,305.7,43.5z"/>
				
					<linearGradient id="SVGID_00000084491490899162865210000002798488660563375793_" gradientUnits="userSpaceOnUse" x1="-157.5048" y1="298.7366" x2="-151.4478" y2="298.7366" gradientTransform="matrix(-1 0 0 1 120 -194)">
					<stop  offset="5.600000e-03" style="stop-color:#651D4F"/>
					<stop  offset="1" style="stop-color:#C46376"/>
				</linearGradient>
				<path style="fill:url(#SVGID_00000084491490899162865210000002798488660563375793_);" d="M277.5,101.7c0,0-2.8,0-3.9,3.5
					c-0.9,2.8-1.2,5.2-1.2,5.2l-1-3.8c0,0,1.3-4.9,2.7-6c0.9-0.8,2.7-1.6,3.5-1.4V101.7z"/>
				
					<linearGradient id="SVGID_00000089533136536421091380000002571487465500309428_" gradientUnits="userSpaceOnUse" x1="-164.9854" y1="294.1971" x2="-158.452" y2="294.1971" gradientTransform="matrix(-1 0 0 1 120 -194)">
					<stop  offset="5.600000e-03" style="stop-color:#651D4F"/>
					<stop  offset="1" style="stop-color:#C46376"/>
				</linearGradient>
				<path style="fill:url(#SVGID_00000089533136536421091380000002571487465500309428_);" d="M285,98.1l-0.5,4.2
					c0,0-3.4,0.2-5.7-0.7l-0.3-2.5C278.4,99.1,282.8,98,285,98.1z"/>
			</g>
		</g>
	</g>
	<g>
		<g>
			<path class="st76" d="M236.9,118l-3.7,106.2c-0.1,4.2-3.6,7.5-7.9,7.5H42.5c-4.3,0-7.7-3.4-7.9-7.6l-2.5-107.4
				c-0.1-4.4,3.5-8,7.9-8l189.2,1.3C233.6,109.9,237.1,113.6,236.9,118z"/>
			<g>
				<path class="st77" d="M34.4,224.1l-2.5-107.3c0-2.2,0.8-4.3,2.3-5.9s3.6-2.4,5.8-2.4l189.2,1.3c2.2,0,4.3,0.9,5.8,2.5
					s2.3,3.7,2.2,5.9l-3.7,106.2c-0.1,4.4-3.7,7.9-8.1,7.9H42.5C38.1,232,34.5,228.6,34.4,224.1z M34.6,111.2
					c-1.4,1.5-2.2,3.4-2.2,5.4L35,224.1c0.1,4,3.5,7.4,7.5,7.4h182.9c4,0,7.4-3.2,7.5-7.3l3.7-106.2c0.1-2.1-0.7-4-2.1-5.4
					c-1.4-1.4-3.4-2.3-5.4-2.3L39.8,109l0,0C38,109,36,109.8,34.6,111.2z"/>
			</g>
			<path class="st78" d="M236.7,123.4H32.3l-0.3-5.6c-0.3-5,3.7-9.1,8.7-9l189.1,1.5c3.9,0,7.1,3.2,7.1,7.2L236.7,123.4z"/>
			
				<linearGradient id="SVGID_00000007398471724625873040000016650120318390509984_" gradientUnits="userSpaceOnUse" x1="-75.0994" y1="387.4075" x2="-75.0994" y2="325.6469" gradientTransform="matrix(-1 0 0 1 120 -194)">
				<stop  offset="0" style="stop-color:#CCEDFF"/>
				<stop  offset="1" style="stop-color:#9D68C2"/>
			</linearGradient>
			
				<polygon style="opacity:0.3;fill:url(#SVGID_00000007398471724625873040000016650120318390509984_);enable-background:new    ;" points="
				226.4,132 226.4,193.4 163.8,193.4 163.8,131.6 			"/>
			
				<linearGradient id="SVGID_00000038387256538444896200000010173563295516037014_" gradientUnits="userSpaceOnUse" x1="30.1482" y1="357.3368" x2="30.1482" y2="330.1575" gradientTransform="matrix(-1 0 0 1 120 -194)">
				<stop  offset="0" style="stop-color:#CCEDFF"/>
				<stop  offset="1" style="stop-color:#9D68C2"/>
			</linearGradient>
			
				<polygon style="opacity:0.3;fill:url(#SVGID_00000038387256538444896200000010173563295516037014_);enable-background:new    ;" points="
				76.3,163.3 103.4,163.3 103.4,136.2 76.3,136.2 			"/>
			
				<linearGradient id="SVGID_00000102521390346159777140000017678074893283980420_" gradientUnits="userSpaceOnUse" x1="62.3007" y1="357.3368" x2="62.3007" y2="330.1575" gradientTransform="matrix(-1 0 0 1 120 -194)">
				<stop  offset="0" style="stop-color:#CCEDFF"/>
				<stop  offset="1" style="stop-color:#9D68C2"/>
			</linearGradient>
			
				<polygon style="opacity:0.3;fill:url(#SVGID_00000102521390346159777140000017678074893283980420_);enable-background:new    ;" points="
				44.1,163.3 71.3,163.3 71.3,136.2 44.1,136.2 			"/>
			
				<linearGradient id="SVGID_00000141421211812957354470000004878393935968018616_" gradientUnits="userSpaceOnUse" x1="-2.467" y1="357.3368" x2="-2.467" y2="330.1575" gradientTransform="matrix(-1 0 0 1 120 -194)">
				<stop  offset="0" style="stop-color:#CCEDFF"/>
				<stop  offset="1" style="stop-color:#9D68C2"/>
			</linearGradient>
			
				<polygon style="opacity:0.3;fill:url(#SVGID_00000141421211812957354470000004878393935968018616_);enable-background:new    ;" points="
				108.9,163.3 136.1,163.3 136.1,136.2 108.9,136.2 			"/>
			<rect x="44.1" y="179.2" class="st83" width="69.6" height="6.5"/>
			<rect x="44.1" y="189.1" class="st83" width="87" height="2"/>
			<rect x="113.6" y="166.8" class="st83" width="16.7" height="2"/>
			<rect x="81.5" y="166.8" class="st83" width="16.7" height="2"/>
			<rect x="49.4" y="166.8" class="st83" width="16.7" height="2"/>
			<rect x="108.1" y="192.4" class="st83" width="28" height="2"/>
			<rect x="44.1" y="195.6" class="st83" width="87" height="2"/>
			<rect x="44.1" y="198.8" class="st83" width="91.9" height="2"/>
			<rect x="44.1" y="202.1" class="st83" width="91.9" height="2"/>
			<rect x="44.1" y="215.2" class="st83" width="87" height="2"/>
			<rect x="44.1" y="218.4" class="st83" width="91.9" height="2"/>
			<rect x="44.1" y="221.6" class="st83" width="91.9" height="2"/>
			<rect x="47.8" y="205.3" class="st83" width="88.2" height="2"/>
			<rect x="44.1" y="208.6" class="st83" width="87" height="2"/>
			<rect x="61.6" y="211.8" class="st83" width="74.5" height="2"/>
			<g>
				<path class="st84" d="M191.1,163.3c0-9.8,8-17.8,17.8-17.8c9.8,0,17.8,8,17.8,17.8c0,9.8-8,17.8-17.8,17.8
					C199.1,181.1,191.1,173.2,191.1,163.3z M192.3,163.3c0,9.1,7.5,16.7,16.7,16.7c9.1,0,16.7-7.5,16.7-16.7s-7.5-16.7-16.7-16.7
					C199.7,146.7,192.3,154.2,192.3,163.3z"/>
			</g>
			<circle class="st11" cx="208.9" cy="163.3" r="9.7"/>
			<g>
				<path class="st84" d="M146.1,131.6c0-9.8,8-17.8,17.8-17.8c9.8,0,17.8,8,17.8,17.8c0,9.8-8,17.8-17.8,17.8
					C154.1,149.5,146.1,141.5,146.1,131.6z M147.3,131.6c0,9.1,7.5,16.7,16.7,16.7s16.7-7.5,16.7-16.7s-7.5-16.7-16.7-16.7
					C154.7,115,147.3,122.5,147.3,131.6z"/>
			</g>
			<ellipse class="st11" cx="163.9" cy="131.6" rx="9.1" ry="9.1"/>
			<g>
				<polygon class="st11" points="229.5,115.1 228.2,113.1 221.2,119.3 222.2,120.8 				"/>
				<polygon class="st11" points="221.1,115.1 222.3,113.1 229.4,119.3 228.2,120.8 				"/>
			</g>
			<rect x="37.3" y="114.4" class="st11" width="62.9" height="3.1"/>
		</g>
	</g>
	<g>
		<g>
			<polygon class="st85" points="431.6,68.8 431.6,96.1 398.9,96.5 398.5,68 			"/>
			
				<linearGradient id="SVGID_00000018947906384537297090000013123625189165802409_" gradientUnits="userSpaceOnUse" x1="-277.6721" y1="290.4872" x2="-277.6721" y2="262.0357" gradientTransform="matrix(-1 0 0 1 120 -194)">
				<stop  offset="0" style="stop-color:#A242EA"/>
				<stop  offset="1" style="stop-color:#FE117E"/>
			</linearGradient>
			
				<polygon style="fill:url(#SVGID_00000018947906384537297090000013123625189165802409_);stroke:#C67500;stroke-miterlimit:10;" points="
				398.5,68 396.4,71.6 397.4,96.5 398.9,96.5 			"/>
			<polygon class="st11" points="425.8,78.1 422.8,73.7 406.5,87.5 408.9,90.7 			"/>
			<polygon class="st11" points="406,78.1 409,73.7 425.3,87.5 422.9,90.7 			"/>
		</g>
	</g>
	<g>
		<g>
			<path class="st87" d="M355.3,390.5h111.8c5,0,9-3.9,9.1-8.9l2.1-91.7c0.1-5.1-4-9.4-9.1-9.4H352.9c-5.2,0-9.3,4.3-9.1,9.4
				l2.5,91.7C346.3,386.6,350.4,390.5,355.3,390.5z"/>
			<g>
				<path class="st88" d="M346,381.6l-2.5-91.7c-0.1-2.5,0.9-5,2.7-6.8c1.9-1.9,4.2-2.9,6.8-2.9h116.5c2.5,0,5,1,6.7,2.9
					c1.7,1.9,2.8,4.3,2.7,6.8l-2.1,91.7c-0.1,5.1-4.4,9.3-9.5,9.3H355.3C350.3,390.7,346.1,386.7,346,381.6z M352.9,280.7
					c-2.4,0-4.6,0.9-6.4,2.7c-1.7,1.7-2.5,4-2.5,6.5l2.5,91.7c0.1,4.9,4,8.7,8.9,8.7h111.8c4.7,0,8.8-3.9,8.9-8.7l2.1-91.7
					c0-2.4-0.8-4.6-2.5-6.4c-1.7-1.7-3.9-2.7-6.4-2.7L352.9,280.7L352.9,280.7z"/>
			</g>
			<g>
				<rect x="389.5" y="299.2" class="st11" width="58.9" height="2.5"/>
				<rect x="419" y="305.4" class="st11" width="29.4" height="2.5"/>
				<rect x="419" y="310.5" class="st11" width="29.4" height="2.5"/>
				<rect x="392.2" y="310.5" class="st11" width="23.4" height="2.5"/>
				<rect x="400.9" y="315.5" class="st11" width="47.4" height="2.5"/>
				<rect x="431.4" y="320.6" class="st11" width="16.9" height="2.5"/>
				<rect x="398.8" y="336" class="st11" width="29.1" height="2.5"/>
				<rect x="395.5" y="325.7" class="st11" width="52.9" height="2.5"/>
				<rect x="407.6" y="330.9" class="st11" width="40.7" height="2.5"/>
				<rect x="429.1" y="336" class="st11" width="19.1" height="2.5"/>
				<rect x="419" y="341.1" class="st11" width="29.4" height="2.5"/>
				<rect x="439.9" y="346.2" class="st11" width="8.4" height="2.5"/>
				<rect x="405.8" y="346.2" class="st11" width="30.6" height="2.5"/>
				<rect x="398.8" y="351.2" class="st11" width="29.1" height="2.5"/>
				<rect x="429.1" y="351.2" class="st11" width="19.1" height="2.5"/>
				<rect x="419" y="356.3" class="st11" width="29.4" height="2.5"/>
				<rect x="439.9" y="361.5" class="st11" width="8.4" height="2.5"/>
				<rect x="405.8" y="361.5" class="st11" width="30.6" height="2.5"/>
			</g>
		</g>
	</g>
	<g>
		<g>
			<path class="st89" d="M458,289.4h56.4c4.5,0,8.2-3.6,8.4-8.1l1.3-37.1c0.1-4.7-3.7-8.7-8.4-8.7h-58.9c-4.7,0-8.6,3.9-8.4,8.7
				l1.2,37.1C449.7,285.7,453.5,289.4,458,289.4z"/>
			<g>
				<path class="st90" d="M449.4,281.2l-1.2-37.1c-0.1-2.4,0.8-4.6,2.4-6.4c1.6-1.7,3.9-2.7,6.2-2.7h58.9c2.4,0,4.6,0.9,6.2,2.7
					c1.6,1.7,2.5,3.9,2.4,6.4l-1.3,37.1c-0.1,4.7-3.9,8.4-8.7,8.4H458C453.3,289.6,449.5,285.9,449.4,281.2z M456.9,235.7
					c-2.2,0-4.3,0.9-5.8,2.4c-1.5,1.6-2.3,3.7-2.3,5.9l1.2,37.1c0.1,4.4,3.7,7.9,8.1,7.9h56.4c4.4,0,8-3.5,8.1-7.9l1.3-37.1
					c0.1-2.2-0.7-4.3-2.3-5.9s-3.6-2.4-5.9-2.4H456.9L456.9,235.7z"/>
			</g>
			<g>
				<polygon class="st11" points="499.4,248.7 513.3,264.9 499.2,276.9 499.2,270.7 507.4,263.6 499.8,254.9 				"/>
			</g>
			<g>
				<polygon class="st11" points="474.9,249.5 461.1,265.6 475.3,277.6 475.3,271.4 467.1,264.3 476.2,254.7 				"/>
			</g>
			<g>
				<polygon class="st11" points="496.4,276.9 484.3,250.2 478.6,250.2 492.3,276.9 				"/>
			</g>
		</g>
	</g>
	<g>
		<g>
			<path class="st91" d="M78.3,365.7h70.6c5.7,0,10.3-4.5,10.5-10.2l1.6-46.5c0.2-5.9-4.6-10.9-10.5-10.9H77
				c-5.9,0-10.8,5-10.5,10.9l1.4,46.5C67.9,361.2,72.7,365.7,78.3,365.7z"/>
			<g>
				<path class="st90" d="M67.5,355.6l-1.4-46.5c-0.1-3,1-5.8,3-7.9c2.1-2.1,4.9-3.2,7.7-3.2h73.6c3,0,5.7,1.2,7.7,3.4
					c2.1,2.1,3.1,5,3,7.9l-1.6,46.5c-0.2,5.9-5,10.4-10.9,10.4H78.1C72.4,366.1,67.7,361.5,67.5,355.6z M77,298.5
					c-2.8,0-5.4,1.2-7.4,3.1c-2,2-3,4.6-2.9,7.4l1.4,46.5c0.1,5.6,4.6,9.9,10.3,9.9h70.6c5.6,0,10.1-4.4,10.3-9.9l1.6-46.5
					c0.1-2.8-0.9-5.4-2.9-7.5c-2-2-4.5-3.1-7.4-3.1L77,298.5L77,298.5z"/>
			</g>
			<rect x="82.2" y="305.7" class="st83" width="64.7" height="38.4"/>
			<polygon class="st11" points="120.2,315.3 120.2,334.6 103.8,324 			"/>
			<rect x="82.2" y="351.2" class="st83" width="64.7" height="3.5"/>
			<rect x="130.2" y="351.2" class="st11" width="16.8" height="3.5"/>
		</g>
	</g>
	<g>
		<g>
			<g>
				<path class="st92" d="M197.6,303.3l-3.4-9.6C193.1,294.5,195.7,297.8,197.6,303.3z M201.1,312.9l-3.4-9.6
					C199.4,308.6,200.1,312.6,201.1,312.9z M197.6,303.3l-3.4-9.6C193.1,294.5,195.7,297.8,197.6,303.3z M201.1,312.9l-3.4-9.6
					C199.4,308.6,200.1,312.6,201.1,312.9z M188.6,312.8c0.8,1.4,1.7,2.5,2.7,3.7l-1.6,4.5l6.8,5.2l0.7-5.1c1.4,0.6,2.8,0.9,4.2,0.9
					l0.7,2.3l0.9,3.5l6.1-2.4l-2.3-5.3c1-0.9,2-2.1,2.7-3.5l3.8,3.6l1.9-8.6l-3.9-2.5c0-1.9-0.1-3.8-0.5-5.9l3.8-0.6l-3.6-9.7
					l-3.2,1.9c-0.9-1.9-2.1-3.5-3.4-4.9l1.6-4.5l-6.8-5.2l-0.7,5.1c-1.4-0.6-2.8-0.9-4.2-0.9l-1.5-5.4l0,0l-6.1,2l2.3,5.3
					c-0.2,0.2-0.5,0.5-0.7,0.7c-0.8,0.8-1.4,1.7-2,2.9l-3.8-3.6l-1.9,8.6l3.9,2.5c0,1.5,0,3.1,0.3,4.9c0,0.3,0.1,0.7,0.2,1l-3.8,0.6
					l3.6,9.7l3.2-1.9C188.1,312,188.3,312.4,188.6,312.8z M194.2,293.6c3.4-1.2,7.6,2.2,9.5,7.5c1.9,5.3,0.6,10.6-2.8,11.8
					c-3.4,1.2-1.5-4.3-3.4-9.6C195.7,297.8,190.9,294.7,194.2,293.6z M197.6,303.3l-3.4-9.6C193.1,294.5,195.7,297.8,197.6,303.3z
					 M201.1,312.9l-3.4-9.6C199.4,308.6,200.1,312.6,201.1,312.9z"/>
			</g>
			<path class="st93" d="M188.6,312.8l5.3,3.2l-4.2,5l6.8,5.2l5.6-1.7l3.2-1l-0.9,1.7l-1.4,2.8l8.7-2.9l6.1-2.4l-2-4.5l6-0.7
				l-3.1-11.5l-6.4-17.7l2.1-5.6l-6.8-5.2l-5.3,2.5l-1.2-4.2l-6.1,2.4l-2.5,0.8l-6.1,2l3,6.2l1.6-3.8l-8.7,2.9l-1.3,8.2l4,2l0.3,5.3
				l-0.6,0.2l-3.6,1.7l3.6,9.7L188.6,312.8z M201.1,312.9l-3.4-9.6l-3.4-9.6c3.4-1.2,7.6,2.2,9.5,7.5
				C205.7,306.4,204.4,311.7,201.1,312.9z"/>
			<g class="st94">
				<path class="st95" d="M196.7,308.7c0.9,1.9,2.1,3.5,3.4,4.9l-1.6,4.5l6.8,5.2l0.7-5.1c1.4,0.6,2.8,0.9,4.2,0.9l1.6,5.8l6.1-2.4
					l-2.3-5.3c1-0.9,2-2.1,2.5-3.5l3.8,3.6l1.9-8.6l-3.9-2.5c0-1.9-0.1-3.8-0.5-5.9l3.8-0.6l-3.6-9.7l-3.2,1.9
					c-0.9-1.9-2.1-3.5-3.4-4.9l1.6-4.5l-6.8-5.2l-0.7,5.1c-1.4-0.6-2.8-0.9-4.2-0.9l-1.6-5.8l-6.1,2.4l2.3,5.3c-1,0.9-2,2.1-2.5,3.5
					l-3.8-3.6l-2,8.7l3.9,2.5c0,1.9,0.1,3.8,0.5,5.9l-3.8,0.6l3.6,9.7L196.7,308.7z M200.2,302.6c-1.9-5.3-0.6-10.6,2.8-11.8
					c3.4-1.2,7.6,2.2,9.5,7.5c1.9,5.3,0.6,10.6-2.8,11.8C206.4,311.3,202.1,307.9,200.2,302.6z"/>
			</g>
			<polygon class="st96" points="180.4,294.8 189.1,291.9 193.1,294.5 184.4,297.3 			"/>
			<polygon class="st93" points="189.6,321 198.4,318.1 199.9,313.6 191.2,316.5 			"/>
			<polygon class="st96" points="197.4,283.6 192.5,285 190.9,283.4 187.8,284.4 186.3,281.1 195,278.2 			"/>
			<path class="st96" d="M210.1,319.1l-4.6,1.9l0.3-2.9C205.8,318.2,208.3,319.5,210.1,319.1z"/>
			<path class="st96" d="M209.4,293l-7.7,4c0,0-1.2-1.5-2-2.1C199.7,295,201.6,286.5,209.4,293z"/>
		</g>
	</g>
	<g>
		<g>
			<polygon class="st97" points="183.1,59.8 184.7,20.8 133.7,20.8 135.9,59.7 			"/>
			<polygon class="st98" points="184.7,20.8 186.3,23.2 184.7,59.8 183.1,59.8 			"/>
			<polygon class="st11" points="167.9,28.7 175.8,27.8 174.7,54.5 167.9,53.8 167.9,51 171.8,51.1 172.3,30.6 167.9,30.7 			"/>
			<polygon class="st11" points="151.4,28.7 143.5,27.8 144.5,54.5 151.4,53.8 151.4,51 147.5,51.1 147,30.6 151.4,30.7 			"/>
		</g>
	</g>
	<g>
		<g>
			<polygon class="st97" points="534.5,145.1 533.5,118.5 568.2,118.5 566.8,144.9 			"/>
			
				<linearGradient id="SVGID_00000174585004483670056250000011217922814649555634_" gradientUnits="userSpaceOnUse" x1="136.9729" y1="338.2186" x2="143.6354" y2="313.4752" gradientTransform="matrix(1 0 0 1 393.3441 -194)">
				<stop  offset="0" style="stop-color:#1852A0"/>
				<stop  offset="1" style="stop-color:#067ED3"/>
			</linearGradient>
			
				<polygon style="fill-rule:evenodd;clip-rule:evenodd;fill:url(#SVGID_00000174585004483670056250000011217922814649555634_);stroke:#C67500;stroke-miterlimit:10;" points="
				533.5,118.5 532.4,120.1 533.5,145.1 534.5,145.1 			"/>
			<path class="st11" d="M546.8,123.9c0,0-3.8-0.1-4.5,0.1c-0.7,0.3,0.2,6.5,0.2,6.5l-1.5,1.4l1.4,1.4c0,0-0.1,6.2,0.8,6.8
				c0.9,0.6,3.9,0,3.9,0v-1.6c0,0-2.5,0.1-2.9-0.2c-0.3-0.3-0.3-5.8-0.3-5.8l-0.7-0.7l0.7-0.8c0,0-0.1-3.9,0-5c0-0.7,3-0.8,3-0.8
				v-1.3H546.8z"/>
			<path class="st11" d="M555.5,123.9c0,0,3.8-0.1,4.5,0.1c0.7,0.3-0.2,6.5-0.2,6.5l1.5,1.4l-1.4,1.4c0,0,0.1,6.2-0.8,6.8
				s-3.9,0-3.9,0v-1.6c0,0,2.5,0.1,2.9-0.2c0.3-0.3,0.3-5.8,0.3-5.8l0.7-0.7l-0.7-0.8c0,0,0.1-3.9,0-5c0-0.7-3-0.8-3-0.8v-1.3H555.5
				z"/>
		</g>
	</g>
</g>
</svg>
