<?xml version="1.0" encoding="utf-8"?>
<!-- Generator: Adobe Illustrator 27.0.0, SVG Export Plug-In . SVG Version: 6.00 Build 0)  -->
<svg version="1.1" id="_24x24_On_Light_Pattern" xmlns="http://www.w3.org/2000/svg" xmlns:xlink="http://www.w3.org/1999/xlink"
	 x="0px" y="0px" viewBox="0 0 800 800" style="enable-background:new 0 0 800 800;" xml:space="preserve">
<style type="text/css">
	.st0{fill:#141124;fill-opacity:0;}
	.st1{opacity:0.51;fill:#EE9B00;}
</style>
<rect id="view-box" y="0" class="st0" width="800" height="800"/>
<path id="Shape" class="st1" d="M508.3,600c0-50.6,41-91.7,91.7-91.7s91.7,41,91.7,91.7s-41,91.7-91.7,91.7
	C549.4,691.6,508.4,650.6,508.3,600z M558.3,600c0,23,18.7,41.7,41.7,41.7c23,0,41.7-18.7,41.7-41.7c0-23-18.7-41.7-41.7-41.7
	C577,558.4,558.4,577,558.3,600z M108.3,600c0-50.6,41-91.7,91.7-91.7s91.7,41,91.7,91.7s-41,91.7-91.7,91.7
	C149.4,691.6,108.4,650.6,108.3,600z M158.3,600c0,23,18.7,41.7,41.7,41.7s41.7-18.7,41.7-41.7c0-23-18.7-41.7-41.7-41.7
	C177,558.4,158.4,577,158.3,600z M308.3,400c0-50.6,41-91.7,91.7-91.7c50.6,0,91.7,41,91.7,91.7c0,50.6-41,91.7-91.7,91.7
	C349.4,491.6,308.4,450.6,308.3,400L308.3,400z M358.3,400c0,23,18.7,41.7,41.7,41.7c23,0,41.7-18.7,41.7-41.7
	c0-23-18.6-41.6-41.6-41.7C377,358.3,358.3,377,358.3,400C358.3,400,358.3,400,358.3,400L358.3,400z M508.3,200
	c0-50.6,41-91.7,91.7-91.7s91.7,41,91.7,91.7s-41,91.7-91.7,91.7C549.4,291.6,508.4,250.6,508.3,200z M558.3,200
	c0,23,18.7,41.7,41.7,41.7c23,0,41.7-18.7,41.7-41.7S623,158.3,600,158.3C577,158.4,558.4,177,558.3,200z M108.3,200
	c0-50.6,41-91.7,91.7-91.7s91.7,41,91.7,91.7s-41,91.7-91.7,91.7C149.4,291.6,108.4,250.6,108.3,200z M158.3,200
	c0,23,18.7,41.7,41.7,41.7s41.7-18.7,41.7-41.7S223,158.3,200,158.3C177,158.4,158.4,177,158.3,200z"/>
</svg>
