<?xml version="1.0" encoding="utf-8"?>
<!-- Generator: Adobe Illustrator 27.0.0, SVG Export Plug-In . SVG Version: 6.00 Build 0)  -->
<svg version="1.1" id="Layer_1" xmlns="http://www.w3.org/2000/svg" xmlns:xlink="http://www.w3.org/1999/xlink" x="0px" y="0px"
	 viewBox="0 0 800 800" style="enable-background:new 0 0 800 800;" xml:space="preserve">
<style type="text/css">
	.st0{fill:#8E8E8E;}
</style>
<path class="st0" d="M396.7,412.1c1.1,0,2.2,0.1,3.3,0.1c1.1,0,2.2,0,3.3-0.1c-1.1,1.4-2.1,2.6-3.3,3.8l0,0
	c-1.1-1.2-2.2-2.4-3.2-3.7L396.7,412.1z M385.7,410.6c2.1,0.5,4.6,1,7.3,1.3l0.3,0c1.6,2.2,3.2,4.1,4.9,6l0,0
	c-2.5,2.8-6,4.8-9.8,5.6l-0.1,0c0,0,0,0,0,0c-0.5,0-0.9-0.1-1.3-0.3l0,0c-1.6-0.9-2.3-4.5-1.8-9
	C385.3,412.9,385.5,411.8,385.7,410.6L385.7,410.6z M414.3,410.5c0.2,0.9,0.4,2.1,0.6,3.3l0,0.2c0.6,4.5-0.1,8.1-1.7,9
	c-0.4,0.2-0.8,0.3-1.2,0.3c0,0-0.1,0-0.1,0h0c-4-0.7-7.4-2.7-9.9-5.5l0,0c1.7-1.8,3.3-3.7,4.8-5.8l0.1-0.2c2.9-0.3,5.4-0.8,7.9-1.4
	L414.3,410.5L414.3,410.5z M388,403.3c0.5,1,1,1.9,1.5,2.9c0.6,0.9,1.1,1.9,1.7,2.8c-1.7-0.2-3.3-0.6-4.8-0.9
	C386.8,406.4,387.4,404.8,388,403.3L388,403.3z M412,403.2c0.6,1.6,1.2,3.2,1.6,4.7c-1.5,0.4-3.2,0.7-4.9,0.9
	c0.6-0.9,1.2-1.9,1.7-2.8C411,405.1,411.5,404.2,412,403.2L412,403.2z M383.8,392.8c0.8,2.9,1.7,5.3,2.8,7.6l-0.1-0.4
	c-0.9,2-1.8,4.3-2.5,6.8l-0.1,0.4c-1.4-0.4-2.5-0.8-3.5-1.3l0.2,0.1c-4.2-1.8-6.9-4.2-6.9-6s2.7-4.2,6.9-6
	C381.5,393.6,382.7,393.2,383.8,392.8L383.8,392.8z M416.2,392.8c1.2,0.4,2.3,0.8,3.3,1.2c4.2,1.8,6.9,4.2,6.9,6
	c0,1.9-2.7,4.2-6.9,6c-1,0.4-2.1,0.8-3.3,1.2c-0.9-2.9-1.8-5.3-2.8-7.6l0.1,0.4c0.9-2,1.8-4.3,2.5-6.8L416.2,392.8L416.2,392.8z
	 M408.8,391.2c1.7,0.3,3.3,0.6,4.8,0.9c-0.4,1.5-1,3.1-1.6,4.7c-0.5-0.9-1-1.9-1.5-2.9C409.9,393,409.4,392.1,408.8,391.2
	L408.8,391.2z M391.2,391.2c-0.6,0.9-1.2,1.9-1.7,2.8c-0.5,0.9-1.1,1.9-1.5,2.9c-0.6-1.6-1.2-3.2-1.6-4.7
	C387.9,391.7,389.5,391.4,391.2,391.2L391.2,391.2z M400,390.5c1.8,0,3.6,0.1,5.3,0.2c1,1.4,1.9,2.9,2.9,4.5
	c0.9,1.6,1.7,3.1,2.5,4.7c-0.7,1.6-1.6,3.2-2.4,4.7c-0.9,1.6-1.9,3.1-2.9,4.5c-1.8,0.2-3.5,0.2-5.3,0.2c-1.8,0-3.6-0.1-5.3-0.2
	c-1-1.4-1.9-2.9-2.9-4.5c-0.9-1.6-1.7-3.1-2.5-4.7c0.7-1.6,1.6-3.2,2.4-4.8c0.9-1.6,1.9-3.1,2.9-4.5
	C396.4,390.6,398.2,390.5,400,390.5L400,390.5z M400,384.1c1.1,1.2,2.2,2.4,3.2,3.7l0.1,0.1c-1.1,0-2.2-0.1-3.3-0.1
	c-1.1,0-2.2,0-3.3,0.1C397.8,386.6,398.9,385.3,400,384.1L400,384.1L400,384.1z M388.2,376.7c4,0.7,7.4,2.7,9.9,5.5l0,0
	c-1.7,1.8-3.3,3.7-4.8,5.8l-0.1,0.2c-2.9,0.3-5.4,0.8-7.9,1.4l0.4-0.1c-0.3-1.2-0.5-2.3-0.6-3.5c-0.6-4.5,0.1-8.1,1.7-9
	C387.2,376.9,387.7,376.7,388.2,376.7L388.2,376.7L388.2,376.7z M411.8,376.7L411.8,376.7C411.8,376.7,411.8,376.7,411.8,376.7
	c0.5,0,1,0.1,1.4,0.3l0,0c1.6,0.9,2.3,4.5,1.8,9c-0.1,1.1-0.3,2.3-0.6,3.5c-2.1-0.5-4.7-1-7.3-1.3l-0.2,0c-1.6-2.2-3.2-4.1-4.9-6
	l0,0c2.5-2.8,6-4.8,9.8-5.6L411.8,376.7L411.8,376.7z M411.8,374c-4.7,0.7-8.8,3-11.8,6.4l0,0c-3-3.3-7.1-5.6-11.7-6.3l-0.1,0
	c0,0-0.1,0-0.1,0c-0.9,0-1.8,0.3-2.6,0.7l0,0c-3.3,1.9-4.1,7.9-2.4,15.5c-7.4,2.3-12.1,5.9-12.1,9.8c0,3.9,4.8,7.5,12.2,9.8
	c-1.7,7.6-0.9,13.6,2.4,15.5c0.7,0.4,1.6,0.7,2.5,0.7c0,0,0.1,0,0.1,0h0c4.7-0.7,8.8-3,11.8-6.4l0,0c3,3.3,7.1,5.6,11.7,6.3l0.1,0
	c0,0,0.1,0,0.1,0c0.9,0,1.8-0.2,2.6-0.7l0,0c3.3-1.9,4.1-7.9,2.4-15.5c7.3-2.3,12.1-5.9,12.1-9.8c0-3.9-4.8-7.5-12.2-9.8
	c1.7-7.6,0.9-13.6-2.4-15.5C413.7,374.3,412.8,374,411.8,374C411.8,374,411.8,374,411.8,374L411.8,374L411.8,374z M405.4,400
	c0,3-2.4,5.4-5.4,5.4s-5.4-2.4-5.4-5.4c0-3,2.4-5.4,5.4-5.4c1.5,0,2.8,0.6,3.8,1.6l0,0C404.8,397.2,405.4,398.5,405.4,400L405.4,400
	L405.4,400L405.4,400z"/>
</svg>
