<?xml version="1.0" encoding="utf-8"?>
<!-- Generator: Adobe Illustrator 27.0.0, SVG Export Plug-In . SVG Version: 6.00 Build 0)  -->
<svg version="1.1" xmlns="http://www.w3.org/2000/svg" xmlns:xlink="http://www.w3.org/1999/xlink" x="0px" y="0px"
	 viewBox="0 0 48 48" style="enable-background:new 0 0 48 48;" xml:space="preserve">
<style type="text/css">
	.st0{display:none;}
	.st1{display:inline;fill-rule:evenodd;clip-rule:evenodd;fill:#EE9B00;}
	.st2{display:inline;fill:#8E8E8E;}
	.st3{display:inline;}
	.st4{fill:#8E8E8E;}
</style>
<g id="Layer_1" class="st0">
	<path class="st1" d="M8,24c0-8.8,7.2-16,16-16s16,7.2,16,16s-7.2,16-16,16S8,32.8,8,24z M32.5,24c0-0.6-0.1-1.2-0.2-1.7
		c-0.1-0.5-0.3-1.1-0.5-1.6c-0.2-0.5-0.5-1-0.8-1.4c-0.3-0.5-0.7-0.9-1-1.3c-0.4-0.4-0.8-0.7-1.3-1c-0.5-0.3-0.9-0.6-1.4-0.8
		c-0.5-0.2-1.1-0.4-1.6-0.5c-0.6-0.1-1.1-0.2-1.7-0.2c-0.6,0-1.2,0.1-1.7,0.2c-0.5,0.1-1.1,0.3-1.6,0.5c-0.5,0.2-1,0.5-1.5,0.8
		c-0.5,0.3-0.9,0.7-1.3,1c-0.4,0.4-0.7,0.8-1,1.3c-0.3,0.5-0.6,0.9-0.8,1.4c-0.2,0.5-0.4,1.1-0.5,1.6c-0.1,0.6-0.2,1.1-0.2,1.7
		c0,0.6,0.1,1.2,0.2,1.7c0.1,0.5,0.3,1.1,0.5,1.6c0.2,0.5,0.5,1,0.8,1.4c0.3,0.5,0.7,0.9,1,1.3c0.4,0.4,0.8,0.7,1.3,1
		c0.5,0.3,0.9,0.6,1.5,0.8c0.5,0.2,1.1,0.4,1.6,0.5c0.6,0.1,1.1,0.2,1.7,0.2c0.6,0,1.2-0.1,1.7-0.2c0.5-0.1,1.1-0.3,1.6-0.5
		c0.5-0.2,1-0.5,1.4-0.8c0.5-0.3,0.9-0.7,1.3-1c0.4-0.4,0.7-0.8,1-1.3c0.3-0.5,0.6-0.9,0.8-1.4c0.2-0.5,0.4-1.1,0.5-1.6
		C32.5,25.1,32.5,24.6,32.5,24z"/>
	<path class="st1" d="M25.6,22.2c2.9-1.2,4-2.9,4.1-2.9c1,1.2,1.6,2.8,1.7,4.5c-0.1,0-2.6-0.6-5.1-0.2c-0.1-0.1-0.1-0.2-0.2-0.4
		C25.9,22.9,25.7,22.6,25.6,22.2z M28.1,30c-0.1-0.4-0.5-2.6-1.4-5.2c2.4-0.4,4.4,0.3,4.5,0.3C30.9,27.2,29.7,28.9,28.1,30z
		 M25.3,25.2c1,2.7,1.4,4.9,1.6,5.5C26,31.1,25,31.3,24,31.3c-1.7,0-3.2-0.6-4.5-1.5C19.5,29.7,20.9,26.7,25.3,25.2
		C25.3,25.2,25.3,25.2,25.3,25.2z M28.8,18.5c0,0-1.1,1.6-3.8,2.6c-1.2-2.3-2.6-4.1-2.7-4.2c0.6-0.1,1.1-0.2,1.7-0.2
		C25.8,16.7,27.5,17.4,28.8,18.5z M24.2,22.7c0.2,0.4,0.4,0.8,0.6,1.2c-0.1,0-0.2,0.1-0.3,0.1c-3.9,1.3-5.9,4.8-5.9,4.8
		c-1.2-1.3-1.9-3-1.9-4.9c0-0.1,0-0.2,0-0.2C16.8,23.8,20.4,23.8,24.2,22.7z M20.9,17.4c0.1,0.1,1.4,2,2.7,4.2
		c-3.5,0.9-6.5,0.9-6.7,0.9C17.3,20.2,18.9,18.4,20.9,17.4z"/>
</g>
<g id="Layer_2" class="st0">
	<path class="st2" d="M2,33.9l5.1-3.1c1,1.7,1.9,3.2,4,3.2c2.1,0,3.4-0.8,3.4-3.9V8.7h6.3v21.4c0,6.5-3.8,9.5-9.3,9.5
		C6.4,39.6,3.5,37,2,33.9 M24.2,33.2l5.1-3c1.3,2.2,3.1,3.8,6.2,3.8c2.6,0,4.2-1.3,4.2-3.1c0-2.2-1.7-2.9-4.6-4.2l-1.6-0.7
		c-4.5-1.9-7.5-4.3-7.5-9.5c0-4.7,3.6-8.3,9.2-8.3c4,0,6.8,1.4,8.9,5l-4.9,3.1c-1.1-1.9-2.2-2.7-4-2.7c-1.8,0-3,1.2-3,2.7
		c0,1.9,1.2,2.6,3.8,3.8l1.6,0.7c5.3,2.3,8.3,4.6,8.3,9.9c0,5.6-4.4,8.7-10.4,8.7C29.8,39.6,26,36.8,24.2,33.2"/>
</g>
<g id="Layer_3" class="st0">
	<g id="c133de6af664cd4f011a55de6b001b19" class="st3">
		<path class="st4" d="M43.1,2.8l-3.6,38.4L24,45.2L8.5,41.1L4.9,2.8H43.1z M35.9,10.6H24H11.9l0.6,4.6H24h0.6L24,15.5L12.9,20
			l0.4,4.5l10.7,0l5.7,0l-0.4,6L24,32.1v0l0,0l-5.2-1.3l-0.3-3.7h0h-4.8h0l0.6,7.2l9.8,2.9v0l0,0l9.7-2.8L35,20H24h0l0,0l11.4-4.8
			L35.9,10.6z"/>
	</g>
</g>
<g id="Layer_4" class="st0">
	<path class="st2" d="M21.5,33.1c0.8,0,1.6,0.1,2.5,0.1c0.8,0,1.7,0,2.5-0.1c-0.8,1.1-1.6,2-2.5,2.9l0,0
		C23.2,35.1,22.4,34.2,21.5,33.1L21.5,33.1z M13.2,32c1.6,0.4,3.5,0.7,5.5,1l0.2,0c1.2,1.7,2.4,3.1,3.7,4.5l0,0
		c-1.9,2.2-4.5,3.7-7.4,4.2l-0.1,0c0,0,0,0,0,0c-0.4,0-0.7-0.1-1-0.2l0,0c-1.2-0.7-1.7-3.4-1.3-6.8C12.9,33.8,13,32.9,13.2,32
		L13.2,32z M34.8,31.9c0.2,0.7,0.3,1.6,0.4,2.5l0,0.1c0.4,3.4-0.1,6.1-1.3,6.8c-0.3,0.2-0.6,0.2-0.9,0.2c0,0-0.1,0-0.1,0h0
		c-3-0.6-5.6-2.1-7.5-4.2l0,0c1.3-1.4,2.5-2.8,3.6-4.4l0.1-0.1c2.2-0.2,4.1-0.6,6-1.1L34.8,31.9L34.8,31.9z M14.9,26.5
		c0.4,0.7,0.7,1.4,1.2,2.2c0.4,0.7,0.8,1.4,1.3,2.1c-1.3-0.2-2.5-0.4-3.7-0.7C14,28.8,14.5,27.6,14.9,26.5L14.9,26.5z M33.1,26.4
		c0.5,1.2,0.9,2.4,1.2,3.6c-1.2,0.3-2.4,0.5-3.7,0.7c0.4-0.7,0.9-1.4,1.3-2.1C32.3,27.9,32.7,27.1,33.1,26.4L33.1,26.4z M11.8,18.5
		c0.6,2.2,1.3,4,2.1,5.8L13.8,24c-0.7,1.5-1.4,3.3-1.9,5.2l-0.1,0.3c-1-0.3-1.9-0.6-2.7-1l0.2,0.1c-3.2-1.4-5.2-3.1-5.2-4.6
		s2-3.2,5.2-4.6C10.1,19.1,10.9,18.8,11.8,18.5L11.8,18.5z M36.2,18.5c0.9,0.3,1.7,0.6,2.5,0.9c3.2,1.4,5.2,3.1,5.2,4.6
		c0,1.4-2.1,3.2-5.2,4.6c-0.8,0.3-1.6,0.6-2.5,0.9c-0.6-2.2-1.3-4-2.1-5.8l0.1,0.3c0.7-1.5,1.4-3.3,1.9-5.2L36.2,18.5L36.2,18.5z
		 M30.6,17.3c1.3,0.2,2.5,0.4,3.7,0.7c-0.3,1.2-0.7,2.4-1.2,3.6c-0.4-0.7-0.7-1.4-1.2-2.2C31.5,18.7,31.1,18,30.6,17.3L30.6,17.3z
		 M17.4,17.3c-0.4,0.7-0.9,1.4-1.3,2.1c-0.4,0.7-0.8,1.4-1.2,2.2c-0.5-1.2-0.9-2.4-1.2-3.6C14.9,17.7,16.1,17.5,17.4,17.3L17.4,17.3
		z M24,16.8c1.4,0,2.7,0.1,4,0.2c0.7,1.1,1.5,2.2,2.2,3.4c0.7,1.2,1.3,2.4,1.9,3.6c-0.6,1.2-1.2,2.4-1.8,3.6
		C29.5,28.8,28.8,30,28,31c-1.3,0.1-2.7,0.2-4,0.2c-1.4,0-2.7-0.1-4-0.2c-0.7-1.1-1.5-2.2-2.2-3.4c-0.7-1.2-1.3-2.4-1.9-3.6
		c0.6-1.2,1.2-2.4,1.8-3.6c0.7-1.2,1.4-2.4,2.2-3.4C21.3,16.9,22.6,16.8,24,16.8L24,16.8z M24,12c0.8,0.9,1.7,1.8,2.4,2.8l0.1,0.1
		c-0.8,0-1.6-0.1-2.5-0.1c-0.8,0-1.7,0-2.5,0.1C22.3,13.8,23.1,12.9,24,12L24,12L24,12z M15.1,6.4c3,0.6,5.6,2.1,7.5,4.2l0,0
		c-1.3,1.4-2.5,2.8-3.6,4.4l-0.1,0.1c-2.2,0.2-4.1,0.6-6,1.1l0.3-0.1c-0.2-0.9-0.4-1.8-0.5-2.6C12.3,10,12.8,7.3,14,6.6
		C14.3,6.5,14.7,6.4,15.1,6.4L15.1,6.4L15.1,6.4z M32.9,6.3L32.9,6.3C32.9,6.4,32.9,6.4,32.9,6.3c0.4,0,0.7,0.1,1,0.3l0,0
		c1.2,0.7,1.7,3.4,1.3,6.8c-0.1,0.8-0.3,1.7-0.5,2.6c-1.6-0.4-3.5-0.8-5.5-1l-0.2,0c-1.2-1.7-2.4-3.1-3.7-4.5l0,0
		C27.3,8.4,29.9,6.9,32.9,6.3L32.9,6.3L32.9,6.3z M32.9,4.3c-3.6,0.5-6.7,2.3-8.9,4.8l0,0c-2.3-2.5-5.4-4.3-8.8-4.8l-0.1,0
		c0,0,0,0-0.1,0c-0.7,0-1.4,0.2-2,0.5l0,0c-2.5,1.5-3.1,6-1.8,11.7c-5.6,1.7-9.2,4.5-9.2,7.4c0,2.9,3.6,5.7,9.2,7.4
		c-1.3,5.7-0.7,10.3,1.8,11.7c0.6,0.3,1.2,0.5,1.9,0.5c0,0,0.1,0,0.1,0h0c3.6-0.5,6.7-2.3,8.9-4.8l0,0c2.3,2.5,5.4,4.3,8.8,4.8
		l0.1,0c0,0,0,0,0.1,0c0.7,0,1.4-0.2,2-0.5l0,0c2.5-1.5,3.1-6,1.8-11.7c5.5-1.7,9.1-4.5,9.1-7.4c0-2.9-3.6-5.7-9.2-7.4
		c1.3-5.7,0.7-10.3-1.8-11.7C34.3,4.5,33.7,4.3,32.9,4.3C32.9,4.3,32.9,4.3,32.9,4.3L32.9,4.3L32.9,4.3z M28.1,24
		c0,2.3-1.8,4.1-4.1,4.1s-4.1-1.8-4.1-4.1s1.8-4.1,4.1-4.1c1.1,0,2.1,0.5,2.9,1.2l0,0C27.6,21.8,28.1,22.9,28.1,24L28.1,24L28.1,24
		L28.1,24z"/>
</g>
<g id="Layer_5">
	<path class="st4" d="M24,10.4c-6,0-9.8,3-11.3,9c2.3-3,4.9-4.1,7.9-3.4c1.7,0.4,3,1.7,4.3,3.1c2.2,2.2,4.8,4.9,10.4,4.9
		c6,0,9.8-3,11.3-9c-2.3,3-4.9,4.1-7.9,3.4c-1.7-0.4-3-1.7-4.3-3.1C32.2,13,29.6,10.4,24,10.4z M12.7,24c-6,0-9.8,3-11.3,9
		c2.3-3,4.9-4.1,7.9-3.4c1.7,0.4,3,1.7,4.3,3.1c2.2,2.2,4.8,4.9,10.4,4.9c6,0,9.8-3,11.3-9c-2.3,3-4.9,4.1-7.9,3.4
		c-1.7-0.4-3-1.7-4.3-3.1C20.9,26.6,18.3,24,12.7,24z"/>
</g>
</svg>
