<?xml version="1.0" encoding="utf-8"?>
<!-- Generator: Adobe Illustrator 27.0.0, SVG Export Plug-In . SVG Version: 6.00 Build 0)  -->
<svg version="1.1" id="Layer_1" xmlns="http://www.w3.org/2000/svg" xmlns:xlink="http://www.w3.org/1999/xlink" x="0px" y="0px"
	 viewBox="0 0 800 800" style="enable-background:new 0 0 800 800;" xml:space="preserve">
<style type="text/css">
	.st0{fill:#8E8E8E;}
</style>
<path class="st0" d="M400,374c-11.6,0-18.9,5.8-21.8,17.3c4.4-5.8,9.4-7.9,15.2-6.5c3.3,0.8,5.7,3.2,8.3,5.9c4.3,4.3,9.2,9.3,20,9.3
	c11.6,0,18.9-5.8,21.8-17.3c-4.3,5.8-9.4,7.9-15.2,6.5c-3.3-0.8-5.7-3.2-8.3-5.9C415.8,379,410.8,374,400,374z M378.3,400
	c-11.6,0-18.8,5.8-21.8,17.3c4.4-5.8,9.4-7.9,15.2-6.5c3.3,0.8,5.7,3.2,8.3,5.9c4.3,4.3,9.2,9.3,20,9.3c11.6,0,18.9-5.8,21.8-17.3
	c-4.3,5.8-9.4,7.9-15.2,6.5c-3.3-0.8-5.7-3.2-8.3-5.9C394,405,389.1,400,378.3,400z"/>
</svg>
