<?xml version="1.0" encoding="utf-8"?>
<!-- Generator: Adobe Illustrator 27.0.0, SVG Export Plug-In . SVG Version: 6.00 Build 0)  -->
<svg version="1.1" id="Layer_1" xmlns="http://www.w3.org/2000/svg" xmlns:xlink="http://www.w3.org/1999/xlink" x="0px" y="0px"
	 viewBox="0 0 48 48" style="enable-background:new 0 0 48 48;" xml:space="preserve">
<style type="text/css">
	.st0{fill-rule:evenodd;clip-rule:evenodd;fill:#8E8E8E;}
</style>
<path class="st0" d="M1.7,24c0-12.4,10-22.3,22.3-22.3s22.3,10,22.3,22.3S36.4,46.3,24,46.3S1.7,36.4,1.7,24z M24,10.6
	c-7.4,0-13.4,6-13.4,13.4s6,13.4,13.4,13.4s13.4-6,13.4-13.4S31.4,10.6,24,10.6z"/>
<path class="st0" d="M24,35.8c-6.5,0-11.8-5.3-11.8-11.8c0-6.5,5.3-11.8,11.8-11.8c6.5,0,11.8,5.3,11.8,11.8
	C35.8,30.5,30.5,35.8,24,35.8z M13.7,24.2c0,4.1,2.5,7.7,6.2,9.4l-5.2-13.7C14,21.2,13.7,22.6,13.7,24.2z M30.9,23.8
	c0-1.3-0.4-2.2-0.9-2.9c-0.5-0.9-1-1.6-1-2.5c0-0.9,0.7-1.9,1.7-1.9c0.1,0,0.1,0,0.2,0c-1.9-1.7-4.4-2.8-7-2.8
	c-3.7,0-6.9,1.9-8.8,4.8c0.3,0,0.5,0,0.7,0c1.1,0,2.7-0.2,2.7-0.2c0.6,0,0.6,0.8,0.1,0.9c0,0-0.6,0.1-1.2,0.1l3.8,11.6l2.3-7
	l-1.6-4.5c-0.6,0-1.1-0.1-1.1-0.1c-0.6,0-0.5-0.9,0.1-0.9c0,0,1.7,0.2,2.7,0.2c1.1,0,2.7-0.2,2.7-0.2c0.6,0,0.6,0.8,0.1,0.9
	c0,0-0.6,0.1-1.2,0.1L29,30.8l1-3.5C30.5,25.8,30.9,24.7,30.9,23.8z M24.3,24.7l-3,9.2c0.9,0.3,1.9,0.4,2.8,0.4
	c1.2,0,2.3-0.2,3.3-0.6c0-0.1-0.1-0.1-0.1-0.2L24.3,24.7z M33.6,19.2c0.1,0.3,0.1,0.7,0.1,1.1c0,1.1-0.2,2.3-0.9,3.9l-3.3,9.4
	c3.3-1.9,5.5-5.3,5.5-9.3C35,22.5,34.5,20.7,33.6,19.2z"/>
</svg>
