<?xml version="1.0" encoding="utf-8"?>
<!-- Generator: Adobe Illustrator 27.0.0, SVG Export Plug-In . SVG Version: 6.00 Build 0)  -->
<svg version="1.1" id="Layer_1" xmlns="http://www.w3.org/2000/svg" xmlns:xlink="http://www.w3.org/1999/xlink" x="0px" y="0px"
	 viewBox="0 0 48 48" style="enable-background:new 0 0 48 48;" xml:space="preserve">
<style type="text/css">
	.st0{fill-rule:evenodd;clip-rule:evenodd;fill:#8E8E8E;}
</style>
<path class="st0" d="M40.8-2H7.2C2.1-2-2,2.2-2,7.4v33.1c0,5.2,4.1,9.4,9.2,9.4h33.6c5.1,0,9.2-4.2,9.2-9.4V7.4
	C50,2.2,45.9-2,40.8-2z M35.2,37c-1.6,0-3.2-0.3-4.6-1c-1.3-0.6-2.5-1.7-3.2-2.9c-0.8-1.3-1.2-2.9-1.2-4.9c0-1.6,0.4-3.2,1.2-4.5
	c0.8-1.4,2-2.6,3.4-3.3c1.5-0.8,3.3-1.2,5.4-1.2c0.1,0,0.3,0,0.4,0c0.1,0,0.2,0,0.3,0l0,0h0c0.1,0,0.2,0,0.3,0v-6.8
	c0-0.2,0.1-0.2,0.2-0.2h4.3c0.1,0,0.2,0.1,0.2,0.2v20.5c0,0.4,0,0.7,0,1.2l0,0.1c0,0.4,0.1,0.7,0.1,1.1l0,0.2c0,0.2-0.1,0.3-0.2,0.3
	c-1.1,0.5-2.3,0.8-3.5,1C37.4,36.9,36.3,37,35.2,37z M37.3,32.7v-9.5c-0.2,0-0.4-0.1-0.6-0.1c-0.2,0-0.5,0-0.7,0
	c-0.8,0-1.7,0.2-2.4,0.6c-0.7,0.4-1.3,0.9-1.8,1.6c-0.5,0.7-0.7,1.6-0.7,2.7c0,0.8,0.1,1.5,0.4,2.2c0.2,0.6,0.5,1.1,1,1.5
	c0.4,0.4,0.9,0.7,1.5,0.9c0.6,0.2,1.2,0.3,1.8,0.3c0.3,0,0.6,0,0.9,0C36.8,32.8,37.1,32.8,37.3,32.7z M18.9,25l6.4-10.6
	c0,0,0.1-0.1,0.1-0.2c0-0.1-0.1-0.2-0.2-0.2h-4.5c-0.1,0-0.2,0-0.3,0c-0.1,0-0.1,0.1-0.1,0.2c-0.2,0.4-0.4,0.7-0.6,1.1l0,0
	c-0.3,0.5-0.6,1.1-0.9,1.6v0c-0.5,0.9-1,1.8-1.5,2.7c-0.5,0.9-0.9,1.8-1.4,2.8h0c-0.4-0.9-0.9-1.8-1.4-2.7c-0.4-0.7-0.8-1.5-1.3-2.2
	l0,0l0,0c-0.1-0.2-0.2-0.3-0.3-0.5c-0.5-0.9-1-1.8-1.4-2.8c-0.1-0.1-0.1-0.2-0.2-0.2c-0.1,0-0.2,0-0.3,0H6.2C6.1,14,6,14,6,14.1
	c0,0,0,0.1,0,0.2l6.5,11l-6.7,11c0,0.1-0.1,0.2,0,0.2c0,0.1,0,0.1,0.1,0.1c0,0,0,0,0.1,0h4.7c0.2,0,0.4,0,0.5-0.2
	c0.3-0.6,0.7-1.2,1-1.8l0,0c0.2-0.3,0.3-0.6,0.5-0.9c0.5-0.9,1-1.8,1.5-2.7l0,0v0c0.5-0.9,1-1.8,1.4-2.8h0c0.5,0.9,1,1.9,1.5,2.8
	l0,0c0.5,0.9,1,1.8,1.5,2.7c0.2,0.5,0.5,0.9,0.7,1.3c0.2,0.4,0.5,0.9,0.7,1.3c0.1,0.2,0.4,0.2,0.7,0.2h4.9c0,0,0.1,0,0.1,0
	c0.1,0,0.1,0,0.1,0c0-0.1,0-0.2,0-0.3L18.9,25z"/>
</svg>
