<?xml version="1.0" encoding="utf-8"?>
<!-- Generator: Adobe Illustrator 27.0.0, SVG Export Plug-In . SVG Version: 6.00 Build 0)  -->
<svg version="1.1" id="Layer_1" xmlns="http://www.w3.org/2000/svg" xmlns:xlink="http://www.w3.org/1999/xlink" x="0px" y="0px"
	 viewBox="0 0 48 48" style="enable-background:new 0 0 48 48;" xml:space="preserve">
<style type="text/css">
	.st0{fill-rule:evenodd;clip-rule:evenodd;}
</style>
<path class="st0" d="M1,24C1,11.4,11.4,1,24,1s23,10.3,23,23S36.6,47,24,47S1,36.6,1,24z M36.2,24c0-0.9-0.1-1.7-0.3-2.4
	c-0.1-0.7-0.4-1.6-0.7-2.3c-0.3-0.7-0.7-1.4-1.1-2c-0.4-0.7-1-1.3-1.4-1.9c-0.6-0.6-1.1-1-1.9-1.4c-0.7-0.4-1.3-0.9-2-1.1
	c-0.7-0.3-1.6-0.6-2.3-0.7c-0.9-0.1-1.6-0.3-2.4-0.3s-1.7,0.1-2.4,0.3c-0.7,0.1-1.6,0.4-2.3,0.7c-0.7,0.3-1.4,0.7-2.2,1.1
	c-0.7,0.4-1.3,1-1.9,1.4c-0.6,0.6-1,1.1-1.4,1.9c-0.4,0.7-0.9,1.3-1.1,2c-0.3,0.7-0.6,1.6-0.7,2.3c-0.1,0.9-0.3,1.6-0.3,2.4
	s0.1,1.7,0.3,2.4c0.1,0.7,0.4,1.6,0.7,2.3c0.3,0.7,0.7,1.4,1.1,2c0.4,0.7,1,1.3,1.4,1.9c0.6,0.6,1.1,1,1.9,1.4
	c0.7,0.4,1.3,0.9,2.2,1.1c0.7,0.3,1.6,0.6,2.3,0.7c0.9,0.1,1.6,0.3,2.4,0.3s1.7-0.1,2.4-0.3c0.7-0.1,1.6-0.4,2.3-0.7
	c0.7-0.3,1.4-0.7,2-1.1c0.7-0.4,1.3-1,1.9-1.4c0.6-0.6,1-1.1,1.4-1.9c0.4-0.7,0.9-1.3,1.1-2c0.3-0.7,0.6-1.6,0.7-2.3
	C36.2,25.6,36.2,24.9,36.2,24z"/>
<path class="st0" d="M26.3,21.4c4.2-1.7,5.7-4.2,5.9-4.2c1.4,1.7,2.3,4,2.4,6.5c-0.1,0-3.7-0.9-7.3-0.3c-0.1-0.1-0.1-0.3-0.3-0.6
	C26.7,22.4,26.4,22,26.3,21.4z M29.9,32.6c-0.1-0.6-0.7-3.7-2-7.5c3.4-0.6,6.3,0.4,6.5,0.4C33.9,28.6,32.2,31,29.9,32.6z M25.9,25.7
	c1.4,3.9,2,7,2.3,7.9c-1.3,0.6-2.7,0.9-4.2,0.9c-2.4,0-4.6-0.9-6.5-2.2C17.5,32.2,19.6,27.9,25.9,25.7L25.9,25.7z M30.9,16.1
	c0,0-1.6,2.3-5.5,3.7c-1.7-3.3-3.7-5.9-3.9-6c0.9-0.1,1.6-0.3,2.4-0.3C26.6,13.5,29,14.5,30.9,16.1z M24.3,22.1
	c0.3,0.6,0.6,1.1,0.9,1.7c-0.1,0-0.3,0.1-0.4,0.1c-5.6,1.9-8.5,6.9-8.5,6.9c-1.7-1.9-2.7-4.3-2.7-7c0-0.1,0-0.3,0-0.3
	C13.7,23.7,18.8,23.7,24.3,22.1z M19.6,14.5c0.1,0.1,2,2.9,3.9,6c-5,1.3-9.3,1.3-9.6,1.3C14.4,18.5,16.7,16,19.6,14.5z"/>
</svg>
