<?xml version="1.0" encoding="utf-8"?>
<!-- Generator: Adobe Illustrator 27.0.0, SVG Export Plug-In . SVG Version: 6.00 Build 0)  -->
<svg version="1.1" id="Layer_1" xmlns="http://www.w3.org/2000/svg" xmlns:xlink="http://www.w3.org/1999/xlink" x="0px" y="0px"
	 viewBox="0 0 48 48" style="enable-background:new 0 0 48 48;" xml:space="preserve">
<style type="text/css">
	.st0{fill-rule:evenodd;clip-rule:evenodd;fill:#EE9B00;}
</style>
<path class="st0" d="M8,24c0-8.8,7.2-16,16-16s16,7.2,16,16s-7.2,16-16,16S8,32.8,8,24z M32.5,24c0-0.6-0.1-1.2-0.2-1.7
	c-0.1-0.5-0.3-1.1-0.5-1.6c-0.2-0.5-0.5-1-0.8-1.4c-0.3-0.5-0.7-0.9-1-1.3c-0.4-0.4-0.8-0.7-1.3-1c-0.5-0.3-0.9-0.6-1.4-0.8
	c-0.5-0.2-1.1-0.4-1.6-0.5c-0.6-0.1-1.1-0.2-1.7-0.2c-0.6,0-1.2,0.1-1.7,0.2c-0.5,0.1-1.1,0.3-1.6,0.5c-0.5,0.2-1,0.5-1.5,0.8
	c-0.5,0.3-0.9,0.7-1.3,1c-0.4,0.4-0.7,0.8-1,1.3c-0.3,0.5-0.6,0.9-0.8,1.4c-0.2,0.5-0.4,1.1-0.5,1.6c-0.1,0.6-0.2,1.1-0.2,1.7
	c0,0.6,0.1,1.2,0.2,1.7c0.1,0.5,0.3,1.1,0.5,1.6c0.2,0.5,0.5,1,0.8,1.4c0.3,0.5,0.7,0.9,1,1.3c0.4,0.4,0.8,0.7,1.3,1
	c0.5,0.3,0.9,0.6,1.5,0.8c0.5,0.2,1.1,0.4,1.6,0.5c0.6,0.1,1.1,0.2,1.7,0.2c0.6,0,1.2-0.1,1.7-0.2c0.5-0.1,1.1-0.3,1.6-0.5
	c0.5-0.2,1-0.5,1.4-0.8c0.5-0.3,0.9-0.7,1.3-1c0.4-0.4,0.7-0.8,1-1.3c0.3-0.5,0.6-0.9,0.8-1.4c0.2-0.5,0.4-1.1,0.5-1.6
	C32.5,25.1,32.5,24.6,32.5,24z"/>
<path class="st0" d="M25.6,22.2c2.9-1.2,4-2.9,4.1-2.9c1,1.2,1.6,2.8,1.7,4.5c-0.1,0-2.6-0.6-5.1-0.2c-0.1-0.1-0.1-0.2-0.2-0.4
	C25.9,22.9,25.7,22.6,25.6,22.2z M28.1,30c-0.1-0.4-0.5-2.6-1.4-5.2c2.4-0.4,4.4,0.3,4.5,0.3C30.9,27.2,29.7,28.9,28.1,30z
	 M25.3,25.2c1,2.7,1.4,4.9,1.6,5.5C26,31.1,25,31.3,24,31.3c-1.7,0-3.2-0.6-4.5-1.5C19.5,29.7,20.9,26.7,25.3,25.2
	C25.3,25.2,25.3,25.2,25.3,25.2z M28.8,18.5c0,0-1.1,1.6-3.8,2.6c-1.2-2.3-2.6-4.1-2.7-4.2c0.6-0.1,1.1-0.2,1.7-0.2
	C25.8,16.7,27.5,17.4,28.8,18.5z M24.2,22.7c0.2,0.4,0.4,0.8,0.6,1.2c-0.1,0-0.2,0.1-0.3,0.1c-3.9,1.3-5.9,4.8-5.9,4.8
	c-1.2-1.3-1.9-3-1.9-4.9c0-0.1,0-0.2,0-0.2C16.8,23.8,20.4,23.8,24.2,22.7z M20.9,17.4c0.1,0.1,1.4,2,2.7,4.2
	c-3.5,0.9-6.5,0.9-6.7,0.9C17.3,20.2,18.9,18.4,20.9,17.4z"/>
</svg>
