<?xml version="1.0" encoding="utf-8"?>
<!-- Generator: Adobe Illustrator 27.0.0, SVG Export Plug-In . SVG Version: 6.00 Build 0)  -->
<svg version="1.1" id="Layer_1" xmlns="http://www.w3.org/2000/svg" xmlns:xlink="http://www.w3.org/1999/xlink" x="0px" y="0px"
	 viewBox="0 0 48 48" style="enable-background:new 0 0 48 48;" xml:space="preserve">
<style type="text/css">
	.st0{fill-rule:evenodd;clip-rule:evenodd;fill:#EE9B00;}
</style>
<path class="st0" d="M24,7.9c-8.8,0-16,7.3-16,16.4c0,7.2,4.6,13.4,10.9,15.6c0.8,0.2,1.1-0.4,1.1-0.8c0-0.4,0-1.7,0-3.1
	c-4.5,1-5.4-1.9-5.4-1.9c-0.7-1.9-1.8-2.4-1.8-2.4c-1.5-1,0.1-1,0.1-1c1.6,0.1,2.5,1.7,2.5,1.7c1.4,2.5,3.7,1.8,4.7,1.4
	c0.1-1.1,0.6-1.8,1-2.2c-3.6-0.4-7.3-1.8-7.3-8.1c0-1.8,0.6-3.3,1.6-4.4c-0.2-0.4-0.7-2.1,0.2-4.3c0,0,1.3-0.4,4.4,1.7
	c1.3-0.4,2.6-0.5,4-0.6c1.4,0,2.7,0.2,4,0.6c3.1-2.1,4.4-1.7,4.4-1.7c0.9,2.3,0.3,3.9,0.2,4.3c1,1.1,1.6,2.6,1.6,4.4
	c0,6.3-3.7,7.7-7.3,8.1c0.6,0.5,1.1,1.5,1.1,3c0,2.2,0,4,0,4.5c0,0.4,0.3,0.9,1.1,0.8C35.5,37.7,40,31.6,40,24.3
	C40,15.3,32.9,7.9,24,7.9z"/>
<path class="st0" d="M9.2,35.2c-0.1,0.1-0.2,0.2-0.4,0.1c-0.2-0.1-0.3-0.2-0.2-0.4c0.1-0.1,0.2-0.2,0.4-0.1
	C9.1,34.9,9.2,35,9.2,35.2z"/>
<path class="st0" d="M10.1,36.3c-0.1,0.1-0.3,0.1-0.5-0.1c-0.2-0.2-0.2-0.4-0.1-0.5c0.1-0.1,0.3-0.1,0.5,0.1
	C10.2,35.9,10.3,36.2,10.1,36.3z"/>
<path class="st0" d="M11.1,37.7c-0.1,0.1-0.4,0-0.5-0.2c-0.1-0.2-0.1-0.5,0-0.6c0.1-0.1,0.4,0,0.5,0.2
	C11.2,37.3,11.2,37.6,11.1,37.7z"/>
<path class="st0" d="M12.4,39c-0.1,0.1-0.4,0.1-0.6-0.1c-0.2-0.2-0.3-0.5-0.1-0.6c0.1-0.1,0.4-0.1,0.6,0.1
	C12.4,38.6,12.5,38.9,12.4,39z"/>
<path class="st0" d="M14.2,39.8c-0.1,0.2-0.3,0.3-0.6,0.2c-0.3-0.1-0.4-0.3-0.4-0.5c0.1-0.2,0.3-0.3,0.6-0.2
	C14,39.4,14.2,39.6,14.2,39.8z"/>
<path class="st0" d="M16.1,40c0,0.2-0.2,0.4-0.5,0.4c-0.3,0-0.5-0.2-0.5-0.4c0-0.2,0.2-0.4,0.5-0.4C15.9,39.6,16.1,39.8,16.1,40z"/>
<path class="st0" d="M17.9,39.6c0,0.2-0.2,0.4-0.4,0.5c-0.3,0.1-0.5-0.1-0.6-0.3c0-0.2,0.2-0.4,0.4-0.5
	C17.7,39.3,17.9,39.4,17.9,39.6z"/>
</svg>
