<?xml version="1.0" encoding="utf-8"?>
<!-- Generator: Adobe Illustrator 27.0.0, SVG Export Plug-In . SVG Version: 6.00 Build 0)  -->
<svg version="1.1" id="Layer_1" xmlns="http://www.w3.org/2000/svg" xmlns:xlink="http://www.w3.org/1999/xlink" x="0px" y="0px"
	 viewBox="0 0 3710 3710" style="enable-background:new 0 0 3710 3710;" xml:space="preserve">
<style type="text/css">
	.st0{display:none;}
	.st1{display:inline;}
	.st2{fill:#FFFFFF;}
	.st3{display:none;fill:#F4F7FA;}
	.st4{fill:#97A6B7;}
	.st5{fill:#D8DEE8;}
	.st6{fill:url(#SVGID_1_);}
	.st7{fill:#603700;}
	.st8{fill:#C67500;}
	.st9{fill:#7F7D7A;}
	.st10{fill:#CA6702;}
	.st11{opacity:0.68;}
	.st12{opacity:0.68;fill:#FFFFFF;enable-background:new    ;}
	.st13{fill:url(#SVGID_00000053526894343923875840000015379208384056345741_);}
	.st14{fill:url(#SVGID_00000124840951931318371360000004516324145967158953_);}
	.st15{fill:url(#SVGID_00000132089394155794709010000013993757173324644738_);}
	.st16{fill:url(#SVGID_00000167384835229535134630000006096965390675508413_);}
	.st17{fill:url(#SVGID_00000037660210727398290300000016265733199496842424_);}
	.st18{fill:url(#SVGID_00000062888834860921288130000011432906963416785796_);}
	.st19{opacity:0.3;}
	.st20{fill:url(#SVGID_00000111870288690660033920000004306626479451270567_);}
	.st21{fill:url(#SVGID_00000103232520927226269480000015573561140053463981_);}
	.st22{opacity:0.3;fill:#F2A83D;enable-background:new    ;}
	.st23{opacity:0.3;fill:#84500B;enable-background:new    ;}
	.st24{fill:url(#SVGID_00000167367876719384950250000003397580912024969379_);}
	.st25{fill:#5E3800;}
	.st26{fill:url(#SVGID_00000157308515050714276570000009440039209447963786_);}
	.st27{fill:#EE9B00;}
	.st28{fill:#F2A83D;}
	.st29{fill:url(#SVGID_00000119105567133947305810000002650845260459006911_);}
	.st30{opacity:0.5;clip-path:url(#SVGID_00000075877902251598579540000016908953165280961164_);}
	.st31{fill:url(#SVGID_00000053532555421243672600000013399943411838149803_);}
	.st32{opacity:0.5;clip-path:url(#SVGID_00000003065381911147486560000016825195634103591598_);}
	.st33{fill:url(#SVGID_00000172436779787695442400000008542376694569015721_);}
	.st34{fill:url(#SVGID_00000182500494751256138600000014444095157754745222_);}
	.st35{opacity:0.48;}
</style>
<g id="Background" class="st0">
	<g class="st1">
		<g>
			<rect y="0" class="st2" width="3710" height="3710"/>
		</g>
	</g>
</g>
<g id="Illustration">
	<g>
		<path class="st3" d="M1912.1,67.9C972.5,40.6,158.5,713,35.5,1595.3C-99,2560,641.1,3427.8,1551.6,3566.9
			c1132.6,172.9,2231.1-827.4,2132.5-1912.6C3610,836.7,2867.4,95.8,1912.1,67.9z"/>
		<g>
			<g>
				<g>
					<g>
						<path class="st4" d="M2243.4,1054.8l-104.1,0.1c-7.2-68.7-23.8-134.7-48.3-196.7l88-51.1c24-13.9,32.3-45.3,18.4-70.4
							l-37-66.5c-13.9-25-45-34.4-69.2-20.6l-86.8,49.3c-40.5-56.7-88.8-107.8-143.4-151.7l49.9-85.8c14.3-24.6,5.9-57.1-19-72.5
							l-66.5-41.2c-25.2-15.6-57.5-8.2-72,16.6l-50.1,84.9c-64.4-30-134-51.6-207.3-63.2V285.3c0-29.8-24.4-54.9-54.7-56.3l-81-3.7
							c-30.6-1.4-55.6,21.8-55.6,51.8V379c-75.6,6.3-148.5,23.2-217.1,49.5l-54-92.1c-15.8-27.1-51.2-37.5-78.9-23.4l-74.1,37.9
							c-28,14.3-37.7,48.1-21.5,75.5l56.1,94.2c-61.3,43.3-116.1,95.3-162.6,154l-101.3-57.3c-28.7-16.2-65.6-7.8-82.2,18.9
							l-44.6,71.4c-16.9,26.9-6.8,61.8,22.2,77.9l104.8,58c-29.1,66.9-48.7,138.7-57.2,213.8l-125.8,0.3
							c-33.8,0-61.4,25.7-61.4,57.3v84c0,31.5,27.6,56.8,61.4,56.4l129.1-1.7c10.9,73.3,32.4,143,63,207.8l-113.9,64.6
							c-29.1,16.5-39.1,51.6-22.2,78.3l44.6,70.7c16.7,26.6,53.5,34.4,82.2,17.8l115.2-66.8c46.1,54.5,99.6,102.3,159,142.1
							l-66.4,112.8c-16.2,27.5-6.6,61.2,21.5,75.1l74.1,36.9c27.7,13.8,63,2.8,78.9-24.5l65.9-113.1c65.1,23,134,37.5,205.2,42.5
							v126.2c0,30,24.9,52.9,55.6,51.1l81-4.9c30.3-1.8,54.7-27.3,54.7-57.1v-124.8c69.2-11.9,135-32.6,196.3-60.7l61.2,102.8
							c14.6,24.5,46.9,31.5,72,15.6l66.5-42.3c24.9-15.8,33.3-48.3,19-72.8l-59.4-101.1c53.1-42,100.4-90.7,140.6-144.4l99,54.8
							c24.3,13.4,55.3,3.8,69.2-21.5l37-67c13.9-25.2,5.6-56.4-18.4-70.1l-95.8-54.1c25.9-60.8,44.1-125.5,53.3-193l106.9-1.3
							c27.6-0.4,49.8-23.6,49.8-52v-75.5C2293.2,1077.7,2270.9,1054.7,2243.4,1054.8z M1400.8,1675.7
							c-307.9,11.4-565.6-227.6-565.6-534.2s257.7-548.9,565.6-541.3c297.4,7.3,531.3,246.3,531.3,534.4
							C1932.2,1422.6,1698.4,1664.8,1400.8,1675.7z"/>
						<polygon class="st4" points="1056.3,309.3 982.2,306.7 956.6,373.3 						"/>
						<polygon class="st4" points="1791.2,340.1 1876.8,340.8 1876.8,403.9 						"/>
						<polygon class="st4" points="2117,644.1 2202.1,647.6 2180.8,695.3 						"/>
						<polygon class="st4" points="2250.7,1055.7 2336.7,1062.5 2308.7,1104.3 						"/>
						<polygon class="st4" points="2107.6,1646.1 2191,1658 2201.4,1589.9 						"/>
						<polygon class="st4" points="1788.1,1953.6 1863.1,1967.3 1869.1,1911.9 						"/>
						<polygon class="st4" points="1413.3,2086.6 1345.9,2074.7 1403.9,1988.6 						"/>
						<polygon class="st4" points="1048.6,2014.2 970.2,1997.9 1030.7,1924.6 						"/>
						<polygon class="st4" points="608.1,610 690,612.6 657.6,672.2 						"/>
						<polygon class="st4" points="445.4,1251.6 520.4,1262.7 514.4,1201.3 						"/>
						<polygon class="st4" points="606.5,1700.6 679.7,1712.5 685.7,1664 						"/>
					</g>
					<path class="st5" d="M2327.4,1061.6l-105,0.1c-7.3-69.3-23.9-135.9-48.7-198.3l88.8-51.5c24.3-14,32.6-45.7,18.5-70.9l-37.3-67
						c-14-25.3-45.3-34.6-69.7-20.7l-87.6,49.7c-40.7-57.1-89.4-108.7-144.6-153l50.4-86.6c14.4-24.8,5.9-57.5-19.2-73l-67-41.6
						c-25.4-15.7-57.9-8.3-72.7,16.7l-50.6,85.7c-64.9-30.3-135-52-209.1-63.7V285.8c0-30-24.6-55.4-55.2-56.8l-81.6-3.7
						c-30.9-1.4-56.1,22-56.1,52.4v102.7c-76.2,6.4-149.8,23.5-218.9,50.1l-54.5-92.8c-16-27.3-51.6-37.9-79.6-23.5l-74.7,38.3
						c-28.2,14.4-37.9,48.5-21.6,76l56.4,95c-61.8,43.7-117.1,96-163.8,155.3l-102.2-57.9c-29-16.3-66.2-7.9-83,19l-45,71.9
						c-17,27.1-6.9,62.3,22.3,78.5l105.7,58.5c-29.4,67.6-49.2,139.8-57.7,215.4l-126.8,0.3c-34.1,0-61.9,25.9-61.9,57.7v84.7
						c0,31.8,27.7,57.3,61.9,56.8l130.1-1.7c11,73.9,32.7,144.2,63.6,209.6l-114.9,65.3c-29.2,16.6-39.3,52-22.3,78.9l45,71.3
						c16.9,26.7,54,34.7,83,17.9l116.2-67.4c46.5,54.9,100.4,103.2,160.4,143.3l-67,113.7c-16.3,27.7-6.6,61.7,21.6,75.7l74.7,37.3
						c28,13.9,63.5,2.8,79.6-24.6l66.4-114.2c65.6,23.1,135,37.8,206.9,42.9v127.2c0,30.3,25.2,53.4,56.1,51.5l81.6-4.9
						c30.5-1.8,55.2-27.6,55.2-57.6v-125.8c69.7-11.9,136.1-32.8,197.8-61.2l61.7,103.7c14.7,24.8,47.3,31.8,72.7,15.7l67-42.5
						c25-16,33.7-48.8,19.2-73.3l-59.9-101.9c53.5-42.4,101.3-91.4,141.9-145.7l99.9,55.2c24.5,13.5,55.7,3.8,69.7-21.7l37.3-67.6
						c13.9-25.3,5.7-57-18.5-70.6l-96.5-54.7c26.2-61.3,44.4-126.6,53.6-194.6l107.8-1.4c27.8-0.4,50.2-23.8,50.2-52.4v-76.1
						C2377.6,1084.6,2355.3,1061.5,2327.4,1061.6z M1477.9,1687.6c-310.5,11.5-570.3-229.4-570.3-538.5s259.9-553.3,570.3-545.8
						c300,7.3,535.7,248.4,535.7,538.8C2013.7,1432.3,1777.9,1676.5,1477.9,1687.6z"/>
				</g>
			</g>
			<g>
				<g>
					<g>
						<path class="st4" d="M3304.8,1062.2l-55.9-10.5c3.1-37.7,0.9-74.8-6.1-110.7l52.5-18.5c14.3-5.1,22-21.2,17-36l-13.2-39.5
							c-5-14.9-20.7-23-35.1-18l-51.7,17.8c-16.1-34.6-36.8-66.9-61.8-96l35.5-41.1c10.2-11.7,8.9-30.1-2.9-40.9l-31.7-28.9
							c-12-11-30-10.2-40.4,1.7l-35.5,40.6c-31.5-22.6-66.8-41.2-105.1-54.9l10.2-54.1c3.1-16-7.7-32.1-23.8-35.8l-43.2-10.2
							c-16.3-3.8-32.1,6.1-35.1,22.3l-10.3,54.8c-41.2-4.2-82.2-2.4-121.7,4.7l-19.8-55c-5.9-16.2-23.8-25.4-40.1-20.6l-43.7,12.9
							c-16.5,4.9-25.2,22.1-19.2,38.4l20.6,56.3c-37.3,17.1-72,39.5-102.9,66.4l-48.7-41.1c-13.8-11.6-34.5-10.9-46.1,1.9
							l-31.2,33.8c-11.7,12.8-10,32.6,4.1,44.2l50.6,41.8c-22.3,33.1-40.2,69.7-52.4,109.2l-67.7-12.6c-18.3-3.4-35.6,7.7-38.8,24.6
							l-8.4,45.2c-3.2,17,9.1,33.3,27.3,36.5l69.6,12.1c-1.5,40.5,2.9,80.2,12.9,118.1l-67.8,23.2c-17.2,5.9-26.2,23.8-19.8,39.8
							l16.9,42.5c6.3,16,25.3,23.9,42.4,17.9l68.7-24.3c19.3,34,43.3,65.1,71.1,92.5l-47.1,53.9c-11.5,13.2-9.7,32.2,4,42.5
							l36.1,27.3c13.5,10.2,33.6,7.9,44.8-5.2l46.9-54.3c32.7,18.9,68.2,33.7,106.1,43.5l-12.8,67.8c-3.1,16.2,8,31,24.8,33.1
							l44.1,5.6c16.5,2,32.2-9.2,35.2-25.2l12.6-67.2c38.4,0.6,75.9-3.8,111.6-12.8l22.5,61.4c5.4,14.7,22,21.7,37.2,15.6l40.1-16
							c14.9-6,22.9-22.6,17.6-37.2l-21.7-60.4c32.8-17.2,63.2-38.6,90.3-63.5l47.8,39.5c11.7,9.7,29.4,7.7,39.3-4.6l26.7-32.3
							c10-12.1,8.7-29.8-2.8-39.6l-46-38.8c20-30.1,36.4-63.1,48.1-98.5l57.6,10.1c14.8,2.6,29.1-7.7,32.1-23l7.7-40.6
							C3329.1,1079.6,3319.6,1064.9,3304.8,1062.2z M2788.8,1311.1c-166.8-24.9-281.2-179.6-250.3-344.4s194-269.2,358.9-234.1
							c159.2,34,260.9,186.2,231.8,341.1C3100.2,1228.6,2950,1335.3,2788.8,1311.1z"/>
						<polygon class="st4" points="2741.6,541.5 2702,532.7 2681.4,565.7 						"/>
						<polygon class="st4" points="3133.8,632.1 3179.6,641.3 3173.2,675.2 						"/>
						<polygon class="st4" points="3278.2,828.7 3323.7,839 3307.4,862.6 						"/>
						<polygon class="st4" points="3308.6,1063.4 3354.2,1075.8 3334.8,1095.4 						"/>
						<polygon class="st4" points="3171.9,1366.6 3215.6,1381.4 3228,1345.7 						"/>
						<polygon class="st4" points="2969.1,1499.6 3008.1,1514.6 3016.9,1485.3 						"/>
						<polygon class="st4" points="2754.1,1533.3 2719.1,1520.1 2758.9,1479.7 						"/>
						<polygon class="st4" points="2565.3,1457.5 2524.7,1440.9 2564.7,1407.6 						"/>
						<polygon class="st4" points="2470.2,657.9 2513.9,667.6 2490.5,696.4 						"/>
						<polygon class="st4" points="2317.8,986.5 2357.1,1000.1 2360.1,966.5 						"/>
						<polygon class="st4" points="2359.1,1244.2 2397.4,1258.1 2405.5,1232.6 						"/>
					</g>
					<path class="st5" d="M3349.2,1074.4l-56.4-10.5c3.1-38.1,0.9-75.5-6.1-111.6l52.9-18.8c14.4-5.1,22.1-21.3,17.1-36.3
						l-13.3-39.8c-5-15.1-20.8-23.1-35.5-18.1l-52.1,17.9c-16.2-34.9-37.2-67.4-62.3-96.8l35.9-41.5c10.3-11.9,8.9-30.4-2.9-41.2
						l-31.9-29.1c-12-11-30.3-10.3-40.7,1.7l-35.8,41c-31.8-22.9-67.4-41.6-106-55.4l10.2-54.7c3.1-16.1-7.7-32.3-23.9-36.1
						l-43.5-10.2c-16.5-3.8-32.3,6.1-35.4,22.5l-10.3,55.3c-41.6-4.3-82.9-2.4-122.7,4.9l-19.9-55.4c-5.9-16.3-23.9-25.5-40.4-20.7
						l-44.1,13c-16.6,5-25.3,22.3-19.3,38.7l20.8,56.8c-37.7,17.2-72.7,39.8-103.8,67l-49.2-41.4c-13.9-11.7-34.7-11-46.5,1.9
						l-31.4,34.1c-11.9,12.9-10,32.8,4.1,44.6l51,42.1c-22.6,33.3-40.5,70.2-52.7,110.1l-68.2-12.6c-18.4-3.4-35.9,7.7-39.1,24.8
						L2339,966c-3.2,17.1,9.2,33.6,27.6,36.8l70.1,12.3c-1.5,40.9,3.1,80.8,13,119.1l-68.3,23.5c-17.5,6-26.4,24-20,40.1l17,42.9
						c6.4,16.1,25.5,24.1,42.8,18l69.3-24.5c19.4,34.2,43.5,65.6,71.8,93.2l-47.5,54.4c-11.6,13.3-9.8,32.4,4,42.9l36.4,27.6
						c13.7,10.3,33.8,7.9,45.2-5.2l47.3-54.7c32.9,19,68.8,34,106.9,43.9l-12.9,68.4c-3.1,16.3,8.2,31.3,24.9,33.3l44.4,5.6
						c16.6,2,32.4-9.3,35.5-25.4l12.6-67.7c38.7,0.6,76.5-3.8,112.6-12.9l22.7,61.9c5.4,14.8,22.2,21.8,37.4,15.7l40.4-16.1
						c15.1-6,23-22.9,17.8-37.5l-21.8-60.9c33.1-17.4,63.7-38.9,90.9-64l48.1,39.7c11.7,9.7,29.6,7.7,39.7-4.6l26.8-32.6
						c10.1-12.3,8.8-30-2.8-39.8l-46.4-39.1c20.3-30.4,36.7-63.6,48.5-99.2l58.1,10.2c14.9,2.7,29.4-7.8,32.3-23.1l7.7-40.9
						C3374,1091.9,3364.1,1077.2,3349.2,1074.4z M2829.2,1325.3c-168.2-25.2-283.5-181-252.3-347.2s195.6-271.4,361.8-236
						c160.5,34.2,263.1,187.7,233.7,343.8C3143.1,1242.1,2991.6,1349.6,2829.2,1325.3z"/>
				</g>
			</g>
		</g>
		<g>
			
				<linearGradient id="SVGID_1_" gradientUnits="userSpaceOnUse" x1="579.3826" y1="-1136.1915" x2="1113.285" y2="-1191.9724" gradientTransform="matrix(1 0 0 1 0 3114)">
				<stop  offset="3.600000e-03" style="stop-color:#26264F"/>
				<stop  offset="1" style="stop-color:#444B8C"/>
			</linearGradient>
			<path class="st6" d="M359.4,3087.8c-63.7,3.7-116-40.9-116-99.4V878.2c0-58.5,52.1-104.3,116-101.9L3370,885.5
				c48.8,1.8,88.2,44.6,88.2,95.5v1833.5c0,50.8-39.5,94.6-88.2,97.4L359.4,3087.8z"/>
			<path class="st7" d="M2322.2,3321.3c-48.1-16.7-84-59.6-94.2-112.3l-70-363.7l-599.2,22.3l-73.7,378.9
				c-10.3,53.1,31,106.3,78.7,125.8l250.7,102.9c46.6,19.2,96.8,26.8,146.6,22.3l529.7-47.5c15.5-1.4,28-14.2,29.8-30.5
				c1.8-16.3,12.6-34.7-2.2-40L2322.2,3321.3z"/>
			<path class="st8" d="M2328.2,3299.2c-48-16.5-84-58.9-94.1-110.8l-70-359.1l-584.5,22.1l-73.7,374.2
				c-10.3,52.4,17,105,64.5,124.3l250.4,101.7c46.6,18.9,96.7,26.4,146.3,22l529.2-47c15.5-1.4,27.8-13.9,29.6-30.1
				c1.8-16.2-7.5-31.4-22.2-36.5L2328.2,3299.2z"/>
			<g>
				<g>
					<path class="st7" d="M383.2,3087.8c-63.7,3.7-116-40.9-116-99.4V878.2c0-58.5,52.1-104.3,116-101.9l3010.6,109.2
						c48.8,1.8,88.2,44.6,88.2,95.5v1833.5c0,50.8-39.5,94.6-88.2,97.4L383.2,3087.8z"/>
					<path class="st8" d="M3393.9,928.7L383.2,825.5c-34.1-1.1-61.8,23.2-61.8,54.5v1641.6v463.7c0,31.3,27.7,55,61.8,53.1
						l3010.6-169.8c26.2-1.5,47.3-24.8,47.3-52.1v-419V979.6C3441.1,952.4,3420.1,929.6,3393.9,928.7z"/>
					<path class="st2" d="M383.2,2859.2c-13.3,0.6-24.1-8.7-24.1-20.9V881.2c0-12.1,10.9-21.7,24.1-21.3l3010.6,99
						c10.2,0.4,18.5,9.3,18.5,19.9v1712.5c0,10.6-8.3,19.7-18.5,20.2L383.2,2859.2z"/>
				</g>
				<g>
					<polygon class="st9" points="3291.3,2605.9 515.3,2727.9 515.3,1152.4 3291.3,1210.6 					"/>
					<polygon class="st10" points="3291.3,1163 515.3,1098.5 515.3,964 3291.3,1043.9 					"/>
					<g>
						<path class="st2" d="M3080.5,1097.9c0,8.6-6.6,15.2-14.9,15.1c-8.3-0.3-14.9-7.3-14.9-15.8c0-8.6,6.8-15.2,14.9-15.1
							C3073.9,1082.3,3080.5,1089.4,3080.5,1097.9z"/>
						<path class="st2" d="M3141.9,1099.5c0,8.4-6.6,15.2-14.9,14.9c-8.2-0.3-14.9-7.3-14.9-15.7c0-8.6,6.6-15.2,14.9-14.9
							C3135.3,1084,3141.9,1091,3141.9,1099.5z"/>
						<path class="st2" d="M3203.1,1101.1c0,8.4-6.6,15.2-14.8,14.9c-8.2-0.3-14.8-7.3-14.8-15.7c0-8.4,6.6-15.2,14.8-14.9
							S3203.1,1092.6,3203.1,1101.1z"/>
					</g>
					<g class="st11">
						<polygon class="st2" points="2729.4,2354.5 575.8,2422.2 575.8,1193.3 2729.4,1235 						"/>
					</g>
					<g>
						<g>
							<polygon class="st12" points="3261.7,1560.4 2767.1,1558.1 2767.1,1235.7 3261.7,1245.2 							"/>
						</g>
						<polygon class="st2" points="3261.7,1618.1 2767.1,1617.1 2767.1,1593 3261.7,1594.5 						"/>
						<polygon class="st2" points="3077.7,1658.9 2767.1,1658.9 2767.1,1634.7 3077.7,1635.1 						"/>
					</g>
					<g>
						<g>
							<polygon class="st12" points="3261.7,2022.7 2767.1,2031 2767.1,1708.7 3261.7,1707.7 							"/>
						</g>
						<polygon class="st2" points="3261.7,2080.6 2767.1,2090.1 2767.1,2066 3261.7,2056.9 						"/>
						<polygon class="st2" points="3077.7,2125.1 2767.1,2131.8 2767.1,2107.6 3077.7,2101.4 						"/>
					</g>
					<g>
						<g>
							<polygon class="st12" points="3261.7,2485.1 2767.1,2504 2767.1,2181.6 3261.7,2170 							"/>
						</g>
						<polygon class="st2" points="3261.7,2542.9 2767.1,2563 2767.1,2538.9 3261.7,2519.2 						"/>
						<polygon class="st2" points="3077.7,2591.5 2767.1,2604.8 2767.1,2580.7 3077.7,2567.6 						"/>
					</g>
					<g>
						<polygon class="st2" points="2066.3,2505.3 575.8,2560.6 575.8,2479.8 2066.3,2429.5 						"/>
						<polygon class="st2" points="2729.4,2480.7 2516.8,2488.6 2516.8,2414.3 2729.4,2407 						"/>
						<polygon class="st2" points="2484,2489.7 2266.6,2497.8 2266.6,2422.7 2484,2415.3 						"/>
						<polygon class="st2" points="1257.6,2630.1 575.8,2658.2 575.8,2617.8 1257.6,2590.9 						"/>
					</g>
				</g>
			</g>
		</g>
		<g>
			
				<linearGradient id="SVGID_00000171000079311334403960000004898691460806157711_" gradientUnits="userSpaceOnUse" x1="6676.1831" y1="-1454.8376" x2="6286.9058" y2="411.5551" gradientTransform="matrix(-1 0 0 1 9492.1406 3114)">
				<stop  offset="0" style="stop-color:#FFC444"/>
				<stop  offset="0.9964" style="stop-color:#F36F56"/>
			</linearGradient>
			<path style="fill:url(#SVGID_00000171000079311334403960000004898691460806157711_);" d="M2729.1,2194.2
				c-33.8-36.1,59.9-172,110.1-231.5c43.8-52,88.9-105.5,144.2-98.7c48.5,6,95.9,57.2,98.7,106.3
				C3089.7,2102.4,2777.2,2245.7,2729.1,2194.2z"/>
			
				<linearGradient id="SVGID_00000133505499510821683970000014821090989091220655_" gradientUnits="userSpaceOnUse" x1="1493.4174" y1="571.1898" x2="1609.999" y2="571.1898" gradientTransform="matrix(0.9996 2.890000e-02 -2.890000e-02 0.9996 1551.6129 2999.8757)">
				<stop  offset="0" style="stop-color:#444B8C"/>
				<stop  offset="0.9964" style="stop-color:#26264F"/>
			</linearGradient>
			<path style="fill:url(#SVGID_00000133505499510821683970000014821090989091220655_);" d="M3135.7,3590.2
				c6.4,5.2,7.5,18.1,8.3,26.6c0.4,3.8,0.5,5.6,0.1,7c-3.1,9.7-22,10.7-51.6,13.8c-46.7,4.7-60.7,8.4-64.4,1.5
				c-3.4-6.5,4.9-17.2,5.7-18.4c5-6.4,11.2-8.7,23.1-12.5c22.1-7.3,37-11.2,41.5-12.4C3126.7,3588.1,3131.5,3586.7,3135.7,3590.2z"
				/>
			<path class="st5" d="M3107.8,3547.4l-4.7,53.4c1.3,2.6,17.2,10.3,29.8,3.7l12-52.4L3107.8,3547.4z"/>
			
				<linearGradient id="SVGID_00000134235190716851308510000016082500628903012030_" gradientUnits="userSpaceOnUse" x1="1355.8511" y1="1221.3817" x2="1479.6495" y2="1221.3817" gradientTransform="matrix(0.9642 0.2651 -0.2651 0.9642 1665.9652 2044.7743)">
				<stop  offset="0" style="stop-color:#444B8C"/>
				<stop  offset="0.9964" style="stop-color:#26264F"/>
			</linearGradient>
			<path style="fill:url(#SVGID_00000134235190716851308510000016082500628903012030_);" d="M2764.6,3583.3c7.7,8.4,9.3,24,2.7,31.7
				c-6.5,7.5-16.3,1.9-44.2,2.7c-29.9,0.9-37.7,7.9-57.9,2.3c-8.2-2.3-22.6-7.8-22.3-13.7c0.3-4.1,7.5-6.3,32.2-14.4
				c34.9-11.7,34.7-12.4,42.1-13.5C2735.8,3575.2,2754.5,3572.2,2764.6,3583.3z"/>
			<path class="st5" d="M2745.5,3534.6l-14.9,49.8c1.1,2.7,16.3,11.6,29.4,5.9l22.2-48.3L2745.5,3534.6z"/>
			
				<linearGradient id="SVGID_00000070805482694060777950000008198195801773232020_" gradientUnits="userSpaceOnUse" x1="6801.9385" y1="266.334" x2="6471.5791" y2="-478.3761" gradientTransform="matrix(-1 0 0 1 9492.1406 3114)">
				<stop  offset="0" style="stop-color:#AA80F9"/>
				<stop  offset="0.9964" style="stop-color:#6165D7"/>
			</linearGradient>
			<path style="fill:url(#SVGID_00000070805482694060777950000008198195801773232020_);" d="M2878.5,2444.5
				c-2.2,167.3-13.5,355.4-41,559.7c-27.1,201.9-65,384.4-106.4,544.9c19,5.1,38.2,10.2,57.2,15.5
				c48.4-45.2,109.6-116.2,139.1-216.7c18.3-62.3,12.3-94.4,23.8-171.1c18.5-122.1,55.9-186.1,94.6-284.5
				c34.7-88.5,75.9-218.4,97.9-391.9C3055.3,2481.7,2966.8,2463,2878.5,2444.5z"/>
			
				<linearGradient id="SVGID_00000032613461189717335460000003226906482205266316_" gradientUnits="userSpaceOnUse" x1="6505.1284" y1="643.8516" x2="6174.7749" y2="-100.8451" gradientTransform="matrix(-0.9925 -0.1225 -0.1225 0.9925 9387.626 3573.4541)">
				<stop  offset="0" style="stop-color:#AA80F9"/>
				<stop  offset="0.9964" style="stop-color:#6165D7"/>
			</linearGradient>
			<path style="fill:url(#SVGID_00000032613461189717335460000003226906482205266316_);" d="M3050.7,2428.6
				c11.6,212.8,21.3,429.5,28.6,650c5.5,165.5,9.5,329,12.1,490.1c19.5,2.4,38.9,4.9,58.5,7.3c18.9-35.1,43.9-88.8,61-157.5
				c20.8-83.5,16-133.1,25.2-219.7c10.2-97.1,25.2-118.3,51.5-240.6c53.5-248.5,80.3-372.8,20.6-450
				C3288.9,2483.1,3228.1,2420.1,3050.7,2428.6z"/>
			
				<linearGradient id="SVGID_00000016757747246945961380000002570818149878231190_" gradientUnits="userSpaceOnUse" x1="6541.4307" y1="-1482.9436" x2="6152.1538" y2="383.4455" gradientTransform="matrix(-1 0 0 1 9492.1406 3114)">
				<stop  offset="0" style="stop-color:#FFC444"/>
				<stop  offset="0.9964" style="stop-color:#F36F56"/>
			</linearGradient>
			<path style="fill:url(#SVGID_00000016757747246945961380000002570818149878231190_);" d="M3335,1893.9
				c-45.7-12.9-112.6-27.8-194.6-32.4c-117-6.6-175.3-10-216.8,17.9c-95.7,64.4-21.6,212.8-60.8,580.7
				c-5.6,52.5-6.9,105.5-10.9,158.1c-6.8,87.2-8.2,91.9-2.2,100.8c38.1,55.4,180.1-28.2,388.2,4.9c116.5,18.5,169.2,61,201.1,30.4
				c37.2-35.9,5.2-132.2-22.2-215.2c-31.5-95.3-51-96.4-69-168.2c-18.6-75-7.4-113.5-4.5-231.8
				C3345,2082.3,3344.6,1998.2,3335,1893.9z"/>
			<g class="st19">
				
					<linearGradient id="SVGID_00000009547632837454450930000006821303486780917146_" gradientUnits="userSpaceOnUse" x1="6206.5737" y1="113.243" x2="6354.313" y2="-588.5165" gradientTransform="matrix(-1 0 0 1 9492.1406 3114)">
					<stop  offset="0" style="stop-color:#FFC444"/>
					<stop  offset="0.9964" style="stop-color:#F36F56"/>
				</linearGradient>
				<path style="fill:url(#SVGID_00000009547632837454450930000006821303486780917146_);" d="M3052,2584.6
					c54.4-4.2,89.6,26.4,136.6,2.6c64.4-32.8,85.1-135.1,81-207.5c-6.3-110-69-138.9-58.2-210.1c5.9-38.4,33.3-89.5,131.8-141.6
					c1.3,43.9,1,81.2,0.4,111c-2.9,118.3-14.2,156.8,4.5,231.8c17.9,71.8,37.4,72.9,69,168.2c27.5,83,59.4,179.3,22.2,215.2
					c-31.9,30.8-84.7-11.9-201.1-30.4c-179.3-28.5-309.4,29.6-366.4,10.7C2940.3,2620.8,3002.7,2588.4,3052,2584.6z"/>
			</g>
			
				<linearGradient id="SVGID_00000041278443611689686220000005635193191568297622_" gradientUnits="userSpaceOnUse" x1="6274.8262" y1="-1538.5496" x2="5885.5498" y2="327.8406" gradientTransform="matrix(-1 0 0 1 9492.1406 3114)">
				<stop  offset="0" style="stop-color:#FFC444"/>
				<stop  offset="0.9964" style="stop-color:#F36F56"/>
			</linearGradient>
			<path style="fill:url(#SVGID_00000041278443611689686220000005635193191568297622_);" d="M3260.8,1901.4
				c38.8-31.9,117,4.2,137.8,13.9c116.5,53.9,221.1,199,195.1,352.5c-3.8,23-21.8,130.6-113,182.7c-82.2,47-193.2,35-282.2-31.7
				c-12.1-10.7-24.3-21.6-36.5-32.3c-12-12.9-23.9-25.8-35.9-38.8c18.8-15.6,50.7-38.2,95.7-52.6c59.1-19,102.2,15.2,129.6-10.9
				c18.9-18,19-49.7,14.3-69c-9.4-38.8-43.5-49.7-72.2-77.1C3226.6,2073.3,3214.3,1939.6,3260.8,1901.4z"/>
			<g>
				<polygon class="st8" points="2702.5,2402.1 3223.3,2394.3 3084.7,2461.2 2701.2,2436.1 				"/>
				<path class="st7" d="M3241.5,2408.3L3241.5,2408.3c0,9.7-6.1,18.4-15.2,21.8l-166.4,65.3l-0.8-45.2l164-55.7
					C3232.5,2391.8,3241.5,2398.7,3241.5,2408.3z"/>
			</g>
			<path class="st2" d="M3161.5,2377.3c3.2-0.8-15.6-38.1-30.3-33.8c-14.7,4.3-86.8,46.1-93.4,63.2c-6.5,17.2-6.5,17.2-6.5,17.2
				s31.4,2.4,51-4.1C3101.7,2413.5,3135.4,2383.2,3161.5,2377.3z"/>
			<g>
				<g>
					<path class="st7" d="M3045.4,2132.7l36.7,334.2c1.3,11.5-14.8,28.7-26.4,28.2l-538.4-33.1c-8.8-0.4-16.2-6.9-17.8-15.7
						l-67.6-322.8c-2-11.7,19.2-23.9,31-23.5l564.3,15.8C3036.6,2116.2,3044.4,2123.3,3045.4,2132.7z"/>
					<path class="st22" d="M3033.1,2142.5l36.7,334.2c1.3,11.5-8,21.5-19.7,20.9l-545.3-25.8c-8.8-0.4-16.2-6.9-17.8-15.7
						l-55.7-324.2c-2-11.7,7.3-22.3,19.2-22.1l564.3,15.8C3024.3,2125.9,3032.1,2133,3033.1,2142.5z"/>
				</g>
				<path class="st23" d="M2712.8,2393.4c47.6-20.2,30.8-58.6,87-106.6c74.2-63.2,149.8-35.9,176.2-84.8
					c8.3-15.3,12.1-39.1-2.2-77.5l40.9,1.1c9.4,0.3,17.2,7.4,18.3,16.9l36.7,334.2c1.3,11.5-8,21.5-19.7,20.9l-545.3-25.8
					c-8.8-0.4-16.2-6.9-17.8-15.7l-7.7-44.7c16.6-9.2,36.3-17.6,59.4-22.2C2618.8,2372.9,2658.1,2416.7,2712.8,2393.4z"/>
			</g>
			<path class="st5" d="M2470.5,2425c-0.9-2.7,1-5.5,3.8-5.6c11.5-0.6,38.3-0.8,53,8.2c19.2,11.7,43.9,33.2,23.1,43.9l-19.5,10.1
				c-0.9,0.5-1.9,0.6-2.8,0.4c-6.9-1.5-36-8-39.2-9.6C2485.9,2471.1,2474.8,2438,2470.5,2425z"/>
			<g>
				<path class="st2" d="M3131.7,1733.6c-0.3,34.6,3.6,62.2,7.3,81c4.2,21.6,7.2,27.2,11.1,31.7c5.7,6.8,14.6,12.5,64.2,24.8
					c27.1,6.6,30.5,6.5,31.2,9.2c2.9,13-70.7,57.7-147,46.9c-46.6-6.6-89-33.2-86.5-47.1c2.7-14,49.2-6.5,63.1-31.9
					c9.7-17.6-1.1-42.8-13.9-63.6C3073.5,1761.4,3119.3,1756.8,3131.7,1733.6z"/>
				<g>
					<path d="M3045.3,1747.4c-11-14.6-11.6-40.1,1-56.2c10.9-13.9,28.1-15.8,38.3-17c29.8-3.4,67.3,8.9,80.5,36.4
						c7.8,16.2-9.1,49.9-11.6,56.1c-2.9,6.9-8.3,9.2-13.3,14.4c-6.9,7.2-17.8,18.6-35.4,37.8c-1.4-5.6-3.4-12.6-6.8-20.2
						c-1.3-2.9-6.4-14.3-14.2-23.8C3068.2,1755.8,3055.6,1761.2,3045.3,1747.4z"/>
					<path class="st2" d="M3129.8,1802.5c0,0-19.5,32.1-58.5,29.6c-34.9-2.3-40-80.5-17.8-97.1c7.4-5.5,22.3-7.8,34.5-4.5
						c7.2,2,9.6,5,21.3,8c10.9,2.8,13.9,1.7,17.1,4.3c4.1,3.4,7.2,11.9,0.3,34.7c6.6-6.8,14.7-9.3,20.3-6.6c0.9,0.4,3.3,2,4.6,4.5
						C3156.5,1784.5,3148.3,1795.9,3129.8,1802.5z"/>
					
						<linearGradient id="SVGID_00000103978597344089528500000016633261488566225079_" gradientUnits="userSpaceOnUse" x1="1425.7158" y1="-1351.1416" x2="1337.464" y2="-1575.2852" gradientTransform="matrix(1 3.700000e-03 -3.700000e-03 1 1717.1163 3266.3044)">
						<stop  offset="0" style="stop-color:#311944"/>
						<stop  offset="1" style="stop-color:#6B3976"/>
					</linearGradient>
					<path style="fill:url(#SVGID_00000103978597344089528500000016633261488566225079_);" d="M3128,1738.3
						c-1.7,1.3,3.4,7.5,3.8,16.5c0.8,17.2-16.7,37.9-34.5,39.7c-10.5,1-13.4-5.4-30.8-7.2c-10.7-1.1-19.8,0.3-25.4,1.4
						c-5.5,18.9-0.4,37.8,12.3,46.5c13.7,9.5,31,3.7,38.3,1.3c4.9-1.7,20.4-6.6,28.6-20.9c8.4-14.9,0.1-23.9,9.8-34
						c4.9-5.1,11.4-7.3,17.6-17.1c1.7-2.7,2.8-5,3.6-6.6C3142.4,1748.4,3130.4,1736.4,3128,1738.3z"/>
					<path class="st2" d="M3053.8,1795.7c0,0,7.5,4,20.6,3.2c0.6,0,1.3,0.1,1.4,0.5c0.3,1.3-8,6.8-15.7,4.6c-5.5-1.5-9.7-6.8-8.9-8
						C3051.4,1795.4,3052.5,1795.5,3053.8,1795.7z"/>
				</g>
			</g>
		</g>
		<g>
			<g>
				<g>
					<path class="st25" d="M3195.1,859.7l-5.4,564.2c-0.9,88.5-72.9,159-161.4,159H1831.2c-95.3,0-171.4-73.7-169.7-166l1-57.1
						l0.3-11.4l9.6-520.8c1.5-87.6,73.4-157.3,162.4-161.3c4.1-0.1,8.3-0.1,12.4-0.1l1.5,0.1l1188.8,30.5
						C3125.6,699,3195.9,772,3195.1,859.7z"/>
					
						<linearGradient id="SVGID_00000169551025102776530880000011117225927871669136_" gradientUnits="userSpaceOnUse" x1="2695.5334" y1="-2930.3931" x2="1627.0216" y2="-1517.7826" gradientTransform="matrix(1 0 0 1 0 3114)">
						<stop  offset="0" style="stop-color:#311944"/>
						<stop  offset="1" style="stop-color:#893976"/>
					</linearGradient>
					<path style="fill:url(#SVGID_00000169551025102776530880000011117225927871669136_);" d="M1946.2,1582.9h-594.5
						c-12.5,0-17.2-14.3-6.8-21.1l299.1-190.4l18.4-11.4l90.4-57.6l13-9.6L1946.2,1582.9z"/>
				</g>
			</g>
			<g>
				<g>
					<path class="st27" d="M3176.9,859.7l-5.4,565.5c-0.9,87.7-71.6,157.7-159.1,158.9c-0.8,0-1.5-1.3-2.4-1.3H1812.9
						c-95.3,0-171.4-73.7-169.7-166l0.9-45.3l0.1-11.4l9.8-532.5c1.7-91.7,80.2-163.8,174.8-161.4l5.7,0.1l17.8,0.5l1167,30
						C3107.3,699,3177.7,772,3176.9,859.7z"/>
					<path class="st28" d="M1928,1582.9h-594.5c-12.6,0-17.2-14.3-6.8-21.1l317.3-202.2l18.4-11.4l85.1-54.1l5.1,7L1928,1582.9z"/>
				</g>
			</g>
			<path class="st22" d="M3044.9,1575.7v-2.6H1370.3c-12.6,0-17.2-14.3-6.8-21.1l317.3-202.2l9.8-532.3
				c1.7-91.7,80.2-163.7,174.8-161.3l5.7,0.3c4.1-0.1,8.3-0.1,12.4-0.1l1.5,0.1c1.3,0.1,2.6,0.4,3.7,0.5
				c88.9,14.2,192.1,60.3,224,193.1c21.2,88.5,39.7,161.7,72.7,219.1c7.8,13.7,16.3,26.4,26.1,38.3c36.9,45.6,89.1,78.2,169.3,97.4
				c17.2,4.2,35.9,7.7,55.8,10.6c37.9,5.5,81.1,8.8,130.1,9.8c11.5,0.3,23.2,0.4,35.5,0.4c12,0,21.5,0.4,32.4,1.1
				C2885.6,1244.6,2900.9,1452.9,3044.9,1575.7z"/>
			<g>
				<path class="st2" d="M2265.5,1068.2v-57.6l-116.2,68.4l-86.5,51.2v33.8l202.5,105.1v-57.3l-142.1-67.2l50.4-27.2L2265.5,1068.2z
					"/>
				<path class="st2" d="M2426.9,964.8l-82.4,250l-34.1,103.4l59,0.6l30.9-93.5l86.5-261.4L2426.9,964.8z"/>
				<path class="st2" d="M2531.1,1007.8v58.6l150.9,77.1l-150.9,68.8v58.4l70.2-34.1l150.3-72.9v-35.5L2531.1,1007.8z"/>
			</g>
		</g>
		<g>
			<g>
				<g>
					<g>
						
							<linearGradient id="SVGID_00000160871800807087821030000018091052042791700378_" gradientUnits="userSpaceOnUse" x1="455.0612" y1="-372.5608" x2="1253.9397" y2="-372.5608" gradientTransform="matrix(1 0 0 1 0 3114)">
							<stop  offset="0" style="stop-color:#FFC444"/>
							<stop  offset="0.9964" style="stop-color:#F36F56"/>
						</linearGradient>
						
							<path id="SVGID_00000050642689358048959060000017453132686224984507_" style="fill:url(#SVGID_00000160871800807087821030000018091052042791700378_);" d="
							M1253.9,3432.8c-61.9-65.4-142.4-170.4-173.2-313.9c-40.4-188.2,40.5-277.4,50.6-591.4c6.4-198.6,8.9-337.3-86.7-417.1
							c-74.8-62.6-201-81.7-281.2-32.6c-66.7,40.9-109.3,133.7-124.6,200.9c-12.5,54.8-7.5,95.3-41.1,122.6
							c-34.4,27.8-68.4,8.9-100.2,29.1c-64.4,41-37.4,191.2-33.1,215.6c48.5,270,283.1,464.2,386.4,547.6
							C936.5,3262.3,1069.4,3355.4,1253.9,3432.8z"/>
					</g>
					<g>
						<g>
							<defs>
								<path id="SVGID_00000177475655104861645990000007431502617092758946_" d="M1253.9,3432.8
									c-61.9-65.4-142.4-170.4-173.2-313.9c-40.4-188.2,40.5-277.4,50.6-591.4c6.4-198.6,8.9-337.3-86.7-417.1
									c-74.8-62.6-201-81.7-281.2-32.6c-66.7,40.9-109.3,133.7-124.6,200.9c-12.5,54.8-7.5,95.3-41.1,122.6
									c-34.4,27.8-68.4,8.9-100.2,29.1c-64.4,41-37.4,191.2-33.1,215.6c48.5,270,283.1,464.2,386.4,547.6
									C936.5,3262.3,1069.4,3355.4,1253.9,3432.8z"/>
							</defs>
							<clipPath id="SVGID_00000119808913763549400190000013253072500174838158_">
								<use xlink:href="#SVGID_00000177475655104861645990000007431502617092758946_"  style="overflow:visible;"/>
							</clipPath>
							<g style="opacity:0.5;clip-path:url(#SVGID_00000119808913763549400190000013253072500174838158_);">
								<g>
									<path class="st2" d="M1325.7,3486.8l2.6-5.7c-195.5-87.9-437.6-242-480.6-476.8c-15.8-86.3-3.2-174.2,14.3-295.8
										c13.9-97.1,32.6-164.5,49-224.1c21.5-77.9,38.6-139.5,34.6-230.4c-4-92.3-28.7-185.3-73.8-276.5l-5.6,2.8
										c44.7,90.3,69.2,182.5,73.2,273.9c3.8,90-13,151.1-34.4,228.5c-16.5,59.8-35.2,127.4-49.3,224.9
										c-16.9,117.5-30.3,210.3-14.3,297.8c20.4,111.7,88,216.1,200.9,310.1C1118.7,3378.9,1214,3436.5,1325.7,3486.8z"/>
								</g>
								<g>
									<path class="st2" d="M868.8,2640.3l3.3-1.3c0.6-0.3,67.4-25.2,136.3-88.1c63.6-58.1,142.3-161.4,155.7-323.9l-6.3-0.5
										c-13.3,160.3-90.9,262.3-153.6,319.6c-59.3,54.1-116.7,79.7-130.9,85.6c-42.9-179.6-131-295.8-197.6-361.8
										c-72.7-72-136.3-101.7-136.9-101.9l-2.7,5.7c0.6,0.3,63.5,29.5,135.4,100.9c66.4,65.9,154.4,182.1,196.5,362L868.8,2640.3z
										"/>
								</g>
								<g>
									<path class="st2" d="M838.9,2903.5l1.4-1.8c0.6-0.9,70.4-90.5,157.8-166.7c87-75.7,281.1-92.3,283-92.5l-0.5-6.3
										c-1.9,0.1-198.2,16.9-286.6,94c-81,70.6-146.9,152.6-157.3,165.8c-198.1-74.2-385.4-559.3-387.3-564.2l-5.9,2.3
										c0.5,1.3,48.1,125.3,119.9,256.6c96.7,176.7,188.6,281.7,273.3,312.1L838.9,2903.5z"/>
								</g>
								<g>
									<path class="st2" d="M1013.3,3289.8l-2.8-5.6c-46.2-92.6-33.2-186.2,39-278.3c54-69,122.6-111,123.4-111.4l-3.3-5.4
										c-0.6,0.4-70.2,42.9-124.9,112.8c-71.3,90.9-85.8,187.3-42.4,279.4c-23-4.7-108.3-23.9-213.8-67.9
										c-113.7-47.4-274.9-134.1-397-278.1l-237.3-279.7l-4.9,4.1l237.3,279.7c123,144.9,285.2,232.3,399.6,279.9
										c123.9,51.6,220.2,69.2,221.1,69.5L1013.3,3289.8z"/>
								</g>
							</g>
						</g>
					</g>
				</g>
			</g>
			<g>
				<g>
					<g>
						
							<linearGradient id="SVGID_00000178168547356794367340000000484625674775974039_" gradientUnits="userSpaceOnUse" x1="768.1487" y1="-450.3335" x2="533.4571" y2="179.6295" gradientTransform="matrix(1 0 0 1 0 3114)">
							<stop  offset="0" style="stop-color:#AA80F9"/>
							<stop  offset="0.9964" style="stop-color:#6165D7"/>
						</linearGradient>
						
							<path id="SVGID_00000140718670233803451780000016802922552401768125_" style="fill:url(#SVGID_00000178168547356794367340000000484625674775974039_);" d="
							M1056.4,3485.3c-140.9,18.9-323.1,22.9-505.1-33.2c-46.5-14.3-333.4-102.5-317.1-230.3c5.7-45,44.3-56.8,53-116.9
							c10.3-71.1-37.2-99.9-77.9-181.7c-24.3-48.8-95.5-191.7-16.5-285.8c47.3-56.2,146-92.6,225.7-84.3
							c116.8,12.1,170,117.6,256.7,297.8c76.9,159.8,67.8,202.4,125.2,316.5C843,3252.1,917.4,3366.5,1056.4,3485.3z"/>
					</g>
					<g>
						<g>
							<defs>
								<path id="SVGID_00000066500385749325268220000004985390517587174533_" d="M1056.4,3485.3c-140.9,18.9-323.1,22.9-505.1-33.2
									c-46.5-14.3-333.4-102.5-317.1-230.3c5.7-45,44.3-56.8,53-116.9c10.3-71.1-37.2-99.9-77.9-181.7
									c-24.3-48.8-95.5-191.7-16.5-285.8c47.3-56.2,146-92.6,225.7-84.3c116.8,12.1,170,117.6,256.7,297.8
									c76.9,159.8,67.8,202.4,125.2,316.5C843,3252.1,917.4,3366.5,1056.4,3485.3z"/>
							</defs>
							<clipPath id="SVGID_00000042710546388168517810000004974392848395958433_">
								<use xlink:href="#SVGID_00000066500385749325268220000004985390517587174533_"  style="overflow:visible;"/>
							</clipPath>
							<g style="opacity:0.5;clip-path:url(#SVGID_00000042710546388168517810000004974392848395958433_);">
								<g>
									<path class="st2" d="M1310.9,3524c117.5,0,236.5-24.3,355.1-72.7l-2.4-5.9c-149.2,60.7-298.8,83.3-445.1,67
										c-523.1-58-780.7-610.9-847.1-779c-37.7-95.4-46.7-205.1-26.8-326.3l-6.3-1c-20.2,122.2-11,233.2,27.2,329.6
										c54.7,138.3,154.4,338.5,318.5,506.5c158,161.7,337.5,254.6,533.7,276.4C1248.7,3522.3,1279.7,3524,1310.9,3524z"/>
								</g>
								<g>
									<path class="st2" d="M503.2,3005.8l1.5-2.4c0.4-0.5,33.7-54.9,56.1-134.2c20.7-73.3,36.1-183.8-8-293.1l-5.9,2.4
										c43.5,107.7,28.4,216.5,7.9,288.7c-19.5,69.2-47.4,119-54,130.4C177.3,2841.2,152,2618.6,152,2554c0-2,0-2.7-0.1-3.2
										l-6.3,0.8c0,0.4,0,1.1,0,2.4c0,65.8,25.7,292.4,354.9,450.5L503.2,3005.8z"/>
								</g>
								<g>
									<path class="st2" d="M489.6,3269.1c55.9,0,120.9-7.9,195-28.6l1.7-0.5l0.5-1.7c0.6-1.8,59.3-185.2,11.6-418.1l-48-234.8
										l-6.1,1.3l48,234.8c45,219.9-5.4,394.9-11,413.4c-178.7,49.5-303,24-376.1-6.3c-79.3-32.8-116.7-78.2-117.1-78.5l-4.9,4
										c1.5,1.9,38.6,46.7,119.1,80.3C346.2,3252.5,408.5,3269.1,489.6,3269.1z"/>
								</g>
							</g>
						</g>
					</g>
				</g>
			</g>
		</g>
		<g>
			<g>
				<g>
					<g>
						
							<linearGradient id="SVGID_00000165227571438675221720000011618997576473914790_" gradientUnits="userSpaceOnUse" x1="764.6968" y1="-11.775" x2="1502.0839" y2="-11.775" gradientTransform="matrix(0.9993 3.720000e-02 -3.720000e-02 0.9993 -145.3329 2975.3972)">
							<stop  offset="0" style="stop-color:#444B8C"/>
							<stop  offset="0.9964" style="stop-color:#26264F"/>
						</linearGradient>
						<path style="fill:url(#SVGID_00000165227571438675221720000011618997576473914790_);" d="M1239.5,2429.1l97.6,1095.3
							c1.5,16.6-10.1,31.3-25.7,32.8l-528.1,54.4c-31.5,1.7-48.3-15.5-49.7-32.7l-93.7-1137.2c-1.4-16.7,14.3-32.6,45.5-33.7
							l523.2-7.7C1224.3,2399.8,1238.1,2412.8,1239.5,2429.1z"/>
						<path class="st7" d="M1263.5,2426.3l98.5,1101.8c1.5,16.7-10.1,31.5-25.8,32.9l-548,50.6c-16.9,1.5-31.8-11.4-33.2-28.7
							l-94.5-1144.1c-1.4-16.9,11.1-30.9,27.8-31.3l544.2-10.3C1248.2,2397,1262.1,2410,1263.5,2426.3z"/>
						<path class="st2" d="M1251.4,2487l91.1,1021.3c1.4,15.6-9.5,29.4-24.1,30.8l-515.2,46.7c-15.6,1.4-29.5-10.6-30.9-26.8
							l-87.6-1058c-1.3-15.7,10.3-29,25.9-29.2l511.8-11.7C1237,2459.7,1250,2471.8,1251.4,2487z"/>
						<g>
							<path class="st10" d="M1251.4,2487c-1.4-15.2-14.3-27.3-28.9-27.1l-511.8,11.7c-15.6,0.4-27.2,13.5-25.9,29.2l12.5,151.5
								l567.6-13.7L1251.4,2487z"/>
						</g>
					</g>
					
						<linearGradient id="SVGID_00000158004878566048727290000014853510027869956746_" gradientUnits="userSpaceOnUse" x1="1108.0386" y1="-622.7421" x2="482.0593" y2="1072.6179" gradientTransform="matrix(0.9993 3.720000e-02 -3.720000e-02 0.9993 -145.3329 2975.3972)">
						<stop  offset="0" style="stop-color:#FFC444"/>
						<stop  offset="0.9964" style="stop-color:#F36F56"/>
					</linearGradient>
					<path style="fill:url(#SVGID_00000158004878566048727290000014853510027869956746_);" d="M978.1,2435.6
						c0.5,5.7-3.6,10.5-9.2,10.6c-5.6,0.1-10.5-4.5-11-10.2c-0.5-5.7,3.6-10.5,9.2-10.6C972.6,2425.4,977.6,2429.8,978.1,2435.6z"/>
				</g>
			</g>
			<g>
				<g>
					<polygon class="st27" points="1048.8,3058.1 792.7,3070.9 757.3,2708.9 1014.9,2702.2 					"/>
					<polygon class="st27" points="1238.9,3048.8 1088.3,3056.2 1054.6,2701.2 1205.9,2697.4 					"/>
					<polygon class="st27" points="1265.3,3332.1 821.1,3362.6 797.3,3117.9 1243.1,3094.5 					"/>
					<polygon class="st27" points="1279.2,3480 836.1,3514.8 825.4,3405.2 1269.3,3373.4 					"/>
				</g>
			</g>
			<g class="st35">
				<path class="st2" d="M1131.9,3182.7c-53.1-185.6-208-167-254.4-334.7c-38.1-137.8,49.7-210.3-3.6-325.6
					c-25-54.3-68.8-90.9-114.3-116l-71.3,1.4c-16.7,0.3-29.2,14.4-27.8,31.3L755,3583.1c1.4,17.4,16.3,30.3,33.2,28.7l449.3-41.5
					c-28.7-36.4-55.9-81.1-75-134.6C1122.7,3322.2,1161.2,3285.3,1131.9,3182.7z"/>
			</g>
		</g>
	</g>
</g>
</svg>
