<?xml version="1.0" encoding="utf-8"?>
<!-- Generator: Adobe Illustrator 27.0.0, SVG Export Plug-In . SVG Version: 6.00 Build 0)  -->
<svg version="1.1" id="Layer_1" xmlns="http://www.w3.org/2000/svg" xmlns:xlink="http://www.w3.org/1999/xlink" x="0px" y="0px"
	 viewBox="0 0 48 48" style="enable-background:new 0 0 48 48;" xml:space="preserve">
<style type="text/css">
	.st0{fill-rule:evenodd;clip-rule:evenodd;fill:#8E8E8E;}
	.st1{fill:#8E8E8E;}
</style>
<path class="st0" d="M1.7,24c0-12.4,10-22.3,22.3-22.3s22.3,10,22.3,22.3S36.4,46.3,24,46.3S1.7,36.4,1.7,24z M14.2,36.2l9.7,2.7
	l9.7-2.7l2.1-24.2H12.1L14.2,36.2z"/>
<path class="st1" d="M20.4,23.1l-0.3-2.8h10.7l0.3-2.8H17.1l0.8,8.5h9.6l-0.3,3.6l-3.1,0.9L21,29.7l-0.2-2.2H18l0.3,4.4l5.8,1.5
	l5.7-1.5l0.8-8.6L20.4,23.1L20.4,23.1z"/>
</svg>
